<svg width="146" height="32" viewBox="0 0 146 32" fill="none" xmlns="http://www.w3.org/2000/svg">
<g clip-path="url(#clip0_7065_21837)">
<path d="M-0.930833 0.605265C-0.810998 0.582255 -0.712744 0.54661 -0.614871 0.546876C3.42396 0.563236 7.46304 0.556984 11.5014 0.616039C12.8777 0.63599 14.1423 1.14474 15.273 1.98799C17.8539 3.91218 18.0923 9.40929 14.5493 11.3811C14.369 11.4814 14.1895 11.5827 13.9448 11.7197C14.6181 12.0436 15.2805 12.2607 15.8357 12.647C17.9667 14.1303 18.8346 17.4491 17.8806 20.364C17.0482 22.9072 15.0716 23.9574 12.7731 24.516C12.0182 24.6996 11.2275 24.7948 10.4522 24.8005C6.67675 24.8291 2.90108 24.8133 -0.931213 24.8133C-0.930833 16.7532 -0.930833 8.69199 -0.930833 0.605265ZM3.10711 21.2655C5.9151 21.2655 8.64209 21.3326 11.364 21.2413C13.0751 21.184 14.3115 19.2623 14.2086 17.3932C14.1071 15.5508 13.0243 13.984 11.3506 13.9021C8.65212 13.77 5.94632 13.8074 3.24345 13.7779C3.20308 13.7776 3.16208 13.8398 3.10698 13.8847L3.10711 21.2655ZM3.1165 10.6239C5.6263 10.6239 8.04673 10.7197 10.4564 10.5921C12.2309 10.4981 13.2325 9.01147 13.1661 6.97928C13.1073 5.17998 12.0933 4.09785 10.2677 4.04731C7.97881 3.9844 5.68736 4.01353 3.39679 4.00794C3.30362 4.00768 3.21031 4.06035 3.1165 4.08828V10.6239ZM128.272 7.29823H131.639V9.18877C132.013 8.88591 132.47 8.54954 132.891 8.17061C135.471 5.851 141.589 6.13563 143.683 10.8069C145.485 14.8271 145.407 18.8701 142.974 22.6129C141.627 24.6859 139.541 25.4267 137.178 25.2935C135.125 25.1773 133.317 24.5011 131.895 22.5095V31.3247H128.272C128.272 23.3087 128.272 15.3263 128.272 7.29823ZM131.692 16.1505C131.844 17.0309 131.927 17.9324 132.162 18.788C132.685 20.6975 134.279 22.1094 135.929 22.2314C138.138 22.3946 139.723 21.5398 140.521 19.4886C141.536 16.8818 141.5 14.2528 140.017 11.8166C138.269 8.94271 134.078 9.18291 132.596 12.1935C131.986 13.4328 131.688 14.7372 131.692 16.1505ZM125.887 22.3056C125.887 23.0261 125.911 23.7578 125.869 24.4857C125.859 24.6654 125.644 24.9689 125.504 24.9814C124.454 25.0731 123.387 25.2335 122.351 25.1201C121.437 25.0201 120.933 24.2085 120.651 23.27C118.482 25.1205 115.994 25.5208 113.348 25.1772C111.135 24.89 109.301 22.9861 109.144 20.8721C108.926 17.9585 109.994 16.0613 112.491 15.3706C114.243 14.8865 116.067 14.6919 117.857 14.3648C118.292 14.2855 118.731 14.2209 119.156 14.0993C119.971 13.8663 120.559 13.3936 120.618 12.4216C120.68 11.4169 120.308 10.634 119.407 10.2537C117.869 9.60534 116.303 9.62143 114.788 10.3639C114.097 10.7025 113.687 11.384 113.325 12.5416H109.776C109.779 11.1241 110.25 9.9328 111.149 8.92981C112.336 7.60481 113.883 7.08462 115.549 6.90201C117.293 6.71088 119.028 6.71939 120.722 7.31805C123.001 8.12313 124.092 9.69831 124.089 12.2201C124.086 14.897 124.088 17.5738 124.087 20.2511C124.087 22.1509 124.087 22.1509 125.887 22.3056ZM120.402 16.265C119.284 16.468 118.26 16.6236 117.251 16.845C116.188 17.0777 115.106 17.2794 114.093 17.668C113.1 18.0492 112.763 19.0215 112.796 20.0655C112.827 21.0638 113.478 21.623 114.316 21.9301C115.755 22.4567 117.197 22.3918 118.569 21.7195C119.552 21.2379 120.3 20.4505 120.388 19.2474C120.46 18.2454 120.402 17.2328 120.402 16.265ZM29.0909 6.79241C34.6562 6.72391 37.9198 10.9982 37.5755 16.8181C37.4561 18.841 36.9373 20.7315 35.6664 22.3302C34.297 24.0528 32.5349 24.9599 30.4224 25.2059C28.6584 25.412 26.9443 25.2909 25.3098 24.5136C22.8756 23.3558 21.4871 21.3353 20.903 18.6432C20.5025 16.798 20.5201 14.9605 20.9691 13.1353C21.9596 9.10896 24.9188 6.8081 29.0909 6.79241ZM24.2464 16.0799C24.3925 16.9342 24.4688 17.8098 24.6981 18.6388C25.282 20.7495 26.8719 22.1431 28.6897 22.2354C30.9368 22.3495 32.509 21.3592 33.344 19.1662C34.1594 17.0253 34.1606 14.8343 33.2667 12.7193C31.9423 9.58579 28.3341 8.78456 26.0106 11.1136C24.6857 12.4415 24.3437 14.2061 24.2464 16.0799ZM48.3996 6.79267C53.4192 6.78443 56.8346 10.3285 56.8981 15.5999C56.925 17.8257 56.5789 19.9482 55.3319 21.8128C53.5468 24.4823 50.9683 25.4162 47.9997 25.2746C46.906 25.2223 45.7721 24.9677 44.7528 24.5485C42.3594 23.5641 40.9323 21.626 40.2981 19.0318C39.7414 16.7538 39.8034 14.4902 40.5115 12.2637C41.5975 8.8484 44.5766 6.79866 48.3996 6.79267ZM53.2109 15.6065C53.1299 15.139 53.05 14.2357 52.8095 13.3818C52.198 11.21 50.5819 9.89157 48.5457 9.79886C46.6281 9.71134 44.9033 10.896 44.1596 12.9708C43.2835 15.4145 43.348 17.8486 44.668 20.1255C46.043 22.4975 49.1601 23.0173 51.2044 21.2476C52.7642 19.8972 53.1458 18.0327 53.2109 15.6065ZM84.2461 12.1676C83.1007 12.1676 81.9851 12.1774 80.8704 12.1551C80.7331 12.1524 80.5193 12.0082 80.475 11.8791C79.8482 10.0548 78.3732 9.83783 76.848 9.82866C76.2156 9.82467 75.5426 9.986 74.957 10.2434C73.7055 10.7935 73.5664 12.2772 74.7393 12.9878C75.553 13.4808 76.5084 13.7457 77.4262 14.0165C78.7249 14.3997 80.0655 14.6304 81.3557 15.0389C84.6547 16.0836 85.9441 19.5492 84.097 22.4062C83.2109 23.7763 81.8859 24.5179 80.3665 24.9022C78.121 25.47 75.8853 25.5116 73.6908 24.6812C71.3427 23.7924 70.1023 22.0085 69.9193 19.3083H73.5021C74.5209 22.0944 77.3994 23.1795 80.0962 21.7558C80.72 21.4262 81.1365 20.9576 81.1782 20.1872C81.2226 19.3639 80.9191 18.656 80.2139 18.3804C78.9566 17.889 77.6435 17.5521 76.3528 17.1557C75.2837 16.8271 74.1807 16.5898 73.149 16.1621C71.1588 15.3363 70.294 13.9155 70.3062 11.7495C70.3169 9.86031 71.3709 8.24163 73.2398 7.53165C75.8119 6.55446 78.4369 6.4329 81.0205 7.49335C82.7672 8.21025 83.8083 9.62409 84.2412 11.5277C84.2803 11.7034 84.2461 11.8981 84.2461 12.1676ZM64.794 7.24942H68.1101V10.0905H64.8606C64.8376 10.4308 64.8081 10.6688 64.8077 10.9068C64.8045 13.7745 64.8032 16.6421 64.8089 19.5093C64.8096 19.8909 64.8378 20.2736 64.8737 20.6537C64.945 21.412 65.3468 21.8623 66.0755 21.9038C66.7432 21.9423 67.4146 21.9121 68.1217 21.9121V24.7529C66.6071 25.1457 65.0678 25.1249 63.5776 24.7771C61.8424 24.3723 61.1375 23.1213 61.1222 20.7536C61.1013 17.5311 61.116 14.3081 61.1154 11.0854V10.138H58.3612V7.26445H61.0782V2.00249H64.7943C64.794 3.72371 64.794 5.4323 64.794 7.24942ZM95.8074 24.8624C94.3805 24.8624 93.0297 24.9089 91.6835 24.8491C90.3786 24.7911 89.3737 23.8844 89.0886 22.5312C88.9261 21.7595 88.8401 20.9723 88.8318 20.1821C88.803 17.1502 88.8199 14.1175 88.8199 11.0853V10.1265H86.0747V7.29091H88.779V2.00754H92.5023V7.20526H95.8025V10.0614H92.6357C92.598 10.3188 92.5486 10.4967 92.5486 10.6751C92.5459 13.762 92.5364 16.8489 92.5556 19.9356C92.5657 21.5681 92.9736 21.961 94.518 21.9494C94.9306 21.9466 95.3436 21.9492 95.8075 21.9492L95.8074 24.8624ZM102.001 7.30807V10.2974C103.43 7.7539 105.409 6.42851 108.332 6.88033V10.5682C106.943 10.3495 105.604 10.3105 104.418 11.2034C102.863 12.375 102.32 14.0871 102.281 15.9743C102.221 18.8918 102.265 21.8119 102.265 24.7947H98.6186V7.3078C99.7233 7.30807 100.805 7.30807 102.001 7.30807Z" fill="white"/>
</g>
<defs>
<clipPath id="clip0_7065_21837">
<rect width="146" height="30.778" fill="white" transform="translate(-6.10352e-05 0.546875)"/>
</clipPath>
</defs>
</svg>
