<svg width="59" height="60" viewBox="0 0 59 60" fill="none" xmlns="http://www.w3.org/2000/svg">
<g clip-path="url(#clip0_7065_21994)">
<path d="M58.9999 0.759766H-6.10352e-05V59.7598H58.9999V0.759766Z" fill="#6244C9"/>
<path d="M10.5154 38.4535C10.0982 38.4535 9.74361 38.3146 9.45159 38.0365C9.15956 37.7513 9.01355 37.4127 9.01355 37.0207C9.01355 36.6214 9.15956 36.2793 9.45159 35.9942C9.74361 35.709 10.0982 35.5664 10.5154 35.5664C10.9395 35.5664 11.2976 35.709 11.5896 35.9942C11.8886 36.2793 12.0381 36.6214 12.0381 37.0207C12.0381 37.4127 11.8886 37.7513 11.5896 38.0365C11.2976 38.3146 10.9395 38.4535 10.5154 38.4535Z" fill="white"/>
<path d="M27.1926 38.2189H24.4809L17.3369 26.9483C17.1561 26.6631 17.0066 26.3672 16.8884 26.0607H16.8258C16.8814 26.3887 16.9093 27.0908 16.9093 28.1672V38.2189H14.5104V22.8848H17.3994L24.3037 33.8881C24.5957 34.3445 24.7834 34.6581 24.8669 34.8292H24.9085C24.8391 34.4229 24.8043 33.7349 24.8043 32.7653V22.8848H27.1926V38.2189Z" fill="white"/>
<path d="M38.874 38.2189H30.4784V22.8848H38.5403V25.0449H32.9607V29.3863H38.1023V31.5356H32.9607V36.0696H38.874V38.2189Z" fill="white"/>
<path d="M50.8054 25.0449H46.5085V38.2189H44.0263V25.0449H39.7398V22.8848H50.8054V25.0449Z" fill="white"/>
</g>
<defs>
<clipPath id="clip0_7065_21994">
<rect width="59" height="59" fill="white" transform="translate(-6.10352e-05 0.759766)"/>
</clipPath>
</defs>
</svg>
