<svg width="70" height="45" viewBox="0 0 70 45" fill="none" xmlns="http://www.w3.org/2000/svg">
<g clip-path="url(#clip0_7065_21991)">
<path d="M3.52739 22.6617C3.35022 22.4734 3.13431 22.3239 2.89624 22.2187C2.65818 22.1134 2.40351 22.0636 2.1433 22.0636C1.88309 22.0581 1.62842 22.1134 1.39036 22.2131C1.15229 22.3183 0.936378 22.4679 0.759215 22.6561C0.576515 22.8389 0.43257 23.0548 0.338453 23.2929C0.244335 23.5366 0.194508 23.7913 0.194508 24.0461C0.188971 24.3063 0.238798 24.561 0.338453 24.7992C0.438107 25.0373 0.582052 25.2532 0.764751 25.436C0.941966 25.6243 1.15672 25.7734 1.39513 25.8736C1.63354 25.9737 1.89031 26.0227 2.14884 26.0174C2.40682 26.0188 2.66242 25.9681 2.90027 25.8681C3.13813 25.7682 3.35332 25.6212 3.53292 25.436C3.72116 25.2588 3.8651 25.0428 3.96476 24.8047C4.06441 24.5666 4.11424 24.3119 4.11424 24.0516C4.11424 23.7913 4.06441 23.5366 3.96476 23.2985C3.85957 23.0548 3.71562 22.8389 3.52739 22.6617ZM26.697 18.1652C26.6693 19.4056 26.7302 20.6515 26.8741 21.8864H26.8077C26.6527 21.5818 26.3094 21.017 25.7835 20.1919L13.1606 0.373047H9.32947V25.6741H12.2748V7.38358C12.308 6.22623 12.2582 5.06888 12.1364 3.91154H12.2471C12.4575 4.46529 12.7288 4.9969 13.0499 5.49528L26.016 25.6741H29.6423V0.373047H26.697V18.1652ZM49.6119 22.8942H39.2036V14.1283H48.3109V11.4592H39.2036V3.05322H48.9752V0.373047H36.1863V25.6741H49.5953L49.6119 22.8942ZM51.8652 0.373047V3.05322H59.1178V25.6741H62.0631V3.05322H69.3988V0.373047H51.8652ZM22.9987 31.9647C22.263 32.2583 21.5986 32.7058 21.0499 33.2771C20.4852 33.8807 20.0423 34.5895 19.7544 35.3703C19.4665 36.1511 19.3392 36.9762 19.3724 37.8013C19.317 39.3297 19.8485 40.8248 20.8672 41.9655C21.3766 42.5027 21.9966 42.918 22.6831 43.1949C23.3696 43.4718 24.106 43.5936 24.8423 43.5604C25.9496 43.5991 27.0513 43.3665 28.0534 42.8792L28.0645 41.589C27.1454 42.1261 26.0991 42.3919 25.0361 42.3643C24.4658 42.3864 23.8956 42.2867 23.3696 42.0708C22.8437 41.8548 22.3676 41.5225 21.98 41.1017C21.1696 40.1601 20.7532 38.9424 20.8174 37.7016C20.7509 36.3892 21.1994 35.1045 22.0631 34.1188C22.4727 33.6648 22.9766 33.3104 23.5357 33.0667C24.097 32.8279 24.7031 32.7127 25.3129 32.7289C26.2818 32.7123 27.234 32.9504 28.0811 33.4211V32.0312C27.2026 31.6769 26.2595 31.5109 25.3129 31.5439C24.5212 31.5328 23.7295 31.6713 22.9987 31.9647ZM36.8008 35.9296C36.4308 35.5404 35.9809 35.2359 35.482 35.037C34.9831 34.8382 34.4471 34.7498 33.9108 34.7778C33.3406 34.7501 32.7759 34.8443 32.2444 35.0492C31.7129 35.254 31.2312 35.5641 30.8216 35.9573C30.4229 36.4003 30.1184 36.9153 29.9191 37.4801C29.7198 38.045 29.6368 38.6375 29.6755 39.2355C29.6202 40.3707 30.0132 41.4838 30.7662 42.331C31.1427 42.7353 31.5966 43.0564 32.106 43.2724C32.6153 43.4828 33.1634 43.588 33.7115 43.5659C34.2707 43.5825 34.8299 43.4773 35.3503 43.2613C35.8707 43.0454 36.3358 42.7187 36.7178 42.3033C37.4942 41.4279 37.8958 40.2825 37.8361 39.1137C37.9025 37.9508 37.5316 36.8156 36.8008 35.9296ZM35.7877 41.6167C35.5441 41.8979 35.2392 42.1196 34.8966 42.2645C34.5539 42.4095 34.1826 42.4739 33.8112 42.4529C33.4292 42.4695 33.0527 42.3975 32.7039 42.2535C32.3551 42.104 32.0451 41.8825 31.7904 41.5945C31.2598 40.9376 30.9933 40.1063 31.043 39.2632C30.9932 38.3938 31.2589 37.5355 31.7904 36.8489C32.0395 36.5609 32.3496 36.3339 32.6984 36.1788C33.0472 36.0293 33.4292 35.9573 33.8056 35.9739C34.1821 35.9518 34.553 36.0238 34.8963 36.1733C35.2396 36.3228 35.5441 36.5498 35.7877 36.8378C36.2908 37.534 36.5355 38.3839 36.4797 39.2411C36.5351 40.0828 36.2915 40.93 35.7877 41.6167ZM42.2043 35.3869C41.789 35.758 41.4845 36.2397 41.3351 36.7769V35.0381H39.951V43.3665H41.3351V39.1193C41.2908 38.3495 41.4901 37.5798 41.8998 36.9264C42.0493 36.6883 42.2486 36.4889 42.4922 36.3505C42.7358 36.212 43.007 36.129 43.2839 36.1234C43.6382 36.0957 43.9925 36.1899 44.2915 36.3892V35.0159C44.0368 34.9329 43.7711 34.8941 43.5053 34.9052C43.0292 34.8996 42.5697 35.0713 42.2043 35.3869ZM52.3911 38.8258C52.4576 37.7681 52.142 36.727 51.5053 35.8853C51.1898 35.5309 50.8022 35.2485 50.3648 35.0658C49.9275 34.883 49.4569 34.8 48.9863 34.8277C48.4659 34.811 47.9455 34.9163 47.4638 35.1267C46.9877 35.3371 46.5614 35.6527 46.2181 36.0514C45.4664 36.9287 45.0765 38.0591 45.1275 39.2134C45.0555 40.3652 45.4154 41.5059 46.1351 42.403C46.4839 42.7851 46.9157 43.0841 47.3918 43.2835C47.868 43.4828 48.3884 43.5659 48.9032 43.5437C49.9275 43.5936 50.9406 43.3167 51.7932 42.7519V41.5004C51.0647 42.0924 50.1574 42.4203 49.2188 42.4307C48.859 42.4529 48.4936 42.3975 48.1558 42.2646C47.8181 42.1317 47.5081 41.9379 47.2534 41.6776C46.7588 41.0788 46.5077 40.3157 46.5503 39.5401H52.4022L52.3911 38.8258ZM46.5392 38.4381C46.6112 37.7792 46.8991 37.159 47.3531 36.6772C47.5565 36.4585 47.8035 36.2849 48.0781 36.1676C48.3528 36.0503 48.6489 35.9919 48.9475 35.9961C49.2354 35.9795 49.5178 36.0293 49.7835 36.14C50.0493 36.2508 50.2818 36.4169 50.47 36.6329C50.8576 37.1479 51.0513 37.7792 51.0237 38.4215L46.5392 38.4381Z" fill="white"/>
</g>
<defs>
<clipPath id="clip0_7065_21991">
<rect width="69.466" height="43.7731" fill="white" transform="translate(-6.10352e-05 0.373047)"/>
</clipPath>
</defs>
</svg>
