<svg width="121" height="36" viewBox="0 0 121 36" fill="none" xmlns="http://www.w3.org/2000/svg">
<path d="M3.76419 27.9066V14.4989H20.081V13.7148H3.76419V1.48329H21.1128V0.699219H2.99994V28.6906H21.2656V27.9066H3.76419ZM35.9775 8.53995L29.2139 17.6744L22.6031 8.53995H21.6095L28.7553 18.2625L20.9217 28.6906H21.8388L29.2139 18.8505L36.6271 28.6906H37.5824L29.7106 18.2625L36.8946 8.53995H35.9775ZM39.8752 35.5905V23.0453H39.9516C40.4102 24.8748 41.3145 26.3449 42.6647 27.4557C44.0149 28.5665 45.7345 29.1219 47.8234 29.1219C49.1736 29.1219 50.3709 28.8409 51.4154 28.279C52.4599 27.7171 53.3324 26.9526 54.033 25.9856C54.7336 25.0186 55.2685 23.8947 55.6379 22.6141C56.0073 21.3334 56.192 19.9874 56.192 18.5761C56.192 17.0602 56.001 15.662 55.6188 14.3813C55.2367 13.1006 54.6826 11.9899 53.9566 11.049C53.2305 10.1081 52.3517 9.3763 51.3199 8.85358C50.2882 8.33086 49.1227 8.06951 47.8234 8.06951C46.8299 8.06951 45.9064 8.21979 45.053 8.52035C44.1996 8.82091 43.4417 9.24561 42.7794 9.79447C42.117 10.3433 41.5438 10.9902 41.0598 11.735C40.5758 12.4799 40.2064 13.2967 39.9516 14.1853H39.8752V8.53995H39.1109V35.5905H39.8752ZM47.8234 28.377C45.4288 28.377 43.5054 27.5341 42.0533 25.8484C40.6012 24.1626 39.8752 21.7385 39.8752 18.5761C39.8752 17.2693 40.0535 16.0279 40.4102 14.8517C40.7668 13.6756 41.2827 12.6433 41.9578 11.7547C42.6329 10.866 43.4672 10.1604 44.4607 9.63765C45.4543 9.11493 46.5752 8.85358 47.8234 8.85358C49.0972 8.85358 50.2117 9.11493 51.167 9.63765C52.1224 10.1604 52.9121 10.8726 53.5362 11.7743C54.1604 12.6759 54.6317 13.7083 54.9501 14.8713C55.2685 16.0344 55.4278 17.2693 55.4278 18.5761C55.4278 19.7522 55.2813 20.9218 54.9883 22.0848C54.6954 23.2479 54.2432 24.2933 53.6318 25.2211C53.0204 26.1489 52.237 26.9069 51.2817 27.4949C50.3264 28.083 49.1736 28.377 47.8234 28.377ZM60.3954 28.6906V17.2824C60.3954 16.1847 60.5483 15.1131 60.854 14.0677C61.1597 13.0222 61.631 12.101 62.2678 11.3038C62.9047 10.5067 63.7135 9.87941 64.6943 9.42203C65.6751 8.96465 66.8406 8.77517 68.1908 8.85358V8.06951C67.019 8.04337 65.9936 8.17405 65.1147 8.46154C64.2358 8.74904 63.4779 9.14107 62.841 9.63765C62.2041 10.1342 61.6947 10.7157 61.3125 11.3822C60.9304 12.0487 60.6502 12.7609 60.4718 13.5188H60.3954V8.53995H59.6312V28.6906H60.3954ZM69.1461 18.7721H85.5776C85.6285 17.3869 85.4948 16.054 85.1764 14.7733C84.8579 13.4927 84.3484 12.3558 83.6479 11.3626C82.9473 10.3694 82.0429 9.57232 80.9347 8.97119C79.8266 8.37007 78.5083 8.06951 76.9797 8.06951C75.8843 8.06951 74.8144 8.30473 73.7699 8.77517C72.7254 9.24562 71.8083 9.93168 71.0185 10.8334C70.2288 11.7351 69.5919 12.8393 69.1079 14.1461C68.6239 15.4529 68.3819 16.9426 68.3819 18.6153C68.3819 20.105 68.5475 21.4968 68.8786 22.7905C69.2098 24.0842 69.7193 25.208 70.4071 26.162C71.095 27.116 71.9802 27.8543 73.0629 28.377C74.1456 28.8997 75.4512 29.148 76.9797 29.1219C79.2216 29.1219 81.1067 28.475 82.6352 27.1813C84.1637 25.8876 85.0681 24.0646 85.3483 21.7124H84.5841C84.2529 23.9339 83.4058 25.6001 82.0429 26.7108C80.68 27.8216 78.9668 28.377 76.9033 28.377C75.5022 28.377 74.3176 28.1287 73.3495 27.6321C72.3815 27.1355 71.5917 26.456 70.9803 25.5935C70.3689 24.7311 69.9168 23.7183 69.6238 22.5553C69.3308 21.3922 69.1716 20.1312 69.1461 18.7721ZM84.8133 17.988H69.1461C69.2225 16.5767 69.4773 15.3091 69.9104 14.1853C70.3435 13.0614 70.9103 12.101 71.6108 11.3038C72.3114 10.5067 73.1266 9.89901 74.0565 9.48084C74.9863 9.06266 75.9862 8.85358 77.0562 8.85358C78.3299 8.85358 79.4508 9.09533 80.4189 9.57885C81.3869 10.0624 82.1958 10.7223 82.8454 11.5586C83.495 12.395 83.9854 13.3685 84.3166 14.4793C84.6477 15.5901 84.8133 16.7596 84.8133 17.988ZM101.436 14.4989H102.2C102.2 12.2512 101.563 10.6177 100.289 9.59845C99.0157 8.57915 97.2834 8.06951 95.0926 8.06951C93.8697 8.06951 92.838 8.22632 91.9973 8.53995C91.1566 8.85358 90.4688 9.25868 89.9338 9.75526C89.3989 10.2518 89.0167 10.8007 88.7875 11.4018C88.5582 12.0029 88.4435 12.5779 88.4435 13.1268C88.4435 14.2245 88.6346 15.1 89.0167 15.7534C89.3989 16.4068 89.9975 16.9165 90.8127 17.2824C91.3732 17.5437 92.0101 17.7789 92.7234 17.988C93.4367 18.1971 94.2646 18.4193 95.2072 18.6545C96.0479 18.8636 96.8758 19.0727 97.691 19.2818C98.5062 19.4908 99.2259 19.7718 99.85 20.1246C100.474 20.4775 100.984 20.9283 101.379 21.4772C101.773 22.026 101.971 22.7447 101.971 23.6334C101.971 24.4958 101.773 25.2276 101.379 25.8288C100.984 26.4299 100.481 26.9199 99.8691 27.2989C99.2577 27.6779 98.5763 27.9523 97.8248 28.1222C97.0732 28.2921 96.3408 28.377 95.6275 28.377C93.3093 28.377 91.5324 27.8478 90.2969 26.7893C89.0613 25.7307 88.4435 24.0646 88.4435 21.7908H87.6793C87.6793 24.326 88.348 26.1816 89.6855 27.3577C91.0229 28.5338 93.0036 29.1219 95.6275 29.1219C96.4682 29.1219 97.3153 29.0239 98.1687 28.8278C99.0221 28.6318 99.7863 28.3117 100.461 27.8674C101.137 27.423 101.684 26.8481 102.105 26.1424C102.525 25.4367 102.735 24.5743 102.735 23.555C102.735 22.5879 102.55 21.8039 102.181 21.2027C101.812 20.6016 101.328 20.105 100.729 19.713C100.13 19.321 99.4552 19.0139 98.7037 18.7917C97.9521 18.5696 97.1943 18.3539 96.43 18.1448C95.36 17.8574 94.4238 17.6091 93.6214 17.4C92.8189 17.1909 92.0738 16.9426 91.3859 16.6551C90.7236 16.3676 90.195 15.956 89.8001 15.4202C89.4052 14.8844 89.2078 14.1199 89.2078 13.1268C89.2078 12.9438 89.2588 12.6171 89.3606 12.1467C89.4625 11.6762 89.7046 11.1993 90.0867 10.7158C90.4688 10.2322 91.0547 9.801 91.8445 9.42203C92.6342 9.04306 93.7169 8.85358 95.0926 8.85358C96.0351 8.85358 96.8949 8.95812 97.6719 9.16721C98.4489 9.3763 99.1176 9.70952 99.6781 10.1669C100.239 10.6243 100.672 11.2058 100.977 11.9115C101.283 12.6171 101.436 13.4796 101.436 14.4989ZM119.128 14.4989H119.893C119.893 12.2512 119.256 10.6177 117.982 9.59845C116.708 8.57915 114.976 8.06951 112.785 8.06951C111.562 8.06951 110.53 8.22632 109.69 8.53995C108.849 8.85358 108.161 9.25868 107.626 9.75526C107.091 10.2518 106.709 10.8007 106.48 11.4018C106.251 12.0029 106.136 12.5779 106.136 13.1268C106.136 14.2245 106.327 15.1 106.709 15.7534C107.091 16.4068 107.69 16.9165 108.505 17.2824C109.066 17.5437 109.703 17.7789 110.416 17.988C111.129 18.1971 111.957 18.4193 112.9 18.6545C113.74 18.8636 114.568 19.0727 115.383 19.2818C116.199 19.4908 116.918 19.7718 117.543 20.1246C118.167 20.4775 118.676 20.9283 119.071 21.4772C119.466 22.026 119.663 22.7447 119.663 23.6334C119.663 24.4958 119.466 25.2276 119.071 25.8288C118.676 26.4299 118.173 26.9199 117.562 27.2989C116.95 27.6779 116.269 27.9523 115.517 28.1222C114.766 28.2921 114.033 28.377 113.32 28.377C111.002 28.377 109.225 27.8478 107.989 26.7893C106.754 25.7307 106.136 24.0646 106.136 21.7908H105.372C105.372 24.326 106.04 26.1816 107.378 27.3577C108.715 28.5338 110.696 29.1219 113.32 29.1219C114.161 29.1219 115.008 29.0239 115.861 28.8278C116.715 28.6318 117.479 28.3117 118.154 27.8674C118.829 27.423 119.377 26.8481 119.797 26.1424C120.217 25.4367 120.428 24.5743 120.428 23.555C120.428 22.5879 120.243 21.8039 119.873 21.2027C119.504 20.6016 119.02 20.105 118.421 19.713C117.823 19.321 117.148 19.0139 116.396 18.7917C115.645 18.5696 114.887 18.3539 114.122 18.1448C113.053 17.8574 112.116 17.6091 111.314 17.4C110.511 17.1909 109.766 16.9426 109.078 16.6551C108.416 16.3676 107.887 15.956 107.493 15.4202C107.098 14.8844 106.9 14.1199 106.9 13.1268C106.9 12.9438 106.951 12.6171 107.053 12.1467C107.155 11.6762 107.397 11.1993 107.779 10.7158C108.161 10.2322 108.747 9.801 109.537 9.42203C110.327 9.04306 111.409 8.85358 112.785 8.85358C113.728 8.85358 114.587 8.95812 115.364 9.16721C116.141 9.3763 116.81 9.70952 117.371 10.1669C117.931 10.6243 118.364 11.2058 118.67 11.9115C118.975 12.6171 119.128 13.4796 119.128 14.4989Z" fill="white"/>
</svg>
