<svg width="96" height="54" viewBox="0 0 96 54" fill="none" xmlns="http://www.w3.org/2000/svg">
<g clip-path="url(#clip0_7065_21840)">
<mask id="mask0_7065_21840" style="mask-type:luminance" maskUnits="userSpaceOnUse" x="1" y="1" width="94" height="52">
<path d="M1.34976 26.8845C1.34976 40.848 22.2362 52.168 47.9999 52.168C73.7635 52.168 94.6501 40.848 94.6501 26.8845C94.6501 12.9211 73.7635 1.60096 47.9999 1.60096C22.2362 1.60096 1.34976 12.9211 1.34976 26.8845Z" fill="white"/>
</mask>
<g mask="url(#mask0_7065_21840)">
<path d="M1.34976 26.8845C1.34976 40.848 22.2362 52.168 47.9999 52.168C73.7635 52.168 94.6501 40.848 94.6501 26.8845C94.6501 12.9211 73.7635 1.60096 47.9999 1.60096C22.2362 1.60096 1.34976 12.9211 1.34976 26.8845Z" fill="url(#paint0_radial_7065_21840)"/>
</g>
<mask id="mask1_7065_21840" style="mask-type:luminance" maskUnits="userSpaceOnUse" x="-1" y="-2" width="98" height="58">
<path d="M-0.593994 -1.27815H96.5937V55.0469H-0.593994V-1.27815Z" fill="white"/>
</mask>
<g mask="url(#mask1_7065_21840)">
<path d="M47.9998 50.291C72.7572 50.291 92.8277 39.8116 92.8277 26.8847C92.8277 13.9579 72.7572 3.47831 47.9998 3.47831C23.2425 3.47831 3.17203 13.9579 3.17203 26.8847C3.17203 39.8116 23.2425 50.291 47.9998 50.291Z" fill="#A9ABC9"/>
</g>
<mask id="mask2_7065_21840" style="mask-type:luminance" maskUnits="userSpaceOnUse" x="-1" y="-2" width="98" height="58">
<path d="M-0.593994 -1.27815H96.5937V55.0469H-0.593994V-1.27815Z" fill="white"/>
</mask>
<g mask="url(#mask2_7065_21840)">
<path d="M26.6952 29.7866C28.7309 29.7866 30.2507 29.3998 31.2123 28.6373C32.1636 27.8827 32.8206 26.5752 33.165 24.7514C33.486 23.0467 33.3637 21.8564 32.8015 21.2141C32.2267 20.558 30.9838 20.2253 29.1075 20.2253H25.8543L24.0507 29.7866H26.6952ZM16.0547 41.5645C15.9037 41.5645 15.7603 41.4949 15.6643 41.3746C15.5681 41.2545 15.5291 41.0963 15.558 40.9435L20.3377 15.6057C20.3839 15.3608 20.5923 15.1838 20.8346 15.1838H31.1362C34.3737 15.1838 36.7835 16.0895 38.2982 17.8761C39.821 19.6721 40.2912 22.1826 39.6958 25.3376C39.4535 26.623 39.0367 27.8168 38.4571 28.8856C37.8769 29.9556 37.11 30.9456 36.1774 31.8287C35.0611 32.9052 33.7977 33.6857 32.4256 34.145C31.0753 34.5982 29.3411 34.828 27.2713 34.828H23.1L21.9087 41.1424C21.8625 41.3875 21.6543 41.5645 21.412 41.5645H16.0547Z" fill="black"/>
<path d="M26.2716 20.7467H29.1076C31.3721 20.7467 32.1587 21.2587 32.4259 21.5638C32.8694 22.0704 32.9531 23.1385 32.6681 24.6525C32.3478 26.3474 31.7542 27.5492 30.9035 28.2241C30.0325 28.9149 28.6166 29.265 26.6952 29.265H24.6648L26.2716 20.7467ZM31.1362 14.6623H20.8345C20.3499 14.6623 19.9333 15.0162 19.8408 15.5063L15.0611 40.844C15.0034 41.1498 15.0813 41.466 15.2735 41.7064C15.4659 41.9469 15.7524 42.0859 16.0547 42.0859H21.4118C21.8966 42.0859 22.3132 41.732 22.4057 41.2419L23.5172 35.3495H27.2713C29.3942 35.3495 31.1814 35.111 32.5827 34.6408C34.0238 34.1584 35.3497 33.3404 36.5232 32.2098C37.4937 31.2898 38.2931 30.2572 38.8989 29.1402C39.5048 28.0229 39.9401 26.777 40.1927 25.437C40.8195 22.1159 40.3103 19.4565 38.6794 17.5331C37.0643 15.6281 34.5263 14.6623 31.1362 14.6623ZM23.4366 30.3081H26.6952C28.8551 30.3081 30.464 29.889 31.5211 29.0505C32.5783 28.2119 33.2914 26.8123 33.6619 24.851C34.0164 22.9679 33.8549 21.6391 33.1775 20.865C32.4992 20.0908 31.1428 19.7037 29.1076 19.7037H25.437L23.4366 30.3081ZM31.1362 15.7053C34.2352 15.7053 36.496 16.5432 37.917 18.2193C39.3379 19.8953 39.7658 22.2347 39.1989 25.2381C38.9655 26.4754 38.5709 27.6066 38.0152 28.6314C37.459 29.6569 36.7326 30.5946 35.8349 31.4449C34.7652 32.4763 33.5768 33.2113 32.2692 33.649C30.9616 34.088 29.296 34.3065 27.2713 34.3065H22.6825L21.4118 41.0429H16.0547L20.8345 15.7053H31.1362Z" fill="white"/>
<path d="M51.979 34.8281C51.8278 34.8281 51.6845 34.7586 51.5885 34.6383C51.4922 34.5182 51.4532 34.3601 51.4821 34.2072L53.5964 22.9962C53.7975 21.93 53.7479 21.1648 53.4569 20.8414C53.2787 20.6438 52.7435 20.3123 51.161 20.3123H47.3305L44.6722 34.406C44.6259 34.6512 44.4176 34.8281 44.1753 34.8281H38.8603C38.7091 34.8281 38.5659 34.7586 38.4697 34.6383C38.3735 34.5182 38.3346 34.36 38.3634 34.2072L43.1431 8.86941C43.1894 8.62447 43.3978 8.4475 43.6401 8.4475H48.955C49.1062 8.4475 49.2494 8.51703 49.3456 8.63716C49.4418 8.75746 49.4808 8.91548 49.4519 9.06846L48.2985 15.1839H52.4192C55.5584 15.1839 57.6871 15.7541 58.9269 16.9272C60.1906 18.1239 60.585 20.0374 60.099 22.6152L57.8752 34.406C57.829 34.6512 57.6207 34.8281 57.3783 34.8281H51.979Z" fill="black"/>
<path d="M48.955 7.92593H43.6401C43.1553 7.92593 42.7387 8.27987 42.6463 8.76993L37.8665 34.1077C37.8088 34.4135 37.8868 34.7297 38.0791 34.9701C38.2715 35.2105 38.558 35.3496 38.8603 35.3496H44.1753C44.6599 35.3496 45.0766 34.9957 45.1691 34.5056L47.7478 20.8337H51.161C52.7408 20.8337 53.0723 21.1814 53.0857 21.1964C53.1815 21.3026 53.3075 21.7946 53.0995 22.8967L50.9852 34.1077C50.9275 34.4135 51.0054 34.7297 51.1978 34.9701C51.3901 35.2105 51.6766 35.3496 51.979 35.3496H57.3783C57.8629 35.3496 58.2796 34.9957 58.3721 34.5056L60.5958 22.7147C61.1177 19.947 60.6712 17.8708 59.2694 16.5433C57.9317 15.2776 55.691 14.6623 52.4192 14.6623H48.9123L49.9488 9.16804C50.0064 8.86225 49.9286 8.54585 49.7362 8.3056C49.5439 8.06518 49.2574 7.92593 48.955 7.92593ZM48.955 8.96898L47.6843 15.7054H52.4192C55.3984 15.7054 57.4534 16.2412 58.5844 17.3113C59.7154 18.3822 60.0542 20.1173 59.6021 22.5158L57.3783 34.3066H51.979L54.0933 23.0958C54.3339 21.8205 54.2455 20.9506 53.8277 20.4868C53.4098 20.0229 52.5208 19.7907 51.161 19.7907H46.9131L44.1753 34.3066H38.8603L43.6401 8.96898H48.955Z" fill="white"/>
<path d="M68.5087 29.7866C70.5445 29.7866 72.0642 29.3998 73.0258 28.6373C73.9771 27.8829 74.6341 26.5754 74.9786 24.7514C75.2997 23.0467 75.1774 21.8564 74.615 21.2141C74.0402 20.558 72.7973 20.2253 70.9211 20.2253H67.6678L65.8643 29.7866H68.5087ZM57.8684 41.5645C57.7174 41.5645 57.5739 41.4949 57.4779 41.3746C57.3818 41.2545 57.3426 41.0963 57.3715 40.9435L62.1512 15.6057C62.1976 15.3608 62.4058 15.1838 62.6483 15.1838H72.9497C76.1874 15.1838 78.597 16.0895 80.1119 17.8761C81.6346 19.6719 82.1047 22.1824 81.5095 25.3376C81.2668 26.623 80.8502 27.8168 80.2706 28.8856C79.6904 29.9556 78.9235 30.9456 77.991 31.8287C76.8746 32.9052 75.6112 33.6857 74.2391 34.145C72.8888 34.5982 71.1546 34.828 69.0848 34.828H64.9133L63.7226 41.1424C63.6762 41.3875 63.468 41.5645 63.2255 41.5645H57.8684Z" fill="black"/>
<path d="M68.0851 20.7467H70.9211C73.1856 20.7467 73.9722 21.2587 74.2395 21.5638C74.6831 22.0704 74.7668 23.1385 74.4816 24.6523C74.1614 26.3474 73.5676 27.5492 72.7171 28.2241C71.8461 28.9149 70.4301 29.265 68.5088 29.265H66.4785L68.0851 20.7467ZM72.9497 14.6623H62.6482C62.1636 14.6623 61.747 15.0162 61.6545 15.5063L56.8748 40.844C56.8171 41.1498 56.895 41.466 57.0872 41.7064C57.2796 41.9469 57.5661 42.0859 57.8684 42.0859H63.2256C63.7102 42.0859 64.1269 41.732 64.2194 41.2419L65.3308 35.3495H69.0848C71.2078 35.3495 72.995 35.111 74.3962 34.6408C75.8374 34.1584 77.1636 33.3403 78.3371 32.2094C79.3076 31.2896 80.1067 30.2572 80.7124 29.1402C81.3183 28.0229 81.7537 26.777 82.0062 25.437C82.6331 22.1158 82.1238 19.4563 80.4929 17.5329C78.8778 15.6281 76.34 14.6623 72.9497 14.6623ZM65.2503 30.3081H68.5088C70.6687 30.3081 72.2775 29.889 73.3346 29.0505C74.392 28.2119 75.1049 26.8123 75.4754 24.851C75.8301 22.9679 75.6686 21.6391 74.991 20.865C74.3127 20.0908 72.9563 19.7037 70.9211 19.7037H67.2506L65.2503 30.3081ZM72.9497 15.7053C76.0488 15.7053 78.3096 16.5432 79.7306 18.2193C81.1516 19.8953 81.5794 22.2347 81.0124 25.2381C80.7791 26.4754 80.3844 27.6066 79.8288 28.6314C79.2725 29.6569 78.5461 30.5946 77.6485 31.4449C76.5788 32.4763 75.3904 33.2113 74.0827 33.649C72.7751 34.088 71.1096 34.3065 69.0848 34.3065H64.4961L63.2256 41.0429H57.8684L62.6482 15.7053H72.9497Z" fill="white"/>
</g>
</g>
<defs>
<radialGradient id="paint0_radial_7065_21840" cx="0" cy="0" r="1" gradientUnits="userSpaceOnUse" gradientTransform="translate(29.3587 10.4899) scale(61.2583 63.115)">
<stop stop-color="#AEB2D5"/>
<stop offset="0.3" stop-color="#AEB2D5"/>
<stop offset="0.75" stop-color="#484C89"/>
<stop offset="1" stop-color="#484C89"/>
</radialGradient>
<clipPath id="clip0_7065_21840">
<rect width="96" height="53.3485" fill="white" transform="translate(-6.10352e-05 0.209961)"/>
</clipPath>
</defs>
</svg>
