<svg width="156" height="48" viewBox="0 0 156 48" fill="none" xmlns="http://www.w3.org/2000/svg">
	<path
		d="M41.2278 33.7769C41.2278 33.7769 37.4243 35.4983 30.0481 35.4983C24.1384 35.4983 19.5752 33.7769 19.5752 33.7769C19.5752 33.7769 23.8307 36.5658 30.1779 36.4407C38.8764 36.2773 41.2278 33.7769 41.2278 33.7769Z"
		fill="white" />
	<path
		d="M24.7301 17.0723C26.9468 16.3126 29.2501 16.1828 31.0533 16.1347C36.2849 15.9952 40.6462 19.2746 41.3867 20.2652C42.3339 21.525 43.1898 24.4245 43.3678 26.9201C43.6226 30.5457 42.911 33.7818 42.911 33.7818C42.911 33.7818 44.5362 30.7957 44.0698 25.4776C43.7044 21.3134 41.2232 18.9428 41.2232 18.9428C41.2232 18.9428 36.9725 14.7402 31.0004 14.7402C22.9077 14.7402 18.8638 19.8709 18.8638 19.8709C18.8638 19.8709 17.0173 22.1934 16.7769 25.718C16.4259 30.8294 17.9742 33.7818 17.9742 33.7818C17.4885 30.6515 16.6374 25.9007 19.4744 20.3565C19.8591 19.6112 22.3547 17.885 24.7301 17.0723Z"
		fill="white" />
	<path
		d="M50.9077 24.1504C50.5807 21.1884 47.7485 20.7845 47.5321 20.7605C47.0128 19.3083 46.3588 17.909 45.7097 16.9089C45.0317 15.8606 43.9258 14.3508 42.5698 13.038C41.3292 11.8407 39.853 10.8261 38.8913 10.2107C37.0112 9.00373 32.7172 7.86412 29.9812 8.01318C26.5671 8.20552 22.6098 8.95083 17.7676 13.567C16.1039 15.1538 14.4931 17.7648 13.416 20.7556C13.1226 20.7941 10.3722 21.2317 10.05 24.1456C9.64131 27.8626 11.8484 28.3482 12.2042 28.4011C12.2283 29.2907 12.31 30.1899 12.4735 31.0169C12.887 33.1182 14.0026 36.3111 15.0076 38.0469C15.2288 38.4268 15.926 39.7732 16.3251 39.9607C16.5319 40.0569 26.8316 39.9463 26.8316 39.9463L16.7771 38.6528C16.7771 38.6528 15.5605 36.8833 14.5844 34.6473C13.6997 32.6278 13.2236 30.1466 13.0746 28.8098C12.8534 26.8239 12.9111 24.915 13.4785 22.5925C14.0363 20.3036 15.2865 17.9283 15.7433 17.3368C17.1522 15.5096 19.5516 13.9997 20.9172 13.3891C24.8842 11.6243 28.3559 11.2829 30.9044 11.3262C37.9536 11.4416 43.1901 14.6008 45.2048 17.3609C46.1328 18.6351 47.3302 21.5154 47.7148 23.8042C48.1284 26.2565 47.9937 28.4252 47.6379 30.3197C47.4696 31.2285 47.0993 32.974 46.4021 34.5752C45.4597 36.7342 44.1566 38.7153 44.1566 38.7153L34.0876 39.9463H43.6901C43.6901 39.9463 44.6134 39.9655 44.6614 39.9463C44.8826 39.8549 46.0607 37.9027 46.0607 37.9027C46.0607 37.9027 47.2821 35.3157 47.6619 34.2338C48.3976 32.1421 48.6861 30.2764 48.7246 28.4107C48.965 28.3819 51.3308 27.9876 50.9077 24.1504ZM12.6514 23.3378C12.3966 24.4341 12.1561 26.3912 12.2042 28.3819C11.9494 28.2136 10.8098 27.3 11.0021 24.7371C11.257 21.3904 13.1659 20.823 13.4112 20.7653C13.113 21.5971 12.8534 22.4626 12.6514 23.3378ZM48.7246 28.4011C48.7487 27.2038 48.6669 26.0113 48.5323 24.7611C48.4072 23.5926 48.0322 22.1549 47.5321 20.7605C47.7196 20.8037 49.6959 21.3279 49.9556 24.7371C50.1575 27.4202 48.8977 28.2953 48.7246 28.4011Z"
		fill="white" />
	<path
		d="M58.4159 22.3377C58.589 21.9698 58.8198 21.6525 59.1156 21.3784C59.4113 21.1043 59.7575 20.8879 60.1542 20.7292C60.5509 20.5705 60.9764 20.4912 61.4236 20.4912C61.878 20.4912 62.3036 20.5705 62.6931 20.7292C63.0826 20.8879 63.4216 21.1043 63.7028 21.3784C63.9841 21.6525 64.2077 21.977 64.3592 22.3449C64.5179 22.7127 64.5972 23.1022 64.5972 23.5206V24.2274C64.5972 24.3716 64.5756 24.4654 64.5251 24.5087C64.4818 24.552 64.4097 24.5736 64.3231 24.5736H63.1547C63.0321 24.5736 62.9455 24.552 62.8878 24.5087C62.8301 24.4654 62.8013 24.3716 62.8013 24.2274V23.571C62.8013 23.3907 62.7724 23.2176 62.7075 23.0589C62.6426 22.893 62.556 22.7488 62.4334 22.6262C62.318 22.5036 62.1738 22.4026 62.0079 22.3232C61.842 22.2439 61.6617 22.2078 61.4597 22.2078C61.2577 22.2078 61.0774 22.2439 60.9115 22.3232C60.7456 22.3954 60.6014 22.4963 60.4716 22.619C60.3489 22.7416 60.248 22.8858 60.1758 23.0445C60.1037 23.2104 60.0676 23.3835 60.0676 23.5566V28.793C60.0676 28.9734 60.1037 29.1465 60.1758 29.3051C60.248 29.471 60.3417 29.6153 60.4716 29.7379C60.5942 29.8605 60.7456 29.9615 60.9115 30.0408C61.0774 30.113 61.265 30.1562 61.4597 30.1562C61.6617 30.1562 61.842 30.1202 62.0079 30.0408C62.1738 29.9615 62.3108 29.8605 62.4334 29.7379C62.5488 29.6081 62.6426 29.4638 62.7075 29.2979C62.7724 29.132 62.8013 28.9589 62.8013 28.7858V28.2593C62.8013 28.1223 62.8229 28.0357 62.8734 27.9852C62.9239 27.9419 62.996 27.9131 63.097 27.9131H64.3087C64.3953 27.9131 64.4602 27.9347 64.5107 27.978C64.5612 28.0213 64.5828 28.1078 64.5828 28.2449V28.8363C64.5828 29.2619 64.5035 29.6513 64.3448 30.0192C64.1861 30.387 63.9697 30.7044 63.6884 30.9785C63.4071 31.2526 63.0681 31.469 62.6786 31.6276C62.2892 31.7863 61.8636 31.8657 61.4092 31.8657C60.962 31.8657 60.5365 31.7935 60.1398 31.6421C59.7431 31.4906 59.3969 31.2814 59.1011 31.0146C58.8054 30.7477 58.5674 30.4303 58.4015 30.0625C58.2284 29.6946 58.1418 29.2907 58.1418 28.8435V23.5133C58.1635 23.095 58.25 22.7055 58.4159 22.3377Z"
		fill="white" />
	<path
		d="M66.119 22.1794C66.0613 22.1 66.0397 21.999 66.0469 21.8836C66.0541 21.7682 66.1263 21.6528 66.2489 21.5446C66.4003 21.4148 66.5662 21.285 66.761 21.1552C66.9485 21.0253 67.1649 20.9171 67.4029 20.8162C67.6409 20.7224 67.9078 20.6431 68.1963 20.5781C68.4848 20.5204 68.8094 20.4844 69.17 20.4844C69.61 20.4844 70.0356 20.5637 70.4323 20.7152C70.829 20.8667 71.1752 21.083 71.4781 21.3643C71.7738 21.6456 72.0118 21.9774 72.1849 22.3669C72.358 22.7564 72.4446 23.1819 72.4446 23.6508V28.8006C72.4446 29.2046 72.3869 29.5508 72.2787 29.8537C72.1705 30.1566 72.0191 30.4235 71.8315 30.6543C71.644 30.8851 71.4348 31.0726 71.204 31.2313C70.9732 31.3828 70.7352 31.5054 70.49 31.5992C70.2447 31.6929 70.0067 31.7579 69.7759 31.8011C69.5451 31.8372 69.3359 31.8588 69.1556 31.8588C68.7661 31.8588 68.3766 31.8011 67.9871 31.6785C67.5977 31.5559 67.2442 31.3684 66.9269 31.1087C66.6095 30.849 66.3499 30.5245 66.1479 30.1278C65.9459 29.7311 65.845 29.255 65.845 28.7069V28.2669C65.845 27.7332 65.9243 27.2571 66.083 26.846C66.2417 26.4349 66.4653 26.0887 66.761 25.8146C67.0567 25.5405 67.4029 25.3313 67.814 25.1943C68.2252 25.0572 68.6868 24.9923 69.1917 24.9923H70.5116V23.6435C70.5116 23.4849 70.49 23.3262 70.4395 23.1531C70.389 22.9872 70.3096 22.8285 70.1942 22.6843C70.0788 22.54 69.9274 22.4246 69.747 22.3308C69.5595 22.2371 69.3287 22.1938 69.0618 22.1938C68.5714 22.1938 68.1603 22.2731 67.8357 22.4318C67.5111 22.5905 67.2587 22.7564 67.0783 22.9223C66.999 23.0016 66.9197 23.0377 66.8331 23.0377C66.7466 23.0377 66.6744 22.9944 66.6095 22.9006L66.119 22.1794ZM70.5116 26.4132H69.6533C69.2638 26.4132 68.9536 26.4637 68.7012 26.5647C68.456 26.6657 68.2612 26.8027 68.1242 26.9758C67.9871 27.1489 67.8934 27.3437 67.8429 27.5745C67.7924 27.7981 67.7708 28.0361 67.7708 28.2885V28.6852C67.7708 28.9449 67.814 29.1613 67.8934 29.3488C67.9727 29.5363 68.0809 29.6878 68.2179 29.8104C68.3478 29.933 68.4992 30.0196 68.6651 30.0773C68.831 30.135 68.9897 30.1638 69.1484 30.1638C69.2926 30.1638 69.4441 30.1422 69.6028 30.0917C69.7615 30.0412 69.9129 29.9619 70.0428 29.8465C70.1726 29.7311 70.288 29.5868 70.3745 29.3993C70.4611 29.219 70.5116 28.9954 70.5116 28.7285V26.4132Z"
		fill="white" />
	<path
		d="M82.8309 23.5927C82.8309 23.4628 82.8165 23.3186 82.7876 23.1599C82.7588 23.0012 82.7011 22.8498 82.6217 22.7127C82.5424 22.5757 82.427 22.4531 82.2755 22.3593C82.1313 22.2655 81.9365 22.215 81.6985 22.215C81.5326 22.215 81.3739 22.2439 81.2297 22.3088C81.0782 22.3665 80.9412 22.4603 80.8186 22.5685C80.6959 22.6839 80.595 22.8281 80.5156 22.994C80.4363 23.1671 80.393 23.3619 80.3858 23.571V31.3247C80.3858 31.5555 80.292 31.6709 80.0973 31.6709H78.7485C78.6619 31.6709 78.5898 31.6421 78.5393 31.5772C78.4888 31.5194 78.46 31.4329 78.46 31.3247V23.5133C78.4528 23.3835 78.4311 23.2465 78.3951 23.0878C78.359 22.9363 78.3013 22.7921 78.2148 22.6622C78.1354 22.5324 78.02 22.4242 77.8902 22.3377C77.7531 22.2511 77.5873 22.2078 77.3853 22.2078C77.2194 22.2078 77.0607 22.2439 76.902 22.3088C76.7434 22.3737 76.6063 22.4747 76.4765 22.5901C76.3539 22.7127 76.2457 22.857 76.1664 23.0301C76.087 23.2032 76.0365 23.3979 76.0293 23.6071V31.267C76.0293 31.404 75.986 31.505 75.9067 31.5699C75.8274 31.6348 75.7408 31.6637 75.6687 31.6637H74.392C74.3127 31.6637 74.2478 31.6348 74.1901 31.5699C74.1324 31.5122 74.1035 31.4257 74.1035 31.3175V21.0105C74.1035 20.8951 74.1324 20.8086 74.1973 20.7581C74.255 20.7076 74.3271 20.6787 74.4064 20.6787H75.2431C75.3513 20.6787 75.4379 20.7004 75.5028 20.7509C75.5677 20.7941 75.6182 20.8807 75.6398 21.0033L75.7336 21.4C76.0077 21.1259 76.3178 20.9095 76.664 20.7437C77.0102 20.5778 77.3925 20.4912 77.8036 20.4912C77.9335 20.4912 78.0849 20.5056 78.2652 20.5273C78.4456 20.5489 78.6259 20.5994 78.8206 20.6787C79.0082 20.7509 79.1957 20.8663 79.376 21.0033C79.5563 21.1476 79.7222 21.3351 79.8737 21.5731C80.1622 21.2341 80.494 20.9745 80.8835 20.7797C81.273 20.585 81.6985 20.4912 82.1673 20.4912C82.2683 20.4912 82.3981 20.4984 82.564 20.5201C82.7299 20.5345 82.9102 20.5778 83.0978 20.6499C83.2925 20.7148 83.4873 20.8158 83.682 20.9528C83.8767 21.0826 84.0571 21.2702 84.2157 21.501C84.3744 21.7318 84.5042 22.0203 84.6052 22.3665C84.7062 22.7127 84.7567 23.1311 84.7567 23.6287V31.3247C84.7567 31.5555 84.6629 31.6709 84.4682 31.6709H83.105C82.9174 31.6709 82.8237 31.5555 82.8237 31.3247V23.5927H82.8309Z"
		fill="white" />
	<path
		d="M86.5673 21.0323C86.5673 20.9313 86.5889 20.852 86.6394 20.787C86.6899 20.7221 86.7692 20.6933 86.8774 20.6933H87.7357C87.8439 20.6933 87.9233 20.7221 87.9737 20.7726C88.0242 20.8231 88.0675 20.9313 88.0964 21.0756L88.1396 21.4867C88.4137 21.1837 88.7311 20.9457 89.0917 20.7654C89.4596 20.5851 89.8635 20.4985 90.3035 20.4985C90.7146 20.4985 91.1041 20.5779 91.4503 20.7365C91.8037 20.8952 92.0994 21.1188 92.3519 21.3929C92.6043 21.667 92.7991 21.9916 92.9361 22.3666C93.0731 22.7417 93.1453 23.1312 93.1453 23.5495V28.8148C93.1453 29.2259 93.0804 29.6082 92.9505 29.976C92.8207 30.3439 92.6332 30.6685 92.3879 30.9498C92.1427 31.2311 91.8398 31.4547 91.4936 31.6205C91.1401 31.7864 90.7506 31.873 90.3107 31.873C89.9645 31.873 89.6471 31.8153 89.337 31.6927C89.034 31.5773 88.7455 31.4114 88.4858 31.2022V34.8302C88.4858 35.0538 88.3849 35.162 88.1757 35.162H86.8702C86.661 35.162 86.5601 35.0538 86.5601 34.8302V21.0323H86.5673ZM88.5003 28.8509C88.5075 29.024 88.5436 29.1899 88.6157 29.3485C88.6806 29.5072 88.7816 29.6515 88.897 29.7669C89.0196 29.8823 89.1639 29.9833 89.3225 30.0482C89.4884 30.1203 89.6687 30.1564 89.8563 30.1564C90.0582 30.1564 90.2385 30.1203 90.4044 30.041C90.5703 29.9688 90.7146 29.8679 90.83 29.738C90.9526 29.6154 91.0464 29.4712 91.1113 29.3053C91.1762 29.1394 91.2123 28.9663 91.2123 28.7787V23.5567C91.2123 23.3764 91.1762 23.2033 91.1113 23.0446C91.0464 22.8787 90.9454 22.7345 90.83 22.6119C90.7074 22.4892 90.5631 22.3883 90.4044 22.3089C90.2385 22.2368 90.0582 22.1935 89.8563 22.1935C89.6615 22.1935 89.4812 22.2296 89.3153 22.3089C89.1494 22.3811 89.0052 22.482 88.8825 22.6119C88.7599 22.7345 88.6662 22.8787 88.6013 23.0446C88.5363 23.2105 88.5003 23.3836 88.5003 23.5567V28.8509Z"
		fill="white" />
	<path
		d="M96.6793 28.7715C96.6866 28.9518 96.7226 29.1249 96.7803 29.2836C96.838 29.4495 96.9318 29.5937 97.04 29.7236C97.1554 29.8534 97.2924 29.9544 97.4655 30.0265C97.6314 30.0986 97.8262 30.1419 98.0425 30.1419C98.2156 30.1419 98.3815 30.1058 98.5474 30.0337C98.7133 29.9616 98.8576 29.8678 98.9802 29.7452C99.1028 29.6226 99.2038 29.4783 99.2831 29.3124C99.3625 29.1466 99.4057 28.9662 99.413 28.7787V21.0683C99.413 20.9385 99.4562 20.8447 99.5356 20.7798C99.6149 20.7149 99.7015 20.686 99.7736 20.686H101.05C101.122 20.686 101.187 20.7149 101.252 20.7798C101.31 20.8375 101.346 20.9241 101.346 21.0322V31.3536C101.346 31.4618 101.317 31.5412 101.252 31.5917C101.187 31.6421 101.115 31.671 101.036 31.671H100.199C100.098 31.671 100.019 31.6494 99.9611 31.6061C99.9034 31.5628 99.8529 31.4835 99.8241 31.3681L99.7375 30.9281C99.4634 31.2094 99.1533 31.433 98.8071 31.6061C98.4609 31.7792 98.093 31.8657 97.6963 31.8657C97.2636 31.8657 96.8597 31.7936 96.499 31.6421C96.1384 31.4907 95.8282 31.2815 95.5686 31.0074C95.3089 30.7334 95.107 30.4088 94.9627 30.0337C94.8185 29.6514 94.7463 29.2331 94.7463 28.7787V21.025C94.7463 20.9168 94.7752 20.8375 94.8401 20.7798C94.8978 20.7221 94.9699 20.6932 95.0493 20.6932H96.3908C96.4702 20.6932 96.5351 20.7221 96.5928 20.7798C96.6505 20.8375 96.6793 20.9168 96.6793 21.025V28.7715Z"
		fill="white" />
	<path
		d="M102.724 28.5911C102.724 28.3819 102.861 28.2809 103.142 28.2809H104.282C104.469 28.2809 104.563 28.3891 104.563 28.6055V28.894C104.563 29.0816 104.599 29.2547 104.671 29.4133C104.743 29.572 104.844 29.7091 104.967 29.8245C105.089 29.9399 105.241 30.0264 105.407 30.0913C105.573 30.1562 105.76 30.1851 105.962 30.1851C106.15 30.1851 106.323 30.149 106.496 30.0841C106.662 30.0192 106.813 29.9182 106.936 29.7956C107.058 29.673 107.159 29.5287 107.232 29.3629C107.304 29.197 107.34 29.0166 107.34 28.8291C107.34 28.6127 107.275 28.418 107.145 28.2305C107.015 28.0429 106.835 27.8626 106.611 27.6823C106.388 27.502 106.128 27.3217 105.825 27.1269C105.529 26.9394 105.205 26.723 104.866 26.4922C104.585 26.3191 104.325 26.1316 104.08 25.9368C103.834 25.7349 103.618 25.5185 103.438 25.2804C103.257 25.0424 103.106 24.7756 102.998 24.4726C102.89 24.1769 102.839 23.8451 102.839 23.4773C102.839 23.0661 102.918 22.6694 103.07 22.3088C103.221 21.941 103.438 21.6308 103.719 21.3567C104 21.0899 104.332 20.8807 104.714 20.722C105.097 20.5705 105.515 20.4912 105.962 20.4912C106.453 20.4912 106.9 20.5633 107.289 20.7148C107.679 20.8663 108.011 21.0754 108.285 21.3423C108.559 21.6092 108.768 21.9338 108.912 22.3016C109.056 22.6767 109.129 23.0806 109.129 23.5133V23.7946C109.129 23.8956 109.1 23.9605 109.042 23.9966C108.984 24.0254 108.898 24.0471 108.775 24.0471H107.672C107.47 24.0471 107.369 23.9461 107.369 23.7441V23.4845C107.369 23.2897 107.333 23.1166 107.268 22.9507C107.203 22.7921 107.109 22.6478 106.986 22.5324C106.871 22.417 106.727 22.3232 106.568 22.2511C106.409 22.1862 106.236 22.1501 106.049 22.1501C105.854 22.1501 105.681 22.1862 105.522 22.2583C105.363 22.3305 105.234 22.4314 105.118 22.554C105.003 22.6767 104.916 22.8209 104.859 22.9868C104.801 23.1527 104.765 23.3258 104.765 23.5133C104.765 23.7225 104.794 23.8956 104.859 24.0399C104.924 24.1841 105.024 24.3212 105.176 24.451C105.32 24.5808 105.508 24.7179 105.746 24.8621C105.977 25.0064 106.265 25.1795 106.604 25.3886C106.95 25.5906 107.289 25.807 107.607 26.045C107.931 26.283 108.213 26.5355 108.451 26.8168C108.689 27.0981 108.891 27.401 109.035 27.7328C109.179 28.0646 109.251 28.4252 109.251 28.8219C109.251 29.2547 109.172 29.6586 109.02 30.0264C108.869 30.3943 108.645 30.7116 108.364 30.9857C108.075 31.2598 107.736 31.469 107.34 31.6204C106.943 31.7719 106.503 31.8512 106.027 31.8512C105.414 31.8512 104.895 31.7719 104.476 31.606C104.058 31.4401 103.719 31.2165 103.459 30.9424C103.2 30.6611 103.019 30.3438 102.904 29.9759C102.789 29.6081 102.731 29.2258 102.731 28.8291V28.5911H102.724Z"
		fill="white" />
	<path
		d="M110.679 17.1808C110.679 17.0798 110.708 17.0005 110.759 16.9356C110.809 16.8707 110.888 16.8418 110.989 16.8418H112.295C112.396 16.8418 112.475 16.8707 112.526 16.9356C112.576 17.0005 112.605 17.0798 112.605 17.1808V28.9303C112.605 29.2477 112.677 29.4929 112.829 29.666C112.98 29.8391 113.24 29.9257 113.6 29.9257H113.903C114.04 29.9257 114.12 29.9689 114.149 30.0483C114.177 30.1276 114.192 30.1997 114.192 30.2574V31.361C114.192 31.3971 114.185 31.4331 114.185 31.4692C114.177 31.5052 114.156 31.5341 114.127 31.563C114.098 31.5918 114.048 31.6134 113.983 31.6351C113.918 31.6567 113.831 31.6639 113.723 31.6639H113.124C112.764 31.6639 112.439 31.6207 112.136 31.5269C111.833 31.4331 111.581 31.2817 111.364 31.0797C111.148 30.8705 110.982 30.6037 110.86 30.2647C110.737 29.9257 110.679 29.5145 110.679 29.0169V17.1808Z"
		fill="white" />
	<path
		d="M115.584 22.1794C115.526 22.1 115.505 21.999 115.512 21.8836C115.519 21.7682 115.591 21.6528 115.714 21.5446C115.865 21.4148 116.031 21.285 116.226 21.1552C116.413 21.0253 116.63 20.9171 116.868 20.8162C117.106 20.7224 117.373 20.6431 117.661 20.5781C117.95 20.5204 118.274 20.4844 118.635 20.4844C119.075 20.4844 119.5 20.5637 119.897 20.7152C120.294 20.8667 120.64 21.083 120.943 21.3643C121.239 21.6456 121.477 21.9774 121.65 22.3669C121.823 22.7564 121.909 23.1819 121.909 23.6508V28.8006C121.909 29.2046 121.852 29.5508 121.744 29.8537C121.635 30.1566 121.484 30.4235 121.296 30.6543C121.109 30.8851 120.9 31.0726 120.669 31.2313C120.438 31.3828 120.2 31.5054 119.955 31.5992C119.71 31.6929 119.472 31.7579 119.241 31.8011C119.01 31.8372 118.801 31.8588 118.62 31.8588C118.231 31.8588 117.841 31.8011 117.452 31.6785C117.063 31.5559 116.709 31.3684 116.392 31.1087C116.074 30.849 115.815 30.5245 115.613 30.1278C115.411 29.7311 115.31 29.255 115.31 28.7069V28.2669C115.31 27.7332 115.389 27.2571 115.548 26.846C115.706 26.4349 115.93 26.0887 116.226 25.8146C116.522 25.5405 116.868 25.3313 117.279 25.1943C117.69 25.0572 118.152 24.9923 118.657 24.9923H119.976V23.6435C119.976 23.4849 119.955 23.3262 119.904 23.1531C119.854 22.9872 119.774 22.8285 119.659 22.6843C119.544 22.54 119.392 22.4246 119.212 22.3308C119.024 22.2371 118.794 22.1938 118.527 22.1938C118.036 22.1938 117.625 22.2731 117.301 22.4318C116.976 22.5905 116.723 22.7564 116.543 22.9223C116.464 23.0016 116.385 23.0377 116.298 23.0377C116.211 23.0377 116.139 22.9944 116.074 22.9006L115.584 22.1794ZM119.969 26.4132H119.111C118.721 26.4132 118.411 26.4637 118.159 26.5647C117.914 26.6657 117.719 26.8027 117.582 26.9758C117.445 27.1489 117.351 27.3437 117.301 27.5745C117.25 27.7981 117.228 28.0361 117.228 28.2885V28.6852C117.228 28.9449 117.272 29.1613 117.351 29.3488C117.43 29.5363 117.539 29.6878 117.676 29.8104C117.805 29.933 117.957 30.0196 118.123 30.0773C118.289 30.135 118.447 30.1638 118.606 30.1638C118.75 30.1638 118.902 30.1422 119.06 30.0917C119.219 30.0412 119.371 29.9619 119.5 29.8465C119.63 29.7311 119.746 29.5868 119.832 29.3993C119.919 29.219 119.969 28.9954 119.969 28.7285V26.4132Z"
		fill="white" />
	<path
		d="M125.509 31.2815C125.509 31.4114 125.466 31.5051 125.386 31.57C125.307 31.635 125.22 31.6638 125.148 31.6638H123.872C123.8 31.6638 123.735 31.635 123.67 31.57C123.612 31.5123 123.576 31.4258 123.576 31.3176V21.0106C123.576 20.9024 123.605 20.8231 123.67 20.7726C123.735 20.7221 123.807 20.6933 123.886 20.6933H124.723C124.824 20.6933 124.903 20.7149 124.968 20.7582C125.033 20.8015 125.076 20.8808 125.098 20.9962L125.184 21.4362C125.458 21.1549 125.761 20.9313 126.108 20.7582C126.454 20.5851 126.822 20.4985 127.226 20.4985C127.658 20.4985 128.062 20.5707 128.423 20.7221C128.784 20.8736 129.094 21.0828 129.353 21.3568C129.613 21.6309 129.815 21.9555 129.959 22.3306C130.103 22.7128 130.176 23.1312 130.176 23.5856V31.3392C130.176 31.4474 130.147 31.5268 130.089 31.5845C130.031 31.6422 129.966 31.671 129.887 31.671H128.538C128.459 31.671 128.394 31.6422 128.336 31.5845C128.279 31.5268 128.25 31.4474 128.25 31.3392V23.5928C128.243 23.4125 128.207 23.2394 128.149 23.0735C128.091 22.9076 128.005 22.7561 127.889 22.6263C127.781 22.4965 127.637 22.3955 127.471 22.3233C127.305 22.2512 127.11 22.2079 126.887 22.2079C126.706 22.2079 126.533 22.244 126.374 22.3233C126.209 22.3955 126.064 22.5037 125.934 22.6263C125.805 22.7561 125.704 22.9076 125.632 23.0807C125.559 23.2538 125.516 23.4413 125.516 23.6433V31.2815H125.509Z"
		fill="white" />
	<path
		d="M138.333 28.8365C138.333 29.2765 138.246 29.6876 138.073 30.0555C137.9 30.4233 137.669 30.7407 137.373 31.0076C137.078 31.2745 136.732 31.4836 136.328 31.6351C135.924 31.7865 135.498 31.8587 135.051 31.8587C134.589 31.8587 134.157 31.7865 133.753 31.6351C133.349 31.4836 133.003 31.2745 132.707 31.0076C132.411 30.7407 132.173 30.4233 132.007 30.0555C131.834 29.6876 131.748 29.2837 131.748 28.8365V23.5136C131.748 23.0808 131.827 22.6769 131.986 22.3018C132.144 21.9268 132.361 21.6094 132.628 21.3425C132.902 21.0757 133.226 20.8665 133.601 20.715C133.976 20.5636 134.38 20.4914 134.82 20.4914C135.087 20.4914 135.354 20.5347 135.628 20.6141C135.902 20.6934 136.162 20.8088 136.414 20.953V17.1808C136.414 17.0798 136.436 17.0005 136.486 16.9356C136.537 16.8707 136.616 16.8418 136.724 16.8418H138.023C138.131 16.8418 138.21 16.8707 138.261 16.9356C138.311 17.0005 138.34 17.0798 138.34 17.1808V28.8365H138.333ZM136.407 23.5641C136.407 23.3837 136.371 23.2106 136.306 23.052C136.241 22.8861 136.147 22.7418 136.025 22.6192C135.902 22.4966 135.758 22.3956 135.592 22.3162C135.426 22.2441 135.246 22.2008 135.051 22.2008C134.849 22.2008 134.669 22.2369 134.503 22.3162C134.337 22.3884 134.193 22.4894 134.07 22.6192C133.947 22.7418 133.854 22.8933 133.789 23.0592C133.724 23.2251 133.688 23.3982 133.688 23.5785V28.8005C133.688 28.9808 133.724 29.1539 133.789 29.3126C133.854 29.4785 133.947 29.6227 134.07 29.7454C134.193 29.868 134.337 29.9689 134.503 30.0483C134.669 30.1204 134.856 30.1637 135.051 30.1637C135.246 30.1637 135.426 30.1276 135.592 30.0483C135.758 29.9762 135.902 29.8752 136.025 29.7454C136.147 29.6227 136.241 29.4785 136.306 29.3126C136.371 29.1467 136.407 28.9736 136.407 28.8005V23.5641Z"
		fill="white" />
	<path
		d="M139.544 28.5911C139.544 28.3819 139.681 28.2809 139.963 28.2809H141.102C141.29 28.2809 141.384 28.3891 141.384 28.6055V28.894C141.384 29.0816 141.42 29.2547 141.492 29.4133C141.564 29.572 141.665 29.7091 141.788 29.8245C141.91 29.9399 142.062 30.0264 142.228 30.0913C142.393 30.1562 142.581 30.1851 142.783 30.1851C142.97 30.1851 143.144 30.149 143.317 30.0841C143.483 30.0192 143.634 29.9182 143.757 29.7956C143.879 29.673 143.98 29.5287 144.052 29.3629C144.125 29.197 144.161 29.0166 144.161 28.8291C144.161 28.6127 144.096 28.418 143.966 28.2305C143.836 28.0429 143.656 27.8626 143.432 27.6823C143.208 27.502 142.949 27.3217 142.646 27.1269C142.35 26.9394 142.026 26.723 141.687 26.4922C141.405 26.3191 141.146 26.1316 140.9 25.9368C140.655 25.7349 140.439 25.5185 140.258 25.2804C140.078 25.0424 139.927 24.7756 139.819 24.4726C139.71 24.1769 139.66 23.8451 139.66 23.4773C139.66 23.0661 139.739 22.6694 139.891 22.3088C140.042 21.941 140.258 21.6308 140.54 21.3567C140.821 21.0899 141.153 20.8807 141.535 20.722C141.917 20.5705 142.336 20.4912 142.783 20.4912C143.273 20.4912 143.721 20.5633 144.11 20.7148C144.5 20.8663 144.831 21.0754 145.105 21.3423C145.38 21.6092 145.589 21.9338 145.733 22.3016C145.877 22.6767 145.949 23.0806 145.949 23.5133V23.7946C145.949 23.8956 145.92 23.9605 145.863 23.9966C145.805 24.0254 145.719 24.0471 145.596 24.0471H144.492C144.29 24.0471 144.189 23.9461 144.189 23.7441V23.4845C144.189 23.2897 144.153 23.1166 144.088 22.9507C144.024 22.7921 143.93 22.6478 143.807 22.5324C143.692 22.417 143.547 22.3232 143.389 22.2511C143.23 22.1862 143.057 22.1501 142.869 22.1501C142.675 22.1501 142.502 22.1862 142.343 22.2583C142.184 22.3305 142.054 22.4314 141.939 22.554C141.824 22.6767 141.737 22.8209 141.679 22.9868C141.622 23.1527 141.586 23.3258 141.586 23.5133C141.586 23.7225 141.614 23.8956 141.679 24.0399C141.744 24.1841 141.845 24.3212 141.997 24.451C142.141 24.5808 142.329 24.7179 142.567 24.8621C142.797 25.0064 143.086 25.1795 143.425 25.3886C143.771 25.5906 144.11 25.807 144.427 26.045C144.752 26.283 145.033 26.5355 145.271 26.8168C145.509 27.0981 145.711 27.401 145.856 27.7328C146 28.0646 146.072 28.4252 146.072 28.8219C146.072 29.2547 145.993 29.6586 145.841 30.0264C145.69 30.3943 145.466 30.7116 145.185 30.9857C144.896 31.2598 144.557 31.469 144.161 31.6204C143.764 31.7719 143.324 31.8512 142.848 31.8512C142.235 31.8512 141.715 31.7719 141.297 31.606C140.879 31.4401 140.54 31.2165 140.28 30.9424C140.02 30.6611 139.84 30.3438 139.725 29.9759C139.609 29.6081 139.552 29.2258 139.552 28.8291V28.5911H139.544Z"
		fill="white" />
</svg>