<svg width="137" height="32" viewBox="0 0 137 32" fill="none" xmlns="http://www.w3.org/2000/svg">
<path d="M31.2278 25.777C31.2278 25.777 27.4243 27.4985 20.0481 27.4985C14.1384 27.4985 9.5752 25.777 9.5752 25.777C9.5752 25.777 13.8307 28.566 20.1779 28.4409C28.8764 28.2774 31.2278 25.777 31.2278 25.777Z" fill="white"/>
<path d="M14.7306 9.07235C16.9473 8.31261 19.2506 8.18278 21.0537 8.13469C26.2854 7.99525 30.6466 11.2746 31.3872 12.2652C32.3344 13.525 33.1903 16.4245 33.3682 18.9201C33.6231 22.5457 32.9114 25.7818 32.9114 25.7818C32.9114 25.7818 34.5367 22.7957 34.0703 17.4776C33.7048 13.3134 31.2237 10.9428 31.2237 10.9428C31.2237 10.9428 26.973 6.74023 21.0008 6.74023C12.9082 6.74023 8.86425 11.8709 8.86425 11.8709C8.86425 11.8709 7.0178 14.1934 6.77737 17.718C6.42636 22.8294 7.97468 25.7818 7.97468 25.7818C7.48903 22.6515 6.63793 17.9007 9.47493 12.3565C9.85961 11.6112 12.3552 9.88498 14.7306 9.07235Z" fill="white"/>
<path d="M40.9079 16.1504C40.5809 13.1884 37.7487 12.7845 37.5324 12.7605C37.013 11.3083 36.3591 9.90902 35.7099 8.90886C35.0319 7.86061 33.926 6.35075 32.57 5.03804C31.3294 3.84073 29.8532 2.82614 28.8915 2.21066C27.0114 1.00373 22.7174 -0.135884 19.9814 0.0131783C16.5674 0.205517 12.61 0.950831 7.76788 5.56697C6.10415 7.15377 4.49331 9.76477 3.41621 12.7556C3.12289 12.7941 0.372442 13.2317 0.0502739 16.1456C-0.358447 19.8626 1.84865 20.3482 2.20447 20.4011C2.22851 21.2907 2.31026 22.1899 2.47375 23.0169C2.88728 25.1182 4.00284 28.3111 5.00782 30.0469C5.22901 30.4268 5.92623 31.7732 6.32534 31.9607C6.5321 32.0569 16.8319 31.9463 16.8319 31.9463L6.77733 30.6528C6.77733 30.6528 5.56079 28.8833 4.58467 26.6473C3.69991 24.6278 3.22387 22.1466 3.07481 20.8098C2.85362 18.8239 2.91132 16.915 3.47872 14.5925C4.0365 12.3036 5.28671 9.92826 5.74351 9.33682C7.1524 7.50959 9.55182 5.99973 10.9174 5.38906C14.8844 3.62435 18.3561 3.28294 20.9046 3.32622C27.9539 3.44162 33.1903 6.60079 35.2051 9.36086C36.1331 10.6351 37.3304 13.5154 37.7151 15.8042C38.1286 18.2565 37.994 20.4252 37.6381 22.3197C37.4698 23.2285 37.0996 24.974 36.4024 26.5752C35.4599 28.7342 34.1568 30.7153 34.1568 30.7153L24.0879 31.9463H33.6904C33.6904 31.9463 34.6136 31.9655 34.6617 31.9463C34.8829 31.8549 36.061 29.9027 36.061 29.9027C36.061 29.9027 37.2823 27.3157 37.6622 26.2338C38.3979 24.1421 38.6864 22.2764 38.7249 20.4107C38.9653 20.3819 41.331 19.9876 40.9079 16.1504ZM2.65166 15.3378C2.39681 16.4341 2.15639 18.3912 2.20447 20.3819C1.94962 20.2136 0.810014 19.3 1.00235 16.7371C1.2572 13.3904 3.16617 12.823 3.4114 12.7653C3.11327 13.5971 2.85362 14.4626 2.65166 15.3378ZM38.7249 20.4011C38.7489 19.2038 38.6672 18.0113 38.5325 16.7611C38.4075 15.5926 38.0324 14.1549 37.5324 12.7605C37.7199 12.8037 39.6962 13.3279 39.9558 16.7371C40.1578 19.4202 38.898 20.2953 38.7249 20.4011Z" fill="white"/>
<path d="M48.4167 14.338C48.5898 13.9701 48.8206 13.6528 49.1163 13.3787C49.412 13.1046 49.7582 12.8882 50.1549 12.7295C50.5516 12.5709 50.9772 12.4915 51.4244 12.4915C51.8788 12.4915 52.3043 12.5709 52.6938 12.7295C53.0833 12.8882 53.4223 13.1046 53.7036 13.3787C53.9849 13.6528 54.2085 13.9773 54.3599 14.3452C54.5186 14.713 54.598 15.1025 54.598 15.5209V16.2277C54.598 16.372 54.5763 16.4657 54.5258 16.509C54.4826 16.5523 54.4104 16.5739 54.3239 16.5739H53.1554C53.0328 16.5739 52.9462 16.5523 52.8885 16.509C52.8308 16.4657 52.802 16.372 52.802 16.2277V15.5713C52.802 15.391 52.7731 15.2179 52.7082 15.0592C52.6433 14.8933 52.5568 14.7491 52.4341 14.6265C52.3187 14.5039 52.1745 14.4029 52.0086 14.3235C51.8427 14.2442 51.6624 14.2081 51.4604 14.2081C51.2585 14.2081 51.0782 14.2442 50.9123 14.3235C50.7464 14.3957 50.6021 14.4967 50.4723 14.6193C50.3497 14.7419 50.2487 14.8861 50.1766 15.0448C50.1044 15.2107 50.0684 15.3838 50.0684 15.5569V20.7933C50.0684 20.9737 50.1044 21.1468 50.1766 21.3055C50.2487 21.4713 50.3425 21.6156 50.4723 21.7382C50.5949 21.8608 50.7464 21.9618 50.9123 22.0411C51.0782 22.1133 51.2657 22.1566 51.4604 22.1566C51.6624 22.1566 51.8427 22.1205 52.0086 22.0411C52.1745 21.9618 52.3115 21.8608 52.4341 21.7382C52.5495 21.6084 52.6433 21.4641 52.7082 21.2982C52.7731 21.1323 52.802 20.9592 52.802 20.7861V20.2596C52.802 20.1226 52.8236 20.036 52.8741 19.9855C52.9246 19.9422 52.9967 19.9134 53.0977 19.9134H54.3094C54.396 19.9134 54.4609 19.935 54.5114 19.9783C54.5619 20.0216 54.5835 20.1081 54.5835 20.2452V20.8366C54.5835 21.2622 54.5042 21.6517 54.3455 22.0195C54.1868 22.3874 53.9705 22.7047 53.6892 22.9788C53.4079 23.2529 53.0689 23.4693 52.6794 23.6279C52.2899 23.7866 51.8643 23.866 51.4099 23.866C50.9628 23.866 50.5372 23.7938 50.1405 23.6424C49.7438 23.4909 49.3976 23.2817 49.1019 23.0149C48.8062 22.748 48.5681 22.4306 48.4022 22.0628C48.2291 21.6949 48.1426 21.291 48.1426 20.8438V15.5136C48.1642 15.0953 48.2508 14.7058 48.4167 14.338Z" fill="white"/>
<path d="M56.1198 14.1792C56.0621 14.0999 56.0404 13.9989 56.0477 13.8835C56.0549 13.7681 56.127 13.6527 56.2496 13.5445C56.4011 13.4147 56.567 13.2849 56.7617 13.155C56.9492 13.0252 57.1656 12.917 57.4036 12.816C57.6417 12.7223 57.9085 12.6429 58.197 12.578C58.4856 12.5203 58.8101 12.4843 59.1708 12.4843C59.6107 12.4843 60.0363 12.5636 60.433 12.7151C60.8297 12.8665 61.1759 13.0829 61.4788 13.3642C61.7746 13.6455 62.0126 13.9773 62.1857 14.3668C62.3588 14.7563 62.4453 15.1818 62.4453 15.6506V20.8005C62.4453 21.2044 62.3876 21.5506 62.2794 21.8536C62.1712 22.1565 62.0198 22.4234 61.8323 22.6542C61.6447 22.885 61.4356 23.0725 61.2047 23.2312C60.9739 23.3827 60.7359 23.5053 60.4907 23.5991C60.2455 23.6928 60.0074 23.7577 59.7766 23.801C59.5458 23.8371 59.3366 23.8587 59.1563 23.8587C58.7668 23.8587 58.3774 23.801 57.9879 23.6784C57.5984 23.5558 57.245 23.3682 56.9276 23.1086C56.6103 22.8489 56.3506 22.5243 56.1486 22.1276C55.9467 21.7309 55.8457 21.2549 55.8457 20.7067V20.2668C55.8457 19.733 55.925 19.257 56.0837 18.8459C56.2424 18.4347 56.466 18.0885 56.7617 17.8145C57.0574 17.5404 57.4036 17.3312 57.8148 17.1942C58.2259 17.0571 58.6875 16.9922 59.1924 16.9922H60.5123V15.6434C60.5123 15.4847 60.4907 15.3261 60.4402 15.153C60.3897 14.9871 60.3104 14.8284 60.195 14.6841C60.0796 14.5399 59.9281 14.4245 59.7478 14.3307C59.5602 14.2369 59.3294 14.1937 59.0626 14.1937C58.5721 14.1937 58.161 14.273 57.8364 14.4317C57.5118 14.5904 57.2594 14.7563 57.0791 14.9222C56.9997 15.0015 56.9204 15.0376 56.8338 15.0376C56.7473 15.0376 56.6752 14.9943 56.6102 14.9005L56.1198 14.1792ZM60.5123 18.4131H59.654C59.2645 18.4131 58.9544 18.4636 58.7019 18.5646C58.4567 18.6656 58.262 18.8026 58.1249 18.9757C57.9879 19.1488 57.8941 19.3435 57.8436 19.5744C57.7931 19.7979 57.7715 20.036 57.7715 20.2884V20.6851C57.7715 20.9448 57.8148 21.1612 57.8941 21.3487C57.9734 21.5362 58.0816 21.6877 58.2187 21.8103C58.3485 21.9329 58.5 22.0195 58.6659 22.0772C58.8318 22.1349 58.9904 22.1637 59.1491 22.1637C59.2934 22.1637 59.4448 22.1421 59.6035 22.0916C59.7622 22.0411 59.9137 21.9618 60.0435 21.8464C60.1733 21.731 60.2887 21.5867 60.3753 21.3992C60.4618 21.2189 60.5123 20.9953 60.5123 20.7284V18.4131Z" fill="white"/>
<path d="M72.8319 15.593C72.8319 15.4632 72.8174 15.3189 72.7886 15.1602C72.7597 15.0015 72.702 14.8501 72.6227 14.713C72.5434 14.576 72.428 14.4534 72.2765 14.3596C72.1322 14.2658 71.9375 14.2153 71.6995 14.2153C71.5336 14.2153 71.3749 14.2442 71.2306 14.3091C71.0792 14.3668 70.9421 14.4606 70.8195 14.5688C70.6969 14.6842 70.5959 14.8284 70.5166 14.9943C70.4372 15.1674 70.394 15.3622 70.3868 15.5713V23.325C70.3868 23.5558 70.293 23.6712 70.0983 23.6712H68.7495C68.6629 23.6712 68.5908 23.6424 68.5403 23.5775C68.4898 23.5198 68.461 23.4332 68.461 23.325V15.5136C68.4538 15.3838 68.4321 15.2468 68.3961 15.0881C68.36 14.9366 68.3023 14.7924 68.2157 14.6625C68.1364 14.5327 68.021 14.4245 67.8912 14.338C67.7541 14.2514 67.5882 14.2081 67.3863 14.2081C67.2204 14.2081 67.0617 14.2442 66.903 14.3091C66.7443 14.374 66.6073 14.475 66.4775 14.5904C66.3549 14.713 66.2467 14.8573 66.1673 15.0304C66.088 15.2035 66.0375 15.3982 66.0303 15.6074V23.2673C66.0303 23.4043 65.987 23.5053 65.9077 23.5702C65.8283 23.6351 65.7418 23.664 65.6696 23.664H64.393C64.3137 23.664 64.2487 23.6351 64.191 23.5702C64.1333 23.5125 64.1045 23.426 64.1045 23.3178V13.0108C64.1045 12.8954 64.1333 12.8089 64.1983 12.7584C64.256 12.7079 64.3281 12.679 64.4074 12.679H65.2441C65.3523 12.679 65.4388 12.7007 65.5038 12.7512C65.5687 12.7944 65.6192 12.881 65.6408 13.0036L65.7346 13.4003C66.0086 13.1262 66.3188 12.9099 66.665 12.744C67.0112 12.5781 67.3935 12.4915 67.8046 12.4915C67.9344 12.4915 68.0859 12.5059 68.2662 12.5276C68.4465 12.5492 68.6269 12.5997 68.8216 12.679C69.0091 12.7512 69.1967 12.8666 69.377 13.0036C69.5573 13.1479 69.7232 13.3354 69.8747 13.5734C70.1632 13.2344 70.495 12.9748 70.8844 12.78C71.2739 12.5853 71.6995 12.4915 72.1683 12.4915C72.2693 12.4915 72.3991 12.4987 72.565 12.5204C72.7309 12.5348 72.9112 12.5781 73.0987 12.6502C73.2935 12.7151 73.4882 12.8161 73.683 12.9531C73.8777 13.083 74.058 13.2705 74.2167 13.5013C74.3754 13.7321 74.5052 14.0206 74.6062 14.3668C74.7072 14.713 74.7577 15.1314 74.7577 15.629V23.325C74.7577 23.5558 74.6639 23.6712 74.4692 23.6712H73.106C72.9184 23.6712 72.8247 23.5558 72.8247 23.325V15.593H72.8319Z" fill="white"/>
<path d="M76.5678 13.0325C76.5678 12.9315 76.5894 12.8521 76.6399 12.7872C76.6904 12.7223 76.7697 12.6935 76.8779 12.6935H77.7362C77.8444 12.6935 77.9237 12.7223 77.9742 12.7728C78.0247 12.8233 78.068 12.9315 78.0969 13.0757L78.1401 13.4869C78.4142 13.1839 78.7316 12.9459 79.0922 12.7656C79.4601 12.5853 79.864 12.4987 80.3039 12.4987C80.7151 12.4987 81.1046 12.5781 81.4508 12.7367C81.8042 12.8954 82.0999 13.119 82.3524 13.3931C82.6048 13.6672 82.7995 13.9918 82.9366 14.3668C83.0736 14.7419 83.1458 15.1314 83.1458 15.5497V20.815C83.1458 21.2261 83.0808 21.6084 82.951 21.9762C82.8212 22.3441 82.6337 22.6686 82.3884 22.9499C82.1432 23.2312 81.8403 23.4548 81.494 23.6207C81.1406 23.7866 80.7511 23.8732 80.3112 23.8732C79.9649 23.8732 79.6476 23.8155 79.3374 23.6929C79.0345 23.5775 78.746 23.4116 78.4863 23.2024V26.8304C78.4863 27.054 78.3854 27.1622 78.1762 27.1622H76.8707C76.6615 27.1622 76.5605 27.054 76.5605 26.8304V13.0325H76.5678ZM78.5008 20.851C78.508 21.0241 78.544 21.19 78.6162 21.3487C78.6811 21.5074 78.7821 21.6516 78.8975 21.767C79.0201 21.8825 79.1643 21.9834 79.323 22.0484C79.4889 22.1205 79.6692 22.1565 79.8568 22.1565C80.0587 22.1565 80.239 22.1205 80.4049 22.0411C80.5708 21.969 80.7151 21.868 80.8305 21.7382C80.9531 21.6156 81.0469 21.4713 81.1118 21.3054C81.1767 21.1395 81.2127 20.9664 81.2127 20.7789V15.5569C81.2127 15.3766 81.1767 15.2035 81.1118 15.0448C81.0469 14.8789 80.9459 14.7347 80.8305 14.612C80.7079 14.4894 80.5636 14.3884 80.4049 14.3091C80.239 14.237 80.0587 14.1937 79.8568 14.1937C79.662 14.1937 79.4817 14.2298 79.3158 14.3091C79.1499 14.3812 79.0057 14.4822 78.883 14.612C78.7604 14.7347 78.6667 14.8789 78.6017 15.0448C78.5368 15.2107 78.5008 15.3838 78.5008 15.5569V20.851Z" fill="white"/>
<path d="M86.6801 20.7717C86.6873 20.9521 86.7234 21.1252 86.7811 21.2838C86.8388 21.4497 86.9325 21.594 87.0407 21.7238C87.1561 21.8536 87.2932 21.9546 87.4663 22.0267C87.6322 22.0989 87.8269 22.1422 88.0433 22.1422C88.2164 22.1422 88.3823 22.1061 88.5482 22.034C88.7141 21.9618 88.8583 21.8681 88.9809 21.7455C89.1035 21.6228 89.2045 21.4786 89.2839 21.3127C89.3632 21.1468 89.4065 20.9665 89.4137 20.7789V13.0686C89.4137 12.9387 89.457 12.845 89.5363 12.78C89.6157 12.7151 89.7022 12.6863 89.7743 12.6863H91.051C91.1231 12.6863 91.188 12.7151 91.2529 12.78C91.3106 12.8377 91.3467 12.9243 91.3467 13.0325V23.3539C91.3467 23.4621 91.3178 23.5414 91.2529 23.5919C91.188 23.6424 91.1159 23.6712 91.0366 23.6712H90.1999C90.0989 23.6712 90.0196 23.6496 89.9619 23.6063C89.9042 23.563 89.8537 23.4837 89.8248 23.3683L89.7383 22.9283C89.4642 23.2096 89.154 23.4332 88.8078 23.6063C88.4616 23.7794 88.0938 23.866 87.6971 23.866C87.2643 23.866 86.8604 23.7939 86.4998 23.6424C86.1391 23.4909 85.829 23.2818 85.5693 23.0077C85.3097 22.7336 85.1077 22.409 84.9635 22.034C84.8192 21.6517 84.7471 21.2333 84.7471 20.7789V13.0253C84.7471 12.9171 84.7759 12.8377 84.8408 12.78C84.8985 12.7223 84.9707 12.6935 85.05 12.6935H86.3916C86.4709 12.6935 86.5358 12.7223 86.5935 12.78C86.6512 12.8377 86.6801 12.9171 86.6801 13.0253V20.7717Z" fill="white"/>
<path d="M92.7246 20.5914C92.7246 20.3822 92.8617 20.2812 93.143 20.2812H94.2826C94.4701 20.2812 94.5639 20.3894 94.5639 20.6058V20.8943C94.5639 21.0819 94.5999 21.255 94.672 21.4136C94.7442 21.5723 94.8451 21.7094 94.9678 21.8248C95.0904 21.9402 95.2419 22.0267 95.4077 22.0916C95.5736 22.1565 95.7612 22.1854 95.9631 22.1854C96.1507 22.1854 96.3238 22.1493 96.4969 22.0844C96.6628 22.0195 96.8142 21.9185 96.9368 21.7959C97.0595 21.6733 97.1604 21.529 97.2326 21.3632C97.3047 21.1973 97.3407 21.0169 97.3407 20.8294C97.3407 20.613 97.2758 20.4183 97.146 20.2308C97.0162 20.0432 96.8359 19.8629 96.6123 19.6826C96.3887 19.5023 96.129 19.322 95.8261 19.1272C95.5304 18.9397 95.2058 18.7233 94.8668 18.4925C94.5855 18.3194 94.3258 18.1319 94.0806 17.9371C93.8354 17.7352 93.619 17.5188 93.4387 17.2808C93.2584 17.0427 93.1069 16.7759 92.9987 16.4729C92.8905 16.1772 92.84 15.8454 92.84 15.4776C92.84 15.0664 92.9194 14.6698 93.0708 14.3091C93.2223 13.9413 93.4387 13.6311 93.72 13.357C94.0013 13.0902 94.333 12.881 94.7153 12.7223C95.0976 12.5709 95.5159 12.4915 95.9631 12.4915C96.4536 12.4915 96.9008 12.5636 97.2903 12.7151C97.6797 12.8666 98.0115 13.0757 98.2856 13.3426C98.5597 13.6095 98.7689 13.9341 98.9131 14.3019C99.0574 14.677 99.1295 15.0809 99.1295 15.5136V15.7949C99.1295 15.8959 99.1006 15.9608 99.0429 15.9969C98.9852 16.0257 98.8987 16.0474 98.7761 16.0474H97.6725C97.4706 16.0474 97.3696 15.9464 97.3696 15.7444V15.4848C97.3696 15.29 97.3335 15.1169 97.2686 14.9511C97.2037 14.7924 97.1099 14.6481 96.9873 14.5327C96.8719 14.4173 96.7277 14.3235 96.569 14.2514C96.4103 14.1865 96.2372 14.1504 96.0497 14.1504C95.8549 14.1504 95.6818 14.1865 95.5231 14.2586C95.3645 14.3308 95.2346 14.4317 95.1192 14.5544C95.0038 14.677 94.9173 14.8212 94.8596 14.9871C94.8019 15.153 94.7658 15.3261 94.7658 15.5136C94.7658 15.7228 94.7947 15.8959 94.8596 16.0402C94.9245 16.1844 95.0255 16.3215 95.1769 16.4513C95.3212 16.5811 95.5087 16.7182 95.7467 16.8624C95.9775 17.0067 96.2661 17.1798 96.6051 17.3889C96.9513 17.5909 97.2903 17.8073 97.6076 18.0453C97.9322 18.2833 98.2135 18.5358 98.4515 18.8171C98.6895 19.0984 98.8915 19.4013 99.0357 19.7331C99.18 20.0649 99.2521 20.4255 99.2521 20.8222C99.2521 21.255 99.1728 21.6589 99.0213 22.0267C98.8698 22.3946 98.6463 22.7119 98.365 22.986C98.0764 23.2601 97.7374 23.4693 97.3407 23.6207C96.944 23.7722 96.5041 23.8515 96.028 23.8515C95.415 23.8515 94.8956 23.7722 94.4773 23.6063C94.059 23.4404 93.72 23.2168 93.4603 22.9427C93.2007 22.6614 93.0203 22.3441 92.9049 21.9762C92.7895 21.6084 92.7318 21.2261 92.7318 20.8294V20.5914H92.7246Z" fill="white"/>
<path d="M100.68 9.18086C100.68 9.07988 100.709 9.00054 100.759 8.93563C100.81 8.87071 100.889 8.84186 100.99 8.84186H102.295C102.396 8.84186 102.476 8.87071 102.526 8.93563C102.577 9.00054 102.605 9.07988 102.605 9.18086V20.9304C102.605 21.2477 102.678 21.493 102.829 21.6661C102.981 21.8392 103.24 21.9257 103.601 21.9257H103.904C104.041 21.9257 104.12 21.969 104.149 22.0483C104.178 22.1277 104.192 22.1998 104.192 22.2575V23.3611C104.192 23.3971 104.185 23.4332 104.185 23.4692C104.178 23.5053 104.156 23.5342 104.127 23.563C104.099 23.5919 104.048 23.6135 103.983 23.6351C103.918 23.6568 103.832 23.664 103.723 23.664H103.125C102.764 23.664 102.44 23.6207 102.137 23.527C101.834 23.4332 101.581 23.2817 101.365 23.0798C101.149 22.8706 100.983 22.6037 100.86 22.2647C100.737 21.9257 100.68 21.5146 100.68 21.0169V9.18086Z" fill="white"/>
<path d="M105.585 14.1792C105.527 14.0999 105.505 13.9989 105.512 13.8835C105.52 13.7681 105.592 13.6527 105.714 13.5445C105.866 13.4147 106.032 13.2849 106.227 13.155C106.414 13.0252 106.63 12.917 106.868 12.816C107.107 12.7223 107.373 12.6429 107.662 12.578C107.95 12.5203 108.275 12.4843 108.636 12.4843C109.076 12.4843 109.501 12.5636 109.898 12.7151C110.295 12.8665 110.641 13.0829 110.944 13.3642C111.239 13.6455 111.477 13.9773 111.651 14.3668C111.824 14.7563 111.91 15.1818 111.91 15.6506V20.8005C111.91 21.2044 111.852 21.5506 111.744 21.8536C111.636 22.1565 111.485 22.4234 111.297 22.6542C111.11 22.885 110.9 23.0725 110.67 23.2312C110.439 23.3827 110.201 23.5053 109.956 23.5991C109.71 23.6928 109.472 23.7577 109.241 23.801C109.011 23.8371 108.801 23.8587 108.621 23.8587C108.232 23.8587 107.842 23.801 107.453 23.6784C107.063 23.5558 106.71 23.3682 106.392 23.1086C106.075 22.8489 105.815 22.5243 105.613 22.1276C105.412 21.7309 105.311 21.2549 105.311 20.7067V20.2668C105.311 19.733 105.39 19.257 105.549 18.8459C105.707 18.4347 105.931 18.0885 106.227 17.8145C106.522 17.5404 106.868 17.3312 107.28 17.1942C107.691 17.0571 108.152 16.9922 108.657 16.9922H109.977V15.6434C109.977 15.4847 109.956 15.3261 109.905 15.153C109.855 14.9871 109.775 14.8284 109.66 14.6841C109.544 14.5399 109.393 14.4245 109.213 14.3307C109.025 14.2369 108.794 14.1937 108.527 14.1937C108.037 14.1937 107.626 14.273 107.301 14.4317C106.977 14.5904 106.724 14.7563 106.544 14.9222C106.465 15.0015 106.385 15.0376 106.299 15.0376C106.212 15.0376 106.14 14.9943 106.075 14.9005L105.585 14.1792ZM109.97 18.4131H109.112C108.722 18.4131 108.412 18.4636 108.16 18.5646C107.914 18.6656 107.72 18.8026 107.583 18.9757C107.446 19.1488 107.352 19.3435 107.301 19.5744C107.251 19.7979 107.229 20.036 107.229 20.2884V20.6851C107.229 20.9448 107.272 21.1612 107.352 21.3487C107.431 21.5362 107.539 21.6877 107.676 21.8103C107.806 21.9329 107.958 22.0195 108.124 22.0772C108.289 22.1349 108.448 22.1637 108.607 22.1637C108.751 22.1637 108.902 22.1421 109.061 22.0916C109.22 22.0411 109.371 21.9618 109.501 21.8464C109.631 21.731 109.746 21.5867 109.833 21.3992C109.919 21.2189 109.97 20.9953 109.97 20.7284V18.4131Z" fill="white"/>
<path d="M115.509 23.2817C115.509 23.4115 115.466 23.5053 115.387 23.5702C115.307 23.6351 115.221 23.6639 115.149 23.6639H113.872C113.8 23.6639 113.735 23.6351 113.67 23.5702C113.612 23.5125 113.576 23.4259 113.576 23.3177V13.0108C113.576 12.9026 113.605 12.8232 113.67 12.7727C113.735 12.7222 113.807 12.6934 113.886 12.6934H114.723C114.824 12.6934 114.903 12.715 114.968 12.7583C115.033 12.8016 115.076 12.8809 115.098 12.9963L115.185 13.4363C115.459 13.155 115.762 12.9314 116.108 12.7583C116.454 12.5852 116.822 12.4987 117.226 12.4987C117.659 12.4987 118.062 12.5708 118.423 12.7222C118.784 12.8737 119.094 13.0829 119.354 13.357C119.613 13.6311 119.815 13.9556 119.959 14.3307C120.104 14.713 120.176 15.1313 120.176 15.5857V23.3394C120.176 23.4476 120.147 23.5269 120.089 23.5846C120.032 23.6423 119.967 23.6712 119.887 23.6712H118.539C118.459 23.6712 118.394 23.6423 118.337 23.5846C118.279 23.5269 118.25 23.4476 118.25 23.3394V15.5929C118.243 15.4126 118.207 15.2395 118.149 15.0736C118.091 14.9077 118.005 14.7562 117.889 14.6264C117.781 14.4966 117.637 14.3956 117.471 14.3235C117.305 14.2513 117.11 14.2081 116.887 14.2081C116.707 14.2081 116.533 14.2441 116.375 14.3235C116.209 14.3956 116.065 14.5038 115.935 14.6264C115.805 14.7562 115.704 14.9077 115.632 15.0808C115.56 15.2539 115.516 15.4414 115.516 15.6434V23.2817H115.509Z" fill="white"/>
<path d="M128.333 20.8366C128.333 21.2766 128.247 21.6877 128.074 22.0555C127.9 22.4234 127.67 22.7408 127.374 23.0076C127.078 23.2745 126.732 23.4837 126.328 23.6351C125.924 23.7866 125.499 23.8587 125.051 23.8587C124.59 23.8587 124.157 23.7866 123.753 23.6351C123.349 23.4837 123.003 23.2745 122.707 23.0076C122.412 22.7408 122.174 22.4234 122.008 22.0555C121.835 21.6877 121.748 21.2838 121.748 20.8366V15.5136C121.748 15.0809 121.827 14.6769 121.986 14.3019C122.145 13.9268 122.361 13.6095 122.628 13.3426C122.902 13.0757 123.227 12.8666 123.602 12.7151C123.977 12.5636 124.381 12.4915 124.821 12.4915C125.088 12.4915 125.354 12.5348 125.628 12.6141C125.903 12.6935 126.162 12.8089 126.415 12.9531V9.18086C126.415 9.07988 126.436 9.00054 126.487 8.93563C126.537 8.87071 126.617 8.84186 126.725 8.84186H128.023C128.131 8.84186 128.211 8.87071 128.261 8.93563C128.312 9.00054 128.34 9.07988 128.34 9.18086V20.8366H128.333ZM126.407 15.5641C126.407 15.3838 126.371 15.2107 126.306 15.052C126.242 14.8861 126.148 14.7419 126.025 14.6192C125.903 14.4966 125.758 14.3957 125.592 14.3163C125.427 14.2442 125.246 14.2009 125.051 14.2009C124.85 14.2009 124.669 14.237 124.503 14.3163C124.337 14.3884 124.193 14.4894 124.071 14.6192C123.948 14.7419 123.854 14.8933 123.789 15.0592C123.724 15.2251 123.688 15.3982 123.688 15.5785V20.8005C123.688 20.9809 123.724 21.154 123.789 21.3127C123.854 21.4785 123.948 21.6228 124.071 21.7454C124.193 21.868 124.337 21.969 124.503 22.0483C124.669 22.1205 124.857 22.1637 125.051 22.1637C125.246 22.1637 125.427 22.1277 125.592 22.0483C125.758 21.9762 125.903 21.8752 126.025 21.7454C126.148 21.6228 126.242 21.4785 126.306 21.3127C126.371 21.1468 126.407 20.9736 126.407 20.8005V15.5641Z" fill="white"/>
<path d="M129.545 20.5914C129.545 20.3822 129.682 20.2812 129.963 20.2812H131.103C131.29 20.2812 131.384 20.3894 131.384 20.6058V20.8943C131.384 21.0819 131.42 21.255 131.492 21.4136C131.564 21.5723 131.665 21.7094 131.788 21.8248C131.911 21.9402 132.062 22.0267 132.228 22.0916C132.394 22.1565 132.581 22.1854 132.783 22.1854C132.971 22.1854 133.144 22.1493 133.317 22.0844C133.483 22.0195 133.635 21.9185 133.757 21.7959C133.88 21.6733 133.981 21.529 134.053 21.3632C134.125 21.1973 134.161 21.0169 134.161 20.8294C134.161 20.613 134.096 20.4183 133.966 20.2308C133.836 20.0432 133.656 19.8629 133.433 19.6826C133.209 19.5023 132.949 19.322 132.646 19.1272C132.351 18.9397 132.026 18.7233 131.687 18.4925C131.406 18.3194 131.146 18.1319 130.901 17.9371C130.656 17.7352 130.439 17.5188 130.259 17.2808C130.079 17.0427 129.927 16.7759 129.819 16.4729C129.711 16.1772 129.66 15.8454 129.66 15.4776C129.66 15.0664 129.74 14.6698 129.891 14.3091C130.043 13.9413 130.259 13.6311 130.54 13.357C130.822 13.0902 131.153 12.881 131.536 12.7223C131.918 12.5709 132.336 12.4915 132.783 12.4915C133.274 12.4915 133.721 12.5636 134.111 12.7151C134.5 12.8666 134.832 13.0757 135.106 13.3426C135.38 13.6095 135.589 13.9341 135.733 14.3019C135.878 14.677 135.95 15.0809 135.95 15.5136V15.7949C135.95 15.8959 135.921 15.9608 135.863 15.9969C135.806 16.0257 135.719 16.0474 135.596 16.0474H134.493C134.291 16.0474 134.19 15.9464 134.19 15.7444V15.4848C134.19 15.29 134.154 15.1169 134.089 14.9511C134.024 14.7924 133.93 14.6481 133.808 14.5327C133.692 14.4173 133.548 14.3235 133.389 14.2514C133.231 14.1865 133.058 14.1504 132.87 14.1504C132.675 14.1504 132.502 14.1865 132.343 14.2586C132.185 14.3308 132.055 14.4317 131.94 14.5544C131.824 14.677 131.738 14.8212 131.68 14.9871C131.622 15.153 131.586 15.3261 131.586 15.5136C131.586 15.7228 131.615 15.8959 131.68 16.0402C131.745 16.1844 131.846 16.3215 131.997 16.4513C132.141 16.5811 132.329 16.7182 132.567 16.8624C132.798 17.0067 133.086 17.1798 133.425 17.3889C133.772 17.5909 134.111 17.8073 134.428 18.0453C134.752 18.2833 135.034 18.5358 135.272 18.8171C135.51 19.0984 135.712 19.4013 135.856 19.7331C136 20.0649 136.072 20.4255 136.072 20.8222C136.072 21.255 135.993 21.6589 135.842 22.0267C135.69 22.3946 135.467 22.7119 135.185 22.986C134.897 23.2601 134.558 23.4693 134.161 23.6207C133.764 23.7722 133.324 23.8515 132.848 23.8515C132.235 23.8515 131.716 23.7722 131.298 23.6063C130.879 23.4404 130.54 23.2168 130.281 22.9427C130.021 22.6614 129.841 22.3441 129.725 21.9762C129.61 21.6084 129.552 21.2261 129.552 20.8294V20.5914H129.545Z" fill="white"/>
</svg>
