<svg width="77" height="33" viewBox="0 0 77 33" fill="none" xmlns="http://www.w3.org/2000/svg">
<g clip-path="url(#clip0_7065_23860)">
<path d="M39.6175 6.50879H42.4495V20.506C42.4495 24.1968 40.7646 26.7734 36.8571 26.7734C35.3873 26.7734 34.2401 26.5297 33.4514 26.2511V23.5701C34.3118 23.9183 35.3514 24.0924 36.391 24.0924C38.7929 24.0924 39.6175 22.6996 39.6175 20.6801V6.50879Z" fill="white"/>
<path d="M47.6477 5.42969C48.759 5.42969 49.5477 6.09125 49.5477 7.27509C49.5477 8.42412 48.759 9.1205 47.6477 9.1205C46.5363 9.1205 45.7477 8.45894 45.7477 7.27509C45.7477 6.12607 46.5363 5.42969 47.6477 5.42969ZM46.2496 11.3141H48.9741V26.6345H46.2496V11.3141Z" fill="white"/>
<path d="M55.7136 26.6345H53.0607V11.3141H55.7136V13.9952C56.6456 12.1846 58.223 10.8963 61.306 11.0704V13.647C57.8287 13.2988 55.7136 14.3085 55.7136 17.5815V26.6345Z" fill="white"/>
<path d="M74.0324 23.884C73.0287 25.9035 71.1287 26.948 68.6909 26.948C64.4966 26.948 62.3815 23.501 62.3815 18.9745C62.3815 14.6569 64.6041 11.001 69.0136 11.001C71.3079 11.001 73.1004 12.0107 74.0324 13.9954V11.3143H76.757V26.6347H74.0324V23.884ZM69.4079 24.5107C71.8457 24.5107 73.9966 23.0135 73.9966 19.6012V18.3826C73.9966 14.9703 72.0249 13.4731 69.6947 13.4731C66.6475 13.4731 65.0702 15.423 65.0702 18.9745C65.106 22.6653 66.6117 24.5107 69.4079 24.5107Z" fill="white"/>
<path d="M25.3851 3.375H12.9814C12.9814 6.36943 15.4908 8.80676 18.5738 8.80676H20.8681V10.9307C20.8681 13.9251 23.3776 16.3625 26.4606 16.3625V4.41957C26.4606 3.82765 25.9946 3.375 25.3851 3.375Z" fill="#2684FF"/>
<path d="M19.255 9.36328H6.85126C6.85126 12.3577 9.36069 14.795 12.4437 14.795H14.738V16.9538C14.738 19.9482 17.2475 22.3856 20.3305 22.3856V10.4078C20.3305 9.85074 19.8644 9.36328 19.255 9.36328Z" fill="url(#paint0_linear_7065_23860)"/>
<path d="M13.1249 15.3877H0.72113C0.72113 18.3821 3.23056 20.8194 6.31358 20.8194H8.60792V22.9434C8.60792 25.9378 11.1173 28.3751 14.2003 28.3751V16.4322C14.2003 15.8403 13.6985 15.3877 13.1249 15.3877Z" fill="url(#paint1_linear_7065_23860)"/>
</g>
<defs>
<linearGradient id="paint0_linear_7065_23860" x1="20.0666" y1="9.39333" x2="14.9513" y2="14.8245" gradientUnits="userSpaceOnUse">
<stop offset="0.176" stop-color="#0052CC"/>
<stop offset="1" stop-color="#2684FF"/>
</linearGradient>
<linearGradient id="paint1_linear_7065_23860" x1="14.2812" y1="15.4277" x2="8.35675" y2="21.3626" gradientUnits="userSpaceOnUse">
<stop offset="0.176" stop-color="#0052CC"/>
<stop offset="1" stop-color="#2684FF"/>
</linearGradient>
<clipPath id="clip0_7065_23860">
<rect width="76" height="32" fill="white" transform="translate(0.72113 0.375)"/>
</clipPath>
</defs>
</svg>
