<svg width="106" height="27" viewBox="0 0 106 27" fill="none" xmlns="http://www.w3.org/2000/svg">
<path d="M33.5696 20.9382L34.8418 17.9583C36.2359 18.9864 38.0482 19.5267 39.8605 19.5267C41.1849 19.5267 42.0388 19.0039 42.0388 18.2197C42.0039 16.0414 34.0227 17.7317 33.953 12.2425C33.9182 9.45428 36.4101 7.29342 39.9128 7.29342C42.004 7.29342 44.0951 7.8162 45.5763 8.98376L44.3913 12.0159C43.0321 11.1446 41.3418 10.5347 39.7385 10.5347C38.6407 10.5347 37.9262 11.0575 37.9262 11.7197C37.9611 13.8805 46.012 12.6956 46.0991 17.9409C46.0991 20.7988 43.6769 22.7854 40.2265 22.7854C37.6822 22.8202 35.3471 22.2103 33.5696 20.9382ZM84.1929 16.8953C83.5307 18.0629 82.3109 18.7773 80.9865 18.7773C78.9476 18.7773 77.2921 17.1218 77.2921 15.083C77.2921 13.0441 78.9476 11.3886 80.9865 11.3886C82.3109 11.3886 83.5482 12.1031 84.1929 13.2706L87.7305 11.3015C86.4061 8.93149 83.8792 7.32827 80.9865 7.32827C76.7171 7.32827 73.2492 10.7961 73.2492 15.083C73.2492 19.3698 76.7171 22.8376 80.9865 22.8376C83.8792 22.8376 86.4061 21.2344 87.7305 18.8645L84.1929 16.8953ZM48.3994 22.5065H52.8257V0.863128H48.3994V22.5065ZM89.961 0.863128V22.5065H94.3873V16.024L99.6326 22.5065H105.279L98.6219 14.8041L104.791 7.60709H99.3886L94.3873 13.5843V0.845703H89.961V0.863128ZM66.4356 7.62452V9.38457C65.7037 8.16473 63.9262 7.32827 62.0442 7.32827C58.1755 7.32827 55.1085 10.7612 55.1085 15.0655C55.1085 19.3698 58.1581 22.8376 62.0442 22.8376C63.9262 22.8376 65.7037 21.9838 66.4356 20.7813V22.5414H70.8618V7.64195H66.4356V7.62452ZM66.4356 16.9127C65.8082 17.9757 64.4664 18.7599 62.9852 18.7599C60.9463 18.7599 59.2908 17.1044 59.2908 15.0655C59.2908 13.0267 60.9463 11.3712 62.9852 11.3712C64.4664 11.3712 65.8082 12.1902 66.4356 13.2881V16.9127Z" fill="white"/>
<path d="M10.2184 0.392578C8.78949 0.392578 7.62193 1.56014 7.62193 2.98909C7.62193 4.41804 8.78949 5.5856 10.2184 5.5856H12.815V2.98909C12.815 1.56014 11.6648 0.392578 10.2184 0.392578ZM10.2184 7.31081H3.31764C1.88869 7.31081 0.72113 8.47836 0.72113 9.90732C0.72113 11.3363 1.88869 12.5038 3.31764 12.5038H10.2359C11.6648 12.5038 12.8324 11.3363 12.8324 9.90732C12.815 8.47836 11.6648 7.31081 10.2184 7.31081Z" fill="#36C5F0"/>
<path d="M26.6517 9.90717C26.6517 8.47821 25.4842 7.31066 24.0552 7.31066C22.6263 7.31066 21.4587 8.47821 21.4587 9.90717V12.5037H24.0552C25.4842 12.5211 26.6517 11.3535 26.6517 9.90717ZM19.7335 9.90717V2.97151C19.7335 1.54256 18.5659 0.375 17.137 0.375C15.708 0.375 14.5405 1.54256 14.5405 2.97151V9.90717C14.5405 11.3361 15.708 12.5037 17.137 12.5037C18.5834 12.5211 19.7335 11.3535 19.7335 9.90717Z" fill="#2EB67D"/>
<path d="M17.137 26.3748C18.5659 26.3748 19.7335 25.2072 19.7335 23.7783C19.7335 22.3493 18.5659 21.1817 17.137 21.1817H14.5405V23.7783C14.5405 25.2072 15.708 26.3748 17.137 26.3748ZM17.137 19.4391H24.0552C25.4842 19.4391 26.6517 18.2716 26.6517 16.8426C26.6517 15.4137 25.4842 14.2461 24.0552 14.2461H17.137C15.708 14.2461 14.5405 15.4137 14.5405 16.8426C14.5405 18.2716 15.708 19.4391 17.137 19.4391Z" fill="#ECB22E"/>
<path d="M0.72113 16.8426C0.72113 18.2716 1.88869 19.4391 3.31764 19.4391C4.7466 19.4391 5.91416 18.2716 5.91416 16.8426V14.2461H3.31764C1.87126 14.2461 0.72113 15.4137 0.72113 16.8426ZM7.63936 16.8426V23.7783C7.63936 25.2072 8.80692 26.3748 10.2359 26.3748C11.6648 26.3748 12.8324 25.2072 12.8324 23.7783V16.8426C12.8324 15.4137 11.6648 14.2461 10.2359 14.2461C8.78949 14.2461 7.63936 15.4137 7.63936 16.8426Z" fill="#E01E5A"/>
</svg>
