<svg width="123" height="50" viewBox="0 0 123 50" fill="none" xmlns="http://www.w3.org/2000/svg">
<g clip-path="url(#clip0_7065_21921)">
<path d="M0.114929 10.1992L0.120278 10.6309C0.123225 10.8684 0.805026 18.7301 1.63541 28.1013L3.1452 45.1399L9.93095 47.0568C13.6631 48.1111 16.7937 48.979 16.8879 48.9857C16.982 48.9924 20.154 48.1331 23.9367 47.0764C30.0015 45.382 30.8203 45.1268 30.8637 44.9171C30.9242 44.6249 33.8942 10.8199 33.8911 10.4583L33.889 10.1992H17.0019H0.114929Z" fill="white"/>
<path d="M9.9842 47.1714L3.1381 45.2406L3.04863 44.7297C2.96911 44.2755 0.000305176 10.8194 0.000305176 10.3774C0.000305176 10.2174 1.73371 10.1992 17.0014 10.1992C33.1174 10.1992 34.0025 10.2097 34.0013 10.4007C33.9959 11.2256 30.923 45.1247 30.8474 45.1921C30.752 45.2774 17.5013 49.0021 17.0585 49.0681C16.933 49.0868 13.7496 48.2333 9.9842 47.1714ZM21.3183 40.3491C23.6193 39.7087 25.5352 39.1518 25.5758 39.1115C25.6164 39.0711 25.8857 36.3183 26.1742 32.994C26.4627 29.6698 26.7279 26.7298 26.7635 26.4607L26.8282 25.9714H21.8578H16.8873V28.1012V30.231H19.5709H22.2545L22.2011 30.4901C22.1717 30.6325 22.0576 31.8568 21.9475 33.2107C21.8308 34.6453 21.6924 35.7277 21.6159 35.8049C21.5436 35.8778 20.4502 36.2156 19.1859 36.5556L16.8873 37.1738V39.3435C16.8873 40.8245 16.9266 41.5133 17.011 41.5133C17.0789 41.5133 19.0172 40.9894 21.3183 40.3491ZM26.7628 23.2947C26.6873 22.7306 26.0155 15.1643 26.0155 14.879C26.0155 14.7058 25.6205 14.6891 21.5085 14.6891H17.0014V16.9162V19.1434L19.0268 19.2221C20.1407 19.2654 21.313 19.3314 21.6318 19.3686L22.2116 19.4364L22.3524 21.1785C22.4298 22.1366 22.522 23.1148 22.5574 23.3523L22.6216 23.784H24.7249H26.8282L26.7628 23.2947Z" fill="#EAEBEC"/>
<path d="M9.93048 47.0567L3.14474 45.1397L1.63495 28.1012C0.804563 18.73 0.122745 10.8684 0.119798 10.6309L0.114441 10.1992H17.0015H33.8885L33.8907 10.4583C33.8938 10.8199 30.9237 44.6249 30.8632 44.9171C30.8198 45.1268 30.0011 45.382 23.9363 47.0764C20.1535 48.1332 16.9815 48.9924 16.8874 48.9857C16.7932 48.979 13.6626 48.111 9.93048 47.0567ZM21.3235 40.4305C23.6692 39.7725 25.6217 39.1797 25.6624 39.1133C25.7031 39.0469 25.9833 36.1535 26.2851 32.6834C26.5869 29.2134 26.8586 26.2837 26.8888 26.1729C26.9407 25.9825 26.5415 25.9714 19.6564 25.9714H12.3691L12.6794 22.6615C12.85 20.8411 12.9938 19.347 12.9988 19.3412C13.0038 19.3354 14.0733 19.301 15.3755 19.2647C17.5107 19.2052 21.914 19.377 22.0613 19.5257C22.1163 19.5812 22.4784 23.1651 22.4784 23.6543C22.4784 23.8956 22.5106 23.8991 24.6893 23.8991H26.9003L26.8482 23.4098C26.8195 23.1407 26.6322 21.0555 26.432 18.7761L26.0679 14.6315L17.5411 14.602C10.7576 14.5785 9.01417 14.6021 9.01343 14.7172C9.01283 14.7967 8.9632 15.3021 8.90294 15.8404C8.75714 17.1427 7.64515 29.7264 7.64515 30.074V30.3461H14.9006H22.1561L22.0914 30.7779C22.0559 31.0153 21.9431 32.2198 21.8408 33.4545C21.7385 34.6892 21.6219 35.7314 21.5817 35.7703C21.4754 35.8733 17.2071 37.0238 16.9409 37.0212C16.8173 37.02 15.715 36.7425 14.4912 36.4046L12.2663 35.79L12.1847 34.8238C12.1398 34.2923 12.0715 33.5337 12.033 33.1379L11.9628 32.4184H9.804H7.64515L7.64993 32.8501C7.65886 33.6575 8.17775 39.0958 8.2531 39.1718C8.34025 39.2597 16.6321 41.6115 16.8874 41.6207C16.9815 41.6241 18.9778 41.0885 21.3235 40.4305Z" fill="#F0BE25"/>
<path d="M9.93048 47.0567L3.14474 45.1397L1.63495 28.1012C0.804563 18.73 0.122745 10.8684 0.119798 10.6309L0.114441 10.1992H17.0015H33.8885L33.8907 10.4583C33.8938 10.8199 30.9237 44.6249 30.8632 44.9171C30.8198 45.1268 30.0011 45.382 23.9363 47.0764C20.1535 48.1332 16.9815 48.9924 16.8874 48.9857C16.7932 48.979 13.6626 48.111 9.93048 47.0567ZM22.585 44.4922C25.57 43.6611 28.0684 42.9229 28.1369 42.8517C28.2435 42.7408 30.8216 14.2326 30.8112 13.2788L30.8078 12.9622H23.9046H17.0015V13.7681V14.574H13.0079C9.88964 14.574 9.01416 14.6055 9.01343 14.7179C9.01283 14.797 8.9632 15.3021 8.90294 15.8404C8.75714 17.1427 7.64515 29.7264 7.64515 30.074V30.3461H12.3233H17.0015V33.6848C17.0015 36.2801 16.9697 37.0229 16.8589 37.0212C16.7804 37.02 15.715 36.7425 14.4912 36.4046L12.2663 35.79L12.1847 34.8238C12.1398 34.2923 12.0715 33.5337 12.033 33.1379L11.9628 32.4184H9.804H7.64515L7.64993 32.8501C7.6636 34.085 8.19304 39.1255 8.31721 39.203C8.39268 39.25 10.3775 39.8255 12.728 40.4817L17.0015 41.6749V43.839C17.0015 45.0293 17.0366 46.0032 17.0796 46.0032C17.1226 46.0032 19.6 45.3232 22.585 44.4922ZM12.6674 22.6925C12.8314 20.8891 12.988 19.3931 13.0153 19.3682C13.0426 19.3433 13.9507 19.2981 15.0332 19.2679L17.0015 19.213V22.5922V25.9714H14.6853H12.3691L12.6674 22.6925Z" fill="#E4A126"/>
<path d="M10.84 6.11309V5.0194H12.3804H13.9208V2.88958V0.759766H15.0047H16.0887V3.98327V7.20678H13.4644H10.84V6.11309ZM17.1156 6.34334V5.4799H18.5419C19.3263 5.4799 19.9682 5.45064 19.9682 5.41488C19.9682 5.37912 19.3263 4.64802 18.5419 3.79022L17.1156 2.23057V1.49517V0.759766H20.0823H23.0489V1.61966V2.47956L21.6562 2.51188L20.2635 2.54421L21.7132 4.11949L23.163 5.69477V6.45078V7.20678H20.1393H17.1156V6.34334Z" fill="white"/>
</g>
<g clip-path="url(#clip1_7065_21921)">
<path d="M58.3918 48.947L44.8053 45.0766L41.7776 10.2295H75.0467L72.0158 45.0712L58.3918 48.947Z" fill="#264DE4"/>
<path d="M69.4206 42.8529L72.0107 13.0791H58.4118V45.9848L69.4206 42.8529Z" fill="#2965F1"/>
<path d="M48.7192 26.0029L49.0925 30.2767H58.4129V26.0029H48.7192Z" fill="#EBEBEB"/>
<path d="M47.9683 17.3525L48.3469 21.6264H58.412V17.3525H47.9683Z" fill="#EBEBEB"/>
<path d="M58.4124 37.1039L58.3942 37.1089L53.7557 35.8236L53.4591 32.415H49.2782L49.8617 39.1256L58.3933 41.556L58.4124 41.5505V37.1039Z" fill="#EBEBEB"/>
<path d="M49.6071 0.759766H54.6516V2.92443H51.7166V5.0891H54.6516V7.25377H49.6071V0.759766Z" fill="white"/>
<path d="M55.6602 0.759766H60.7047V2.64209H57.7697V3.01855H60.7047V7.34789H55.6602V5.37145H58.5952V4.99499H55.6602V0.759766Z" fill="white"/>
<path d="M61.7142 0.759766H66.7587V2.64209H63.8237V3.01855H66.7587V7.34789H61.7142V5.37145H64.6492V4.99499H61.7142V0.759766Z" fill="white"/>
<path d="M68.079 26.0029L68.8309 17.3525H58.3977V21.6264H64.2665L63.8875 26.0029H58.3977V30.2767H63.5264L63.0429 35.8196L58.3977 37.1062V41.5526L66.936 39.1243L66.9987 38.4023L67.9774 27.1506L68.079 26.0029Z" fill="white"/>
</g>
<g clip-path="url(#clip2_7065_21921)">
<path d="M115.151 10.2295L112.12 45.0712L98.4958 48.9469L84.9093 45.0765L81.8816 10.2295H115.151Z" fill="#E44D26"/>
<path d="M98.5157 45.9848L109.525 42.853L112.115 13.0791H98.5157V45.9848Z" fill="#F16529"/>
<path d="M92.6241 21.6264H98.5161V17.3525H88.0724L88.172 18.4991L89.1957 30.2767H98.5161V26.0029H93.0048L92.6241 21.6264ZM93.5628 32.4137H89.3818L89.9653 39.1243L98.4969 41.5545L98.5161 41.5492V37.1025L98.4978 37.1075L93.8594 35.8223L93.5628 32.4137Z" fill="#EBEBEB"/>
<path d="M84.9766 0.759766H87.0932V2.90559H89.0294V0.759766H91.1461V7.25786H89.0295V5.08192H87.0933V7.25786H84.9768L84.9766 0.759766ZM93.9293 2.91469H92.0663V0.759766H97.9105V2.91469H96.0463V7.25786H93.9297V2.91469H93.9293ZM98.838 0.759766H101.045L102.402 3.04302L103.759 0.759766H105.967V7.25786H103.859V4.03705L102.402 6.34747H102.366L100.909 4.03705V7.25786H98.838V0.759766ZM107.02 0.759766H109.137V5.11003H112.114V7.25786H107.02V0.759766H107.02Z" fill="white"/>
<path d="M98.5015 30.2767H103.63L103.147 35.8196L98.5013 37.1062V41.5525L107.04 39.1243L107.102 38.4022L108.081 27.1505L108.183 26.0029H98.5015V30.2767ZM98.5015 21.616V21.6264H108.562L108.645 20.6658L108.835 18.4991L108.935 17.3525H98.5015V21.616Z" fill="white"/>
</g>
<defs>
<clipPath id="clip0_7065_21921">
<rect width="34.001" height="48.3095" fill="white" transform="translate(6.10352e-05 0.759766)"/>
</clipPath>
<clipPath id="clip1_7065_21921">
<rect width="47.0783" height="48.3095" fill="white" transform="translate(34.8735 0.759766)"/>
</clipPath>
<clipPath id="clip2_7065_21921">
<rect width="47.0783" height="48.3095" fill="white" transform="translate(74.9767 0.759766)"/>
</clipPath>
</defs>
</svg>
