<svg width="116" height="44" viewBox="0 0 116 44" fill="none" xmlns="http://www.w3.org/2000/svg">
<path d="M112.951 16.35H112.46V16.0771H113.782V16.35H113.294V17.7113H112.951V16.35ZM115.588 16.4211H115.581L115.094 17.7118H114.871L114.387 16.4211H114.382V17.7118H114.058V16.0776H114.534L114.983 17.2348L115.429 16.0776H115.904V17.7118H115.588L115.588 16.4211Z" fill="#E76F00"/>
<path d="M69.6281 31.693C68.1087 33.0015 66.504 33.736 65.0638 33.736C63.0083 33.736 61.8977 32.5123 61.8977 30.5495C61.8977 28.4264 63.0878 26.874 67.8614 26.874H69.6279L69.6281 31.693ZM73.8207 36.3895V21.8519C73.8207 18.1379 71.6873 15.6876 66.5435 15.6876C63.5406 15.6876 60.9101 16.4238 58.7721 17.3627L59.3892 19.936C61.0726 19.3226 63.2515 18.7515 65.3902 18.7515C68.3534 18.7515 69.6281 19.936 69.6281 22.3849V24.2225H68.1492C60.9499 24.2225 57.7023 26.9971 57.7023 31.1615C57.7023 34.7558 59.8424 36.7987 63.872 36.7987C66.4622 36.7987 68.3958 35.7368 70.2033 34.1831L70.5314 36.39L73.8207 36.3895ZM87.8127 36.3895H82.5838L76.2906 16.0557H80.8573L84.7621 28.5487L85.6301 32.306C87.6057 26.8736 89.0031 21.3622 89.7019 16.0557H94.144C92.9536 22.7513 90.812 30.1007 87.8127 36.3895ZM107.873 31.693C106.35 33.0015 104.743 33.736 103.302 33.736C101.251 33.736 100.137 32.5123 100.137 30.5495C100.137 28.4264 101.33 26.874 106.103 26.874H107.873V31.693ZM112.065 36.3895V21.8519C112.065 18.1379 109.926 15.6876 104.788 15.6876C101.783 15.6876 99.1516 16.4238 97.0146 17.3627L97.631 19.936C99.3148 19.3226 101.498 18.7515 103.635 18.7515C106.596 18.7515 107.873 19.936 107.873 22.3849V24.2225H106.391C99.1897 24.2225 95.9433 26.9971 95.9433 31.1615C95.9433 34.7558 98.0818 36.7987 102.111 36.7987C104.703 36.7987 106.635 35.7368 108.446 34.1831L108.775 36.39L112.065 36.3895ZM53.1052 39.8423C51.91 41.5749 49.9796 42.9455 47.8662 43.721L45.7961 41.3025C47.4048 40.483 48.7844 39.1595 49.4253 37.927C49.9798 36.8306 50.2093 35.4175 50.2093 32.0384V8.82422H54.6637V31.7203C54.6634 36.2377 54.2996 38.0627 53.1052 39.8423Z" fill="#E76F00"/>
<path d="M10.2874 34.0134C10.2874 34.0134 8.63237 34.969 11.4653 35.2924C14.8973 35.6811 16.6514 35.6253 20.4335 34.9147C20.4335 34.9147 21.4279 35.5337 22.8165 36.0698C14.338 39.6775 3.62804 35.8609 10.2874 34.0134ZM9.25142 29.3057C9.25142 29.3057 7.3951 30.6699 10.2301 30.961C13.8963 31.3365 16.7916 31.3673 21.8015 30.4095C21.8015 30.4095 22.4946 31.1069 23.5842 31.4884C13.3331 34.4644 1.9153 31.7231 9.25142 29.3057Z" fill="#5382A1"/>
<path d="M17.9855 21.3197C20.0746 23.7076 17.4367 25.8566 17.4367 25.8566C17.4367 25.8566 22.741 23.1379 20.305 19.7334C18.0297 16.5583 16.2849 14.981 25.7308 9.54199C25.7309 9.54188 10.9038 13.2184 17.9855 21.3197Z" fill="#E76F00"/>
<path d="M29.1988 37.4958C29.1988 37.4958 30.4236 38.4979 27.8499 39.2729C22.956 40.7448 7.48101 41.1893 3.18212 39.3317C1.63677 38.6641 4.53473 37.7378 5.44632 37.5435C6.39701 37.3388 6.9403 37.3769 6.9403 37.3769C5.22172 36.175 -4.16789 39.737 2.17084 40.7572C19.4575 43.5405 33.6829 39.5039 29.1988 37.4958ZM11.0832 24.4281C11.0832 24.4281 3.21165 26.2843 8.29571 26.9584C10.4424 27.2437 14.7216 27.1792 18.7076 26.8476C21.9652 26.5748 25.2364 25.9948 25.2364 25.9948C25.2364 25.9948 24.0877 26.4832 23.2566 27.0465C15.2632 29.1338 -0.178695 28.1627 4.26682 26.0277C8.0264 24.2234 11.0832 24.4281 11.0832 24.4281ZM25.2039 32.2644C33.3296 28.0723 29.5727 24.0436 26.9503 24.5864C26.3075 24.7193 26.0209 24.8343 26.0209 24.8343C26.0209 24.8343 26.2597 24.4632 26.7152 24.3026C31.903 22.4918 35.8928 29.6433 25.0405 32.4758C25.0405 32.4758 25.1664 32.3643 25.2039 32.2644Z" fill="#5382A1"/>
<path d="M20.3046 0.759766C20.3046 0.759766 24.8048 5.22902 16.0364 12.1018C9.00512 17.6147 14.4331 20.7581 16.0335 24.3496C11.9293 20.673 8.91733 17.4367 10.938 14.4245C13.9038 10.0029 22.1203 7.85909 20.3046 0.759766Z" fill="#E76F00"/>
<path d="M11.8817 43.6236C19.6813 44.1193 31.6586 43.3486 31.9422 39.6846C31.9422 39.6846 31.397 41.0735 25.4962 42.1767C18.8391 43.4204 10.6283 43.2753 5.75842 42.4782C5.75866 42.4779 6.75546 43.2972 11.8817 43.6236Z" fill="#5382A1"/>
</svg>
