<svg width="145" height="38" viewBox="0 0 145 38" fill="none" xmlns="http://www.w3.org/2000/svg">
<g clip-path="url(#clip0_7065_21955)">
<path fill-rule="evenodd" clip-rule="evenodd" d="M8.99833 30.72L8.88128 30.8116C8.78223 32.4603 8.52111 34.8051 8.52111 34.8051H7.46763C7.46763 34.8051 7.20651 32.4511 7.10746 30.8116L6.99041 30.7291C6.99041 30.7291 -7.03807 20.1223 5.08152 4.40448C6.49518 2.70079 7.71074 0.96963 7.95385 0.612406C7.98086 0.584927 8.01688 0.584927 8.04389 0.612406C8.29601 0.96963 9.51157 2.70079 10.9252 4.40448C23.0448 20.1223 9.01634 30.7291 8.99833 30.72ZM8.79124 29.6666V29.6391L8.03489 12.529C8.03489 12.4741 7.95385 12.4741 7.95385 12.529L7.1975 29.6391V29.6666C7.36858 29.9414 7.99887 30.491 7.99887 30.491C7.99887 30.491 8.62016 29.9414 8.79124 29.6666Z" fill="#00ED64"/>
<path d="M40.0892 12.4385H44.5193V13.4186L43.7629 13.4277C43.3127 13.446 42.9436 13.8216 42.9436 14.2887L42.9886 28.8983C42.9976 29.3562 43.3668 29.7409 43.817 29.7409H44.5193V30.7027H39.3329V29.7409H39.8011C40.2603 29.7318 40.6295 29.3562 40.6295 28.8891L40.5395 15.4611L34.3086 30.7027C34.2185 30.9317 34.0114 31.0782 33.7773 31.0782C33.5342 31.0782 33.3271 30.9317 33.2371 30.7027L26.8621 15.1131V28.8891C26.8621 29.3379 27.2313 29.7135 27.6815 29.7318L28.1407 29.7409V30.7027H23.7107V29.7409L24.458 29.7318C24.8992 29.7135 25.2684 29.3379 25.2684 28.8891L25.3945 14.2704C25.3945 14.0506 25.3224 13.8307 25.1604 13.675C25.0073 13.5101 24.8002 13.4186 24.5751 13.4186H23.8368V12.4385H28.3838L28.4019 12.4843L34.2456 27.0022L40.0892 12.4385Z" fill="#00ED64"/>
<path d="M75.5385 29.6859H76.0697V30.6659H71.2525V29.6859H71.7837C72.0179 29.6859 72.2159 29.6034 72.36 29.4569C72.5041 29.3103 72.5851 29.1088 72.5851 28.8707V21.9643C72.5851 21.0484 72.36 20.2881 71.9278 19.6927C71.4956 19.1065 70.7933 18.8134 69.8749 18.8134C69.0645 18.8134 68.3532 19.0241 67.7589 19.4729C67.1736 19.9126 66.7234 20.4896 66.4173 21.1674C66.1291 21.8636 65.9761 22.578 65.9761 23.2833V28.8798C65.9761 29.1271 66.0571 29.3286 66.2012 29.4752C66.3452 29.6217 66.5433 29.7042 66.7774 29.7042H67.2997V30.6751H62.4915V29.7042H63.0137C63.2568 29.7042 63.4549 29.6217 63.599 29.4752C63.743 29.3286 63.8151 29.1271 63.8151 28.8798V20.4347C63.8151 20.1507 63.743 19.9492 63.599 19.821C63.4549 19.6836 63.2388 19.6195 62.9957 19.6195H62.4554V18.9508L64.5444 17.7326H65.3548L65.841 19.6469C65.841 19.6836 65.868 19.7111 65.913 19.7111C65.9491 19.7111 65.9851 19.6927 66.0031 19.6744C67.0386 18.1448 68.5242 17.3662 70.4061 17.3662C71.7387 17.3662 72.8192 17.7509 73.5936 18.5203C74.386 19.2806 74.7821 20.3522 74.7821 21.717V28.8981C74.7821 29.1363 74.8542 29.3378 74.9982 29.4843C75.1603 29.6309 75.3404 29.7133 75.5385 29.6859Z" fill="#00ED64"/>
<path fill-rule="evenodd" clip-rule="evenodd" d="M122.135 16.7068C122.919 18.0808 123.324 19.7112 123.324 21.5706C123.324 23.4391 122.919 25.0787 122.135 26.4435C121.352 27.7991 120.271 28.8616 118.939 29.5852C117.615 30.3088 116.129 30.6752 114.518 30.6752H108.269V29.7043H108.881C109.115 29.7043 109.331 29.5944 109.529 29.402C109.728 29.2005 109.827 28.9715 109.827 28.7334V14.3895C109.827 14.1513 109.728 13.9223 109.529 13.7208C109.322 13.5101 109.115 13.4186 108.881 13.4186H108.269V12.4385H114.518C116.129 12.4385 117.615 12.814 118.939 13.5376C120.271 14.2704 121.343 15.3237 122.135 16.7068ZM119.92 17.2289C119.335 16.0657 118.552 15.2047 117.588 14.6459C116.625 14.078 115.553 13.8033 114.401 13.8033H113.14C112.906 13.8033 112.681 13.904 112.492 14.1055C112.285 14.3254 112.186 14.536 112.186 14.7742V28.3029C112.186 28.541 112.294 28.77 112.492 28.9715C112.699 29.1822 112.906 29.283 113.14 29.283H114.401C115.553 29.283 116.625 28.999 117.588 28.4403C118.552 27.8815 119.335 27.0114 119.92 25.8481C120.505 24.694 120.803 23.2559 120.803 21.5431C120.803 19.8577 120.505 18.4014 119.92 17.2289Z" fill="#00ED64"/>
<path fill-rule="evenodd" clip-rule="evenodd" d="M139.162 25.5092C139.162 26.5992 138.865 27.5426 138.288 28.3212C137.721 29.0906 136.938 29.6768 135.947 30.0798C134.966 30.4737 133.876 30.6752 132.706 30.6752H125.016V29.7043H125.638C125.872 29.7043 126.097 29.5944 126.295 29.402C126.493 29.2005 126.601 28.9715 126.601 28.7334V14.3895C126.601 14.1513 126.493 13.9223 126.295 13.7208C126.088 13.5101 125.872 13.4186 125.638 13.4186H125.07V12.4385H132.157C133.282 12.4385 134.282 12.64 135.137 13.0247C135.992 13.4186 136.659 13.9773 137.136 14.6643C137.604 15.3604 137.847 16.1756 137.847 17.0824C137.847 18.7494 136.911 20.0409 135.101 20.9569C136.416 21.2683 137.532 21.8362 138.108 22.5232C138.802 23.3292 139.144 24.3368 139.162 25.5092ZM129.951 29.283H132.643C133.498 29.283 134.228 29.0906 134.822 28.7334C135.425 28.3762 135.875 27.909 136.172 27.3228C136.461 26.7457 136.623 26.1229 136.623 25.4817C136.623 24.4131 136.28 23.546 135.596 22.8804C134.912 22.2148 133.927 21.882 132.643 21.882H128.987V28.3212C128.987 28.5593 129.095 28.7883 129.293 28.9807C129.5 29.1822 129.707 29.283 129.951 29.283ZM132.067 20.5081C133.138 20.5081 133.957 20.1966 134.498 19.6013C135.029 18.9876 135.308 18.1724 135.308 17.1648C135.308 16.1756 135.02 15.3787 134.444 14.7467C133.858 14.133 132.94 13.8124 131.697 13.8124H129.96C129.725 13.8124 129.5 13.9223 129.302 14.1238C129.095 14.3345 129.005 14.5452 129.005 14.7925V20.5081H132.067Z" fill="#00ED64"/>
<path fill-rule="evenodd" clip-rule="evenodd" d="M59.0792 20.6087C59.6644 21.6346 59.9706 22.8253 59.9706 24.1535C59.9706 25.4816 59.6644 26.6815 59.0792 27.6982C58.4939 28.7241 57.7015 29.5393 56.6931 30.098C55.7026 30.6659 54.5681 30.9407 53.3525 30.9407C52.146 30.9407 51.0204 30.6476 50.021 30.098C49.0125 29.5393 48.2202 28.7241 47.6349 27.6982C47.0496 26.6815 46.7435 25.4816 46.7435 24.1535C46.7435 22.8253 47.0496 21.6346 47.6349 20.6087C48.2202 19.5828 49.0125 18.7768 50.021 18.2181C51.0114 17.6502 52.146 17.3662 53.3525 17.3662C54.5681 17.3662 55.6936 17.6593 56.6931 18.2181C57.7015 18.7768 58.4939 19.5828 59.0792 20.6087ZM56.486 20.2332C55.7116 19.2806 54.6581 18.7859 53.3525 18.7859C52.0559 18.7859 50.9934 19.2806 50.2281 20.2332C49.4447 21.1949 49.0575 22.5231 49.0575 24.1535C49.0575 25.793 49.4447 27.1212 50.2281 28.0738C50.9934 29.0355 52.0559 29.521 53.3525 29.521C54.6581 29.521 55.7116 29.0355 56.486 28.0738C57.2693 27.1212 57.6565 25.793 57.6565 24.1535C57.6565 22.5231 57.2693 21.1949 56.486 20.2332Z" fill="#00ED64"/>
<path fill-rule="evenodd" clip-rule="evenodd" d="M105.288 20.6087C105.873 21.6346 106.17 22.8253 106.17 24.1535C106.17 25.4816 105.873 26.6815 105.288 27.6982C104.703 28.7241 103.901 29.5393 102.902 30.098C101.911 30.6659 100.777 30.9407 99.5614 30.9407C98.3458 30.9407 97.2293 30.6476 96.2208 30.098C95.2214 29.5393 94.42 28.7241 93.8347 27.6982C93.2495 26.6815 92.9523 25.4816 92.9523 24.1535C92.9523 22.8253 93.2495 21.6346 93.8347 20.6087C94.42 19.5828 95.2214 18.7768 96.2208 18.2181C97.2113 17.6502 98.3458 17.3662 99.5614 17.3662C100.777 17.3662 101.893 17.6593 102.902 18.2181C103.892 18.7768 104.703 19.5828 105.288 20.6087ZM102.695 20.2332C101.92 19.2806 100.867 18.7859 99.5614 18.7859C98.2558 18.7859 97.2023 19.2806 96.4279 20.2332C95.6536 21.1949 95.2574 22.5047 95.2574 24.1535C95.2574 25.793 95.6536 27.1212 96.4279 28.0738C97.2023 29.0355 98.2558 29.521 99.5614 29.521C100.867 29.521 101.92 29.0355 102.695 28.0738C103.469 27.1212 103.865 25.793 103.865 24.1535C103.865 22.5231 103.46 21.1949 102.695 20.2332Z" fill="#00ED64"/>
<path fill-rule="evenodd" clip-rule="evenodd" d="M86.47 17.7234H90.9901V19.0516L88.1628 18.731C88.1628 18.731 88.1538 18.731 88.1538 18.7401C89.4414 19.6653 89.9096 21.4605 89.9096 22.4498C89.9096 23.3749 89.6665 24.2359 89.1622 25.0145C88.667 25.8022 87.9647 26.4159 87.1003 26.8739C86.2359 27.3227 85.2364 27.5517 84.1379 27.5517C83.7417 27.5517 83.3816 27.5242 83.0664 27.4601C82.7693 27.3868 82.4271 27.286 82.058 27.112L80.6983 28.9806C80.6803 28.9897 80.6983 29.0172 80.6983 29.0172C80.6983 29.0172 80.7073 29.0355 80.7163 29.0355H85.9748C87.5055 29.0355 88.7391 29.3653 89.5314 29.9881C90.4498 30.7392 90.846 31.5178 90.846 32.6078C90.846 33.652 90.5129 34.5588 89.8736 35.3007C89.2433 36.0518 88.3879 36.6288 87.3344 37.0135C86.2989 37.3982 85.1554 37.5997 83.9669 37.5997C82.2471 37.5997 80.8784 37.2425 79.906 36.5281C78.9245 35.8228 78.4203 34.8793 78.4203 33.7252C78.4203 33.1115 78.5914 32.5162 78.9335 31.9391C79.2217 31.4353 79.6449 31.0048 80.1671 30.6476H79.6268C79.2397 30.6476 78.8975 30.4369 78.7084 30.0706C78.5373 29.7225 78.5644 29.3012 78.8075 28.9806L80.6803 26.3884C80.05 25.9396 79.5548 25.39 79.1856 24.7305C78.8075 24.0527 78.6184 23.2925 78.6184 22.4681C78.6184 21.543 78.8705 20.6728 79.3567 19.9034C79.8429 19.1157 80.5273 18.502 81.3917 18.044C82.2561 17.5921 83.2135 17.3662 84.264 17.3662C85.0293 17.3662 85.7587 17.5036 86.47 17.7234ZM87.0733 24.4924C87.4064 23.9611 87.5595 23.2833 87.5595 22.4681C87.5595 21.6621 87.3884 20.9842 87.0733 20.4347C86.7491 19.8851 86.3439 19.4729 85.8397 19.2073C85.3445 18.9325 84.8132 18.7951 84.264 18.7951C83.3816 18.7951 82.6072 19.1157 81.9589 19.7385C81.3016 20.3706 80.9685 21.2865 80.9685 22.4681C80.9685 23.6405 81.3016 24.5565 81.9589 25.1885C82.6072 25.8113 83.3816 26.1319 84.264 26.1319C84.8042 26.1319 85.3445 25.9854 85.8397 25.7198C86.3439 25.4541 86.7581 25.0419 87.0733 24.4924ZM81.0855 31.7101C80.7704 32.1956 80.6173 32.7452 80.6173 33.3314C80.6173 34.2656 80.9595 34.9984 81.6258 35.4747C82.2921 35.9602 83.2195 36.2075 84.318 36.2075C85.5786 36.2075 86.6051 35.9052 87.3614 35.3007C88.1268 34.7053 88.5049 33.8993 88.5049 32.9283C88.5049 32.2597 88.2978 31.6918 87.8747 31.2613C87.4605 30.8308 86.8302 30.6293 85.8397 30.6293H82.2831C81.7878 30.8858 81.4007 31.2338 81.0855 31.7101Z" fill="#00ED64"/>
<path fill-rule="evenodd" clip-rule="evenodd" d="M141.818 30.4567C141.566 30.3101 141.368 30.0994 141.215 29.8521C141.071 29.5957 140.99 29.3209 140.99 29.0186C140.99 28.7163 141.071 28.4232 141.215 28.1759C141.35 27.9195 141.566 27.7179 141.818 27.5714C142.079 27.434 142.368 27.3516 142.692 27.3516C143.016 27.3516 143.304 27.434 143.565 27.5714C143.818 27.7179 144.016 27.9286 144.169 28.1759C144.313 28.4416 144.394 28.7163 144.394 29.0186C144.394 29.3209 144.313 29.6048 144.169 29.8521C144.034 30.1178 143.818 30.3101 143.565 30.4567C143.304 30.6032 143.016 30.6765 142.692 30.6765C142.377 30.6765 142.079 30.6124 141.818 30.4567ZM143.421 30.2735C143.638 30.1544 143.8 29.9712 143.926 29.7605C144.043 29.5407 144.106 29.2934 144.106 29.0186C144.106 28.7438 144.043 28.4874 143.926 28.2675C143.806 28.0477 143.638 27.8767 143.421 27.7546C143.196 27.6355 142.962 27.5714 142.692 27.5714C142.422 27.5714 142.188 27.6355 141.962 27.7546C141.746 27.8737 141.584 28.0569 141.458 28.2675C141.341 28.4874 141.278 28.7438 141.278 29.0186C141.278 29.2934 141.341 29.5407 141.458 29.7605C141.578 29.9865 141.746 30.1574 141.962 30.2735C142.188 30.3925 142.422 30.4567 142.692 30.4567C142.962 30.4567 143.214 30.3925 143.421 30.2735ZM141.989 29.8155V29.6964L142.016 29.6873H142.097C142.116 29.6873 142.143 29.6689 142.161 29.6598C142.188 29.6323 142.188 29.614 142.188 29.5957V28.3774C142.188 28.35 142.17 28.3225 142.161 28.3042C142.134 28.2858 142.116 28.2858 142.097 28.2858H142.016L141.989 28.2675V28.1484L142.016 28.1393H142.692C142.89 28.1393 143.034 28.1759 143.142 28.2675C143.268 28.3591 143.313 28.4782 143.313 28.6339C143.313 28.753 143.277 28.8721 143.187 28.9545C143.097 29.0461 142.989 29.0919 142.863 29.1102L143.016 29.156L143.313 29.6415C143.34 29.6873 143.367 29.6964 143.403 29.6964H143.484L143.493 29.7056V29.8247L143.484 29.843H143.079L143.052 29.8247L142.638 29.1194H142.539V29.5957C142.539 29.614 142.548 29.6415 142.566 29.6598C142.593 29.6873 142.602 29.6873 142.629 29.6873H142.701L142.728 29.6964V29.8155L142.701 29.8247H142.016L141.989 29.8155ZM142.656 28.9545C142.755 28.9545 142.845 28.927 142.899 28.8629C142.953 28.8079 142.989 28.7163 142.989 28.6156C142.989 28.5057 142.962 28.4324 142.908 28.3683C142.863 28.295 142.782 28.2767 142.692 28.2767H142.638C142.611 28.2767 142.584 28.2858 142.575 28.295C142.548 28.3225 142.548 28.3408 142.548 28.3683V28.9545H142.656Z" fill="#00ED64"/>
</g>
<defs>
<clipPath id="clip0_7065_21955">
<rect width="144.247" height="37.0047" fill="white" transform="translate(0.146912 0.594727)"/>
</clipPath>
</defs>
</svg>
