<svg width="157" height="40" viewBox="0 0 157 40" fill="none" xmlns="http://www.w3.org/2000/svg">
<path fill-rule="evenodd" clip-rule="evenodd" d="M25.5422 25.1273C24.4209 25.1014 23.5442 25.2138 22.8107 25.5338C22.5999 25.6203 22.2627 25.6203 22.2374 25.8971C22.347 26.0095 22.3639 26.1998 22.465 26.3555C22.6581 26.6908 22.9062 26.9893 23.1985 27.2377L24.1006 27.9037C24.6486 28.2497 25.264 28.4486 25.8035 28.7946C26.1155 28.9935 26.419 29.253 26.6466 29.4692C26.7983 29.5816 26.8995 29.7719 27.0934 29.8411V29.7979C26.9923 29.6681 26.967 29.4779 26.8658 29.3395L26.4443 28.9243C26.0334 28.3662 25.5416 27.8762 24.9858 27.4712C24.539 27.1512 23.5526 26.7188 23.3671 26.1912L23.3418 26.1652C23.6537 26.1393 24.0163 26.0182 24.3113 25.9317C24.7919 25.802 25.2218 25.8279 25.7192 25.6982L26.3937 25.4992V25.3695C26.1408 25.11 25.9553 24.764 25.6939 24.5219C24.9773 23.8905 24.1933 23.2677 23.3755 22.7488C22.9372 22.4634 22.3807 22.2731 21.9171 22.0309C21.7484 21.9444 21.4702 21.9012 21.3691 21.7541C21.1161 21.4341 20.9728 21.019 20.7958 20.647L19.6408 18.1388C19.3879 17.5766 19.2361 17.0144 18.9242 16.4954C17.6222 14.2238 15.7426 12.3582 13.4865 11.0983C12.9638 10.7956 12.3484 10.6659 11.6908 10.5102L10.637 10.4496C10.4093 10.3458 10.1901 10.0777 9.9878 9.94799C9.1869 9.42904 7.12141 8.30464 6.61558 9.7923C6.2362 10.7264 7.18043 11.6519 7.50079 12.1276C7.73684 12.4563 8.04877 12.8368 8.21739 13.2087C8.31855 13.4509 8.34384 13.7104 8.44501 13.9699L9.17847 15.8986C9.33068 16.2086 9.5054 16.5064 9.70117 16.7895C9.81076 16.9452 10.0131 17.023 10.0552 17.2825C9.86135 17.5679 9.84448 18.0004 9.73489 18.3636C9.22905 19.9897 9.42296 22.0136 10.1396 23.2072C10.3672 23.5705 10.9826 24.3575 11.6149 24.0548C12.2472 23.7953 12.1039 22.9737 12.2893 22.2558C12.3315 22.0828 12.3062 21.9704 12.3905 21.8493V21.8752L12.9638 23.0688C13.4022 23.778 14.1609 24.5132 14.7932 24.9976C15.1304 25.2571 15.4002 25.7068 15.8218 25.8625V25.8193H15.7627C15.6784 25.6895 15.552 25.629 15.4424 25.5338C15.1753 25.2666 14.93 24.9773 14.7089 24.6689C14.1137 23.8416 13.5864 22.965 13.1324 22.0482C12.9048 21.5984 12.7109 21.1141 12.5254 20.6643C12.4411 20.4914 12.4411 20.2319 12.2978 20.1454C12.087 20.4654 11.7751 20.7335 11.6233 21.1227C11.3536 21.7455 11.3283 22.5066 11.2271 23.3023C10.7213 23.2158 10.5695 22.7401 10.4009 22.3336C9.97937 21.313 9.91193 19.6524 10.2744 18.4847C10.3756 18.182 10.7971 17.2306 10.6285 16.9452C10.5442 16.6684 10.266 16.5127 10.1058 16.2965C9.92036 16.0197 9.72646 15.6738 9.6 15.371C9.35551 14.558 9.10259 13.6585 8.74008 12.8541C8.57147 12.4822 8.2764 12.1016 8.03191 11.7557C7.77057 11.3578 7.4755 11.081 7.26473 10.6313C7.18886 10.4583 7.09612 10.1988 7.20572 10.0258C7.23101 9.91339 7.29002 9.87014 7.39962 9.83555C7.58509 9.67986 8.09936 9.87879 8.28483 9.96529C8.80753 10.1815 9.23748 10.3804 9.67587 10.6832C9.86978 10.8302 10.0805 11.0983 10.3335 11.1762H10.6285C11.0753 11.28 11.5812 11.2021 12.0027 11.3319C12.7446 11.574 13.419 11.9373 14.026 12.3265C15.8865 13.5433 17.3992 15.2445 18.4099 17.2566C18.5785 17.5852 18.646 17.8879 18.8062 18.2339L19.7588 20.353C20.0539 21.0276 20.3321 21.7195 20.7536 22.2817C20.9644 22.5845 21.8075 22.7401 22.1868 22.9045C22.465 23.0342 22.9034 23.1467 23.1563 23.311L24.5642 24.2883C24.7919 24.4613 25.4073 24.8246 25.5338 25.11L25.5422 25.1273Z" fill="#099DD2"/>
<path fill-rule="evenodd" clip-rule="evenodd" d="M11.2101 12.5947C10.9741 12.5947 10.8055 12.6207 10.6368 12.6639V12.6899H10.6621C10.7717 12.9234 10.9741 13.0791 11.109 13.278L11.4293 13.9699L11.4546 13.944C11.6485 13.797 11.7497 13.5721 11.7497 13.2261C11.6654 13.1223 11.6485 13.0272 11.5811 12.9234C11.4968 12.7764 11.3113 12.7072 11.2017 12.5947H11.2101Z" fill="#099DD2"/>
<path fill-rule="evenodd" clip-rule="evenodd" d="M85.7702 28.882H97.8596C99.276 28.882 100.625 28.5879 101.721 28.0603C103.55 27.1954 104.419 26.045 104.419 24.5314V21.3658C104.419 20.1549 103.424 18.9873 101.434 18.2002C100.289 17.7833 99.0829 17.5726 97.8681 17.5775H92.7929C91.0899 17.5775 90.289 17.0585 90.0614 15.8995C90.0276 15.7698 90.0276 15.6401 90.0276 15.5017V13.5556C90.0276 13.4518 90.0276 13.3221 90.0614 13.1923C90.289 12.3015 90.7358 12.068 92.2196 11.895H104.596V9.02344H92.8181C91.1152 9.02344 90.2047 9.12723 89.4122 9.3867C86.9336 10.1651 85.8461 11.4279 85.8461 13.6421V16.1504C85.8461 18.0964 87.9706 19.7484 91.5789 20.129C91.9667 20.1636 92.3798 20.1636 92.8013 20.1636H97.143C97.3116 20.1636 97.4634 20.1636 97.5898 20.1982C98.905 20.3279 99.4867 20.5615 99.8661 21.0631C100.119 21.3226 100.186 21.5561 100.186 21.8588V24.3671C100.186 24.6612 99.9926 25.059 99.5963 25.3877C99.2001 25.7164 98.6015 25.9499 97.7922 25.9931C97.6236 25.9931 97.5393 26.0277 97.3707 26.0277H85.7702V28.882ZM130.579 23.9C130.579 26.8408 132.737 28.4841 137.045 28.8128L138.267 28.882H149.193V26.0277H138.175C135.645 26.0277 134.802 25.405 134.802 23.8827V9.03209H130.587V23.9087L130.579 23.9ZM107.083 24.0298V13.8151C107.083 11.2203 108.878 9.62888 112.394 9.14453L113.515 9.07533H121.49C121.912 9.07533 122.266 9.10993 122.671 9.14453C126.178 9.63753 127.94 11.2203 127.94 13.8151V24.0384C127.94 26.1488 127.198 27.2732 125.461 28.0171L129.575 31.84H124.719L121.372 28.7436L118 28.9425H113.498C112.756 28.9425 111.922 28.856 110.969 28.6138C108.305 27.8527 106.981 26.3997 106.981 24.0298H107.083ZM111.618 23.8049C111.618 23.9346 111.686 24.0644 111.719 24.2374C111.947 25.4223 113.035 26.0796 114.704 26.0796H118.498L115.024 22.8448H119.88L122.932 25.6818C123.522 25.3531 123.859 24.886 123.994 24.2979C124.028 24.1682 124.028 24.0038 124.028 23.8654V14.0919C124.028 13.9621 124.028 13.8324 123.994 13.694C123.767 12.5696 122.679 11.9469 121.044 11.9469H114.721C112.866 11.9469 111.635 12.7685 111.635 14.0919L111.618 23.8049Z" fill="#DEA758"/>
<path fill-rule="evenodd" clip-rule="evenodd" d="M29.9684 28.8981H34.1499V11.9111L40.6752 26.7185C41.4171 28.5003 42.4793 29.1576 44.5364 29.1576C46.5934 29.1576 47.5882 28.5003 48.3638 26.7185L54.8554 11.9111V28.8981H59.0707V11.9111C59.0707 10.2678 58.4299 9.47204 57.081 9.03958C53.9027 8.05357 51.7698 8.90984 50.8087 11.1154L44.4015 25.7585L38.2303 11.1154C37.3029 8.90984 35.1447 8.05357 31.9327 9.03958C30.6175 9.47204 29.9684 10.2505 29.9684 11.9111V28.8981ZM62.5356 15.0767H66.7509V24.4178C66.7172 24.9368 66.9195 26.1304 69.2801 26.165H78.3176V15.0075H82.5329V30.2733C82.5329 34.0357 77.9973 34.8574 75.8728 34.892H62.6368V32.0205H75.9149C78.6127 31.7264 78.2923 30.3425 78.2923 29.8755V28.7511H69.3812C65.2334 28.7165 62.5693 26.8483 62.5356 24.686V15.0767Z" fill="#099DD2"/>
</svg>
