<svg width="96" height="63" viewBox="0 0 96 63" fill="none" xmlns="http://www.w3.org/2000/svg">
<path d="M46.9741 59.9607C46.6679 59.9607 46.3633 59.8787 46.0953 59.7194L43.2974 58.0208C42.8798 57.7808 43.0839 57.696 43.2215 57.6467C43.7788 57.4483 43.8916 57.4024 44.4865 57.0564C44.5484 57.0206 44.6306 57.0342 44.6946 57.0727L46.8438 58.3822C46.9219 58.4265 47.0318 58.4265 47.1033 58.3822L55.4828 53.4193C55.5608 53.3737 55.6107 53.2816 55.6107 53.1867V43.2637C55.6107 43.1666 55.5606 43.076 55.4807 43.0267L47.1048 38.0682C47.0276 38.0217 46.9246 38.0217 46.8466 38.0682L38.4728 43.0282C38.3914 43.076 38.3398 43.1697 38.3398 43.2637V53.1867C38.3398 53.2816 38.3912 53.3715 38.4719 53.4165L40.7674 54.7775C42.0129 55.4165 42.7754 54.6638 42.7754 53.9077V44.1102C42.7754 43.9718 42.884 43.8625 43.0189 43.8625H44.0815C44.2144 43.8625 44.3243 43.9718 44.3243 44.1102V53.9077C44.3243 55.6134 43.4191 56.5917 41.8432 56.5917C41.3589 56.5917 40.9776 56.5917 39.9131 56.0534L37.7158 54.7553C37.1732 54.4333 36.8369 53.8313 36.8369 53.1867V43.2637C36.8369 42.6191 37.173 42.0171 37.7158 41.6966L46.0953 36.7279C46.6255 36.4201 47.3303 36.4201 47.8563 36.7279L56.2351 41.6966C56.7778 42.0186 57.1152 42.6191 57.1152 43.2637V53.1867C57.1152 53.8313 56.7778 54.4311 56.2351 54.7553L47.8563 59.7197C47.5885 59.8787 47.2845 59.9607 46.9741 59.9607Z" fill="#699F63"/>
<path d="M49.562 53.1237C45.8952 53.1237 45.1271 51.3967 45.1271 49.9479C45.1271 49.8102 45.2349 49.7002 45.3694 49.7002H46.4527C46.5738 49.7002 46.6746 49.7895 46.6935 49.9109C46.8571 51.0426 47.3448 51.6138 49.5623 51.6138C51.3275 51.6138 52.079 51.204 52.079 50.243C52.079 49.689 51.8661 49.2777 49.1226 49.002C46.8301 48.7693 45.412 48.2495 45.412 46.3673C45.412 44.6323 46.837 43.5977 49.2264 43.5977C51.9108 43.5977 53.2392 44.5537 53.4074 46.6049C53.4137 46.6755 53.3893 46.7435 53.3434 46.7963C53.2975 46.8455 53.2335 46.8755 53.166 46.8755H52.0784C51.9658 46.8755 51.8661 46.7935 51.8433 46.6813C51.5824 45.4904 50.9479 45.1099 49.2264 45.1099C47.2991 45.1099 47.0751 45.7989 47.0751 46.315C47.0751 46.9405 47.3396 47.1225 49.9417 47.476C52.5168 47.8251 53.74 48.3199 53.74 50.1769C53.7396 52.0505 52.2173 53.1237 49.562 53.1237Z" fill="#699F63"/>
<path d="M61.6457 42.7181C61.6457 43.6298 60.9192 44.3752 60.0305 44.3752C59.15 44.3752 58.4153 43.6386 58.4153 42.7181C58.4153 41.7799 59.1676 41.0605 60.0305 41.0605C60.9024 41.0605 61.6457 41.7799 61.6457 42.7181ZM58.6761 42.7133C58.6761 43.4852 59.2828 44.1078 60.0261 44.1078C60.7784 44.1078 61.3853 43.472 61.3853 42.7133C61.3853 41.9419 60.7702 41.3281 60.0261 41.3281C59.2912 41.3283 58.6761 41.9329 58.6761 42.7133ZM59.4236 41.7885H60.0479C60.2615 41.7885 60.6804 41.7885 60.6804 42.2796C60.6804 42.6216 60.4669 42.6916 60.338 42.7355C60.5864 42.7531 60.6032 42.9197 60.6372 43.1565C60.6546 43.3054 60.6804 43.5598 60.7312 43.6474H60.3471C60.338 43.5601 60.2783 43.0863 60.2783 43.0603C60.2533 42.9548 60.2185 42.9025 60.0905 42.9025H59.7745V43.6474H59.4238V41.7885H59.4236ZM59.7659 42.6038H60.0477C60.278 42.6038 60.3213 42.4374 60.3213 42.341C60.3213 42.0864 60.1501 42.0864 60.0561 42.0864H59.7659V42.6038Z" fill="#699F63"/>
<path d="M21.0258 21.1382C21.0258 20.7419 20.8226 20.3777 20.4893 20.1814L11.6054 14.9351C11.4552 14.8445 11.2868 14.7974 11.1163 14.79C11.1009 14.79 11.037 14.79 11.0244 14.79C10.8547 14.7971 10.6863 14.8443 10.5338 14.9351L1.64987 20.1814C1.31867 20.3777 1.1127 20.7419 1.1127 21.1382L1.13221 35.2651C1.13221 35.4613 1.23163 35.6443 1.40006 35.7405C1.56492 35.8419 1.7688 35.8419 1.93303 35.7405L7.21283 32.6381C7.54675 32.4347 7.74999 32.0755 7.74999 31.6829V25.0828C7.74999 24.6893 7.95303 24.3251 8.28569 24.1297L10.5338 22.8011C10.7014 22.7018 10.8845 22.6532 11.0716 22.6532C11.2545 22.6532 11.4424 22.7018 11.6052 22.8011L13.8526 24.1297C14.1853 24.3253 14.3892 24.6895 14.3892 25.0828V31.6829C14.3892 32.0755 14.5951 32.4369 14.927 32.6381L20.2053 35.7405C20.3708 35.8419 20.5776 35.8419 20.7418 35.7405C20.9054 35.6441 21.0084 35.4613 21.0084 35.2651L21.0258 21.1382Z" fill="white"/>
<path d="M63.7728 1.7181C63.6065 1.62318 63.4036 1.62533 63.2394 1.72412C63.0756 1.82313 62.9747 2.00371 62.9747 2.19893V16.1892C62.9747 16.3267 62.903 16.4541 62.7872 16.523C62.671 16.5919 62.5277 16.5919 62.4113 16.523L60.1863 15.2075C59.8543 15.0112 59.4459 15.0116 59.1141 15.2079L50.2266 20.471C49.8944 20.6677 49.6898 21.0313 49.6898 21.4245V31.9529C49.6898 32.3464 49.8944 32.7097 50.2264 32.9068L59.1134 38.1738C59.4457 38.3705 59.8547 38.3705 60.1869 38.1738L69.0753 32.9068C69.4073 32.7099 69.6118 32.3464 69.6118 31.9529V5.70811C69.6118 5.30907 69.4014 4.9408 69.0614 4.74623L63.7728 1.7181ZM62.9483 28.4937C62.9483 28.5918 62.8971 28.6829 62.814 28.7317L59.7626 30.5367C59.6798 30.5855 59.5776 30.5855 59.4948 30.5367L56.4433 28.7317C56.3603 28.6829 56.3091 28.5918 56.3091 28.4937V24.8779C56.3091 24.7798 56.3603 24.6888 56.4431 24.6395L59.4946 22.8309C59.5776 22.7816 59.68 22.7816 59.763 22.8309L62.8145 24.6395C62.8973 24.6888 62.9485 24.7798 62.9485 24.8779L62.9483 28.4937Z" fill="white"/>
<path d="M93.3664 24.7839C93.697 24.5869 93.9005 24.2241 93.9005 23.8317V21.2803C93.9005 20.8879 93.697 20.5248 93.366 20.3279L84.5358 15.0669C84.2036 14.8687 83.7933 14.8685 83.4604 15.0654L74.5763 20.3285C74.2443 20.5253 74.0398 20.8886 74.0398 21.282V31.8076C74.0398 32.2034 74.2468 32.5687 74.5818 32.7643L83.4107 37.9267C83.7362 38.1174 84.1354 38.1196 84.463 37.9327L89.8032 34.887C89.9727 34.7903 90.0782 34.6078 90.079 34.4094C90.0805 34.2109 89.9775 34.0271 89.8097 33.9281L80.8692 28.6624C80.7022 28.5642 80.5997 28.3817 80.5997 28.1846V24.8859C80.5997 24.6892 80.7018 24.5071 80.8681 24.4089L83.6507 22.7628C83.8162 22.6647 84.0209 22.6647 84.1864 22.7628L86.9704 24.4089C87.1367 24.5071 87.2388 24.6892 87.2388 24.8859V27.4812C87.2388 27.6783 87.3416 27.8604 87.5077 27.9586C87.6741 28.0572 87.879 28.0563 88.0449 27.9575L93.3664 24.7839Z" fill="white"/>
<path d="M83.8674 24.2892C83.9312 24.2513 84.0097 24.2513 84.0734 24.2892L85.7791 25.2986C85.8428 25.3365 85.8821 25.406 85.8821 25.4818V27.5024C85.8821 27.5781 85.8428 27.6477 85.7791 27.6855L84.0734 28.695C84.0097 28.7329 83.9312 28.7329 83.8674 28.695L82.1631 27.6855C82.0993 27.6477 82.06 27.5781 82.06 27.5024V25.4818C82.06 25.406 82.0993 25.3365 82.1631 25.2986L83.8674 24.2892Z" fill="#699F63"/>
<path d="M35.892 15.1194C35.5618 14.9237 35.1549 14.9237 34.825 15.1194L25.9874 20.3526C25.6569 20.5482 25.4534 20.9096 25.4534 21.3013V31.7759C25.4534 32.1672 25.6569 32.5286 25.987 32.7247L34.8246 37.9622C35.1549 38.1578 35.5618 38.1578 35.8924 37.9622L44.7278 32.7247C45.058 32.5288 45.2612 32.1672 45.2612 31.7759V21.3009C45.2612 20.9096 45.0578 20.5482 44.7274 20.3526L35.892 15.1194Z" fill="url(#paint0_linear_7065_21875)"/>
<mask id="mask0_7065_21875" style="mask-type:luminance" maskUnits="userSpaceOnUse" x="25" y="14" width="21" height="25">
<path d="M35.8919 15.1184C35.5617 14.9228 35.1548 14.9228 34.8249 15.1184L25.9873 20.3516C25.6568 20.5473 25.4533 20.9086 25.4533 21.3004V31.775C25.4533 32.1663 25.6568 32.5276 25.9869 32.7237L34.8245 37.9612C35.1548 38.1569 35.5617 38.1569 35.8923 37.9612L44.7277 32.7237C45.0579 32.5278 45.2611 32.1663 45.2611 31.775V21.2999C45.2611 20.9086 45.0577 20.5473 44.7273 20.3516L35.8919 15.1184Z" fill="white"/>
</mask>
<g mask="url(#mask0_7065_21875)">
<path d="M44.7444 20.3513L35.8821 15.1181C35.7946 15.0662 35.7011 15.0292 35.6048 15.0049L25.6543 32.4716C25.7401 32.5706 25.8406 32.6569 25.9522 32.7232L34.8294 37.9607C35.0808 38.1096 35.3797 38.1445 35.6539 38.0666L44.982 20.5388C44.9111 20.4669 44.8316 20.403 44.7444 20.3513Z" fill="url(#paint1_linear_7065_21875)"/>
</g>
<mask id="mask1_7065_21875" style="mask-type:luminance" maskUnits="userSpaceOnUse" x="25" y="14" width="21" height="25">
<path d="M35.8919 15.1184C35.5617 14.9228 35.1548 14.9228 34.8249 15.1184L25.9873 20.3516C25.6568 20.5473 25.4533 20.9086 25.4533 21.3004V31.775C25.4533 32.1663 25.6568 32.5276 25.9869 32.7237L34.8245 37.9612C35.1548 38.1569 35.5617 38.1569 35.8923 37.9612L44.7277 32.7237C45.0579 32.5278 45.2611 32.1663 45.2611 31.775V21.2999C45.2611 20.9086 45.0577 20.5473 44.7273 20.3516L35.8919 15.1184Z" fill="white"/>
</mask>
<g mask="url(#mask1_7065_21875)">
<path d="M44.7497 32.7236C45.0073 32.5708 45.1994 32.3166 45.2722 32.0267L35.5573 14.9956C35.3037 14.9438 35.0346 14.9832 34.8062 15.1185L26.0034 20.3203L35.5128 38.0974C35.6485 38.0784 35.7815 38.0332 35.9032 37.9613L44.7497 32.7236Z" fill="url(#paint2_linear_7065_21875)"/>
<path d="M44.7501 32.7233L35.9036 37.9608C35.7819 38.0329 35.6489 38.0779 35.5132 38.0968L35.6894 38.4261L45.5155 32.5896V32.4521L45.2726 32.0264C45.1998 32.3163 45.0077 32.5703 44.7501 32.7233Z" fill="url(#paint3_linear_7065_21875)"/>
<path d="M44.7501 32.7233L35.9036 37.9608C35.7819 38.0329 35.6489 38.0779 35.5132 38.0968L35.6894 38.4261L45.5155 32.5896V32.4521L45.2726 32.0264C45.1998 32.3163 45.0077 32.5703 44.7501 32.7233Z" fill="url(#paint4_linear_7065_21875)"/>
</g>
<defs>
<linearGradient id="paint0_linear_7065_21875" x1="38.9505" y1="19.0168" x2="30.6288" y2="35.5604" gradientUnits="userSpaceOnUse">
<stop stop-color="#41873F"/>
<stop offset="0.3288" stop-color="#418B3D"/>
<stop offset="0.6352" stop-color="#419637"/>
<stop offset="0.9319" stop-color="#3FA92D"/>
<stop offset="1" stop-color="#3FAE2A"/>
</linearGradient>
<linearGradient id="paint1_linear_7065_21875" x1="34.0116" y1="27.7622" x2="56.8196" y2="11.34" gradientUnits="userSpaceOnUse">
<stop offset="0.1376" stop-color="#41873F"/>
<stop offset="0.4032" stop-color="#54A044"/>
<stop offset="0.7136" stop-color="#66B848"/>
<stop offset="0.9081" stop-color="#6CC04A"/>
</linearGradient>
<linearGradient id="paint2_linear_7065_21875" x1="25.1406" y1="26.5355" x2="45.5737" y2="26.5355" gradientUnits="userSpaceOnUse">
<stop offset="0.0919" stop-color="#6CC04A"/>
<stop offset="0.2864" stop-color="#66B848"/>
<stop offset="0.5968" stop-color="#54A044"/>
<stop offset="0.8624" stop-color="#41873F"/>
</linearGradient>
<linearGradient id="paint3_linear_7065_21875" x1="25.141" y1="35.2263" x2="45.5741" y2="35.2263" gradientUnits="userSpaceOnUse">
<stop offset="0.0919" stop-color="#6CC04A"/>
<stop offset="0.2864" stop-color="#66B848"/>
<stop offset="0.5968" stop-color="#54A044"/>
<stop offset="0.8624" stop-color="#41873F"/>
</linearGradient>
<linearGradient id="paint4_linear_7065_21875" x1="48.5509" y1="18.5199" x2="35.4162" y2="44.6318" gradientUnits="userSpaceOnUse">
<stop stop-color="#41873F"/>
<stop offset="0.3288" stop-color="#418B3D"/>
<stop offset="0.6352" stop-color="#419637"/>
<stop offset="0.9319" stop-color="#3FA92D"/>
<stop offset="1" stop-color="#3FAE2A"/>
</linearGradient>
</defs>
</svg>
