<svg width="154" height="46" viewBox="0 0 154 46" fill="none" xmlns="http://www.w3.org/2000/svg">
<path d="M54.5969 18.6928C54.5969 14.3682 53.369 12.148 50.913 12.0264C49.9358 11.9801 48.9817 12.1364 48.0535 12.4982C47.3127 12.7645 46.814 13.0279 46.5517 13.2942V23.6166C48.1227 24.6065 49.5179 25.0668 50.7343 24.9944C53.3084 24.8236 54.5969 22.725 54.5969 18.6928ZM57.6265 18.8722C57.6265 21.0693 57.1134 22.8929 56.0815 24.3431C54.9313 25.9844 53.3373 26.8296 51.2993 26.876C49.7629 26.9252 48.1804 26.4418 46.5517 25.4286V34.8102L43.9171 33.8665V13.0424C44.3494 12.5098 44.9058 12.0524 45.5803 11.6645C47.1484 10.7469 49.0538 10.2751 51.2964 10.252L51.3339 10.2896C53.3834 10.2635 54.963 11.1088 56.0728 12.8224C57.1076 14.3942 57.6265 16.4089 57.6265 18.8722Z" fill="white"/>
<path d="M73.7287 25.0292C73.7287 27.9759 73.4347 30.0167 72.8467 31.1514C72.2558 32.2861 71.1316 33.1921 69.4712 33.8665C68.1251 34.3992 66.6694 34.6886 65.107 34.7378L64.6717 33.0705C66.26 32.8534 67.3785 32.6363 68.027 32.4192C69.304 31.985 70.1803 31.3193 70.6617 30.4277C71.048 29.7011 71.2382 28.3146 71.2382 26.2623V25.5734C69.4366 26.3954 67.5485 26.8036 65.574 26.8036C64.2768 26.8036 63.1325 26.3954 62.1466 25.5734C61.0397 24.6789 60.4863 23.5442 60.4863 22.1692V11.158L63.1209 10.252V21.3356C63.1209 22.5195 63.5014 23.4313 64.2624 24.071C65.0234 24.7108 66.0093 25.0176 67.217 24.9944C68.4248 24.9684 69.7191 24.4994 71.0941 23.5818V10.6514H73.7287V25.0292Z" fill="white"/>
<path d="M84.0137 26.7317C83.6995 26.7578 83.4113 26.7694 83.1461 26.7694C81.6558 26.7694 80.4941 26.4133 79.6639 25.6983C78.8366 24.9834 78.4215 23.9963 78.4215 22.7371V12.3163H76.6171V10.6519H78.4215V6.23178L81.0533 5.29102V10.6519H84.0137V12.3163H81.0533V22.6647C81.0533 23.6576 81.3185 24.361 81.8489 24.772C82.3043 25.1107 83.0279 25.3047 84.0137 25.3539V26.7317Z" fill="white"/>
<path d="M99.9663 26.5148H97.3317V16.3024C97.3317 15.2633 97.0895 14.3688 96.6082 13.622C96.0518 12.7768 95.2793 12.3541 94.2877 12.3541C93.0799 12.3541 91.5694 12.9939 89.7563 14.2733V26.5148H87.1216V2.10417L89.7563 1.27051V12.3889C91.4397 11.1586 93.2788 10.5421 95.2764 10.5421C96.6716 10.5421 97.8015 11.0139 98.6663 11.9547C99.534 12.8954 99.9663 14.0678 99.9663 15.4688V26.5148Z" fill="white"/>
<path d="M113.969 18.2759C113.969 16.6144 113.655 15.2423 113.029 14.1568C112.286 12.834 111.13 12.1364 109.567 12.064C106.679 12.2319 105.238 14.3103 105.238 18.2933C105.238 20.1198 105.538 21.6453 106.143 22.8698C106.915 24.43 108.074 25.2 109.619 25.1739C112.519 25.1507 113.969 22.8524 113.969 18.2759ZM116.855 18.2933C116.855 20.6582 116.252 22.6266 115.05 24.1984C113.727 25.9583 111.899 26.8412 109.567 26.8412C107.256 26.8412 105.454 25.9583 104.154 24.1984C102.975 22.6266 102.387 20.6582 102.387 18.2933C102.387 16.0702 103.024 14.2003 104.298 12.6777C105.644 11.0625 107.414 10.252 109.602 10.252C111.79 10.252 113.571 11.0625 114.943 12.6777C116.217 14.2003 116.855 16.0702 116.855 18.2933Z" fill="white"/>
<path d="M131.959 26.5141H129.325V15.7229C129.325 14.5389 128.97 13.6155 128.261 12.9498C127.552 12.2869 126.606 11.9656 125.427 11.9916C124.176 12.0148 122.986 12.4258 121.856 13.2219V26.5141H119.221V12.8948C120.737 11.7861 122.133 11.0625 123.407 10.7238C124.609 10.4083 125.669 10.252 126.583 10.252C127.209 10.252 127.797 10.3127 128.35 10.4343C129.385 10.6746 130.227 11.1203 130.875 11.7745C131.599 12.4982 131.959 13.3666 131.959 14.3826V26.5141Z" fill="white"/>
<path d="M17.8954 2.20144C16.5399 2.20777 15.2454 2.32386 14.1063 2.52626C10.7508 3.12155 10.1416 4.36755 10.1416 6.66537V9.7001H18.071V10.7117H10.1416H7.16577C4.86126 10.7117 2.84337 12.1026 2.2122 14.7487C1.48416 17.7817 1.45186 19.6743 2.2122 22.8413C2.77585 25.1987 4.12193 26.8783 6.42643 26.8783H9.15274V23.2404C9.15274 20.6121 11.4172 18.2938 14.1063 18.2938H22.0265C24.2312 18.2938 25.9912 16.471 25.9912 14.2475V6.66537C25.9912 4.50744 24.1783 2.88641 22.0265 2.52626C20.6643 2.29856 19.251 2.19512 17.8954 2.20144ZM13.6073 4.64222C14.4263 4.64222 15.0952 5.32486 15.0952 6.16422C15.0952 7.00061 14.4263 7.67694 13.6073 7.67694C12.7853 7.67694 12.1193 7.00061 12.1193 6.16422C12.1193 5.32486 12.7853 4.64222 13.6073 4.64222Z" fill="url(#paint0_linear_7065_21910)"/>
<path d="M26.98 10.7119V14.2478C26.98 16.9891 24.6656 19.2964 22.0264 19.2964H14.1062C11.9368 19.2964 10.1415 21.1609 10.1415 23.3427V30.9249C10.1415 33.0828 12.0102 34.3521 14.1062 34.9712C16.6162 35.7123 19.0232 35.8462 22.0264 34.9712C24.0227 34.3908 25.9911 33.2227 25.9911 30.9249V27.8901H18.0709V26.8786H25.9911H29.9558C32.2603 26.8786 33.1191 25.2644 33.9205 22.8415C34.7484 20.3473 34.7132 17.9486 33.9205 14.7489C33.351 12.4452 32.2633 10.7119 29.9558 10.7119H26.98ZM22.5255 29.9133C23.3475 29.9133 24.0134 30.5896 24.0134 31.426C24.0134 32.2654 23.3475 32.948 22.5255 32.948C21.7064 32.948 21.0375 32.2654 21.0375 31.426C21.0375 30.5896 21.7064 29.9133 22.5255 29.9133Z" fill="url(#paint1_linear_7065_21910)"/>
<path d="M137.09 8.29313H137.552V5.38388H138.646V5.03711H135.995V5.38388H137.09V8.29313ZM139.055 8.29313H139.45V5.63607L140.307 8.29279H140.746L141.639 5.64508V8.29313H142.069V5.03711H141.5L140.524 7.82657L139.692 5.03711H139.055V8.29313Z" fill="white"/>
<path opacity="0.44382" d="M28.7866 40.1258C28.7866 40.3975 28.5118 40.6665 27.9778 40.9176C27.4437 41.1686 26.661 41.3967 25.6743 41.5889C24.6876 41.781 23.5162 41.9334 22.227 42.0374C20.9378 42.1414 19.556 42.1949 18.1605 42.1949C16.7651 42.1949 15.3833 42.1414 14.0941 42.0374C12.8049 41.9334 11.6335 41.781 10.6468 41.5889C9.66007 41.3967 8.87736 41.1686 8.34335 40.9176C7.80934 40.6665 7.53448 40.3975 7.53448 40.1258C7.53448 39.854 7.80934 39.585 8.34335 39.3339C8.87736 39.0829 9.66007 38.8548 10.6468 38.6627C11.6335 38.4705 12.8049 38.3181 14.0941 38.2141C15.3833 38.1102 16.7651 38.0566 18.1605 38.0566C19.556 38.0566 20.9378 38.1102 22.227 38.2141C23.5162 38.3181 24.6876 38.4705 25.6743 38.6627C26.661 38.8548 27.4437 39.0829 27.9778 39.3339C28.5118 39.585 28.7866 39.854 28.7866 40.1258Z" fill="url(#paint2_radial_7065_21910)"/>
<defs>
<linearGradient id="paint0_linear_7065_21910" x1="1.65399" y1="2.20117" x2="20.0027" y2="17.7715" gradientUnits="userSpaceOnUse">
<stop stop-color="#5A9FD4"/>
<stop offset="1" stop-color="#306998"/>
</linearGradient>
<linearGradient id="paint1_linear_7065_21910" x1="22.3349" y1="31.1709" x2="15.7387" y2="21.9663" gradientUnits="userSpaceOnUse">
<stop stop-color="#FFD43B"/>
<stop offset="1" stop-color="#FFE873"/>
</linearGradient>
<radialGradient id="paint2_radial_7065_21910" cx="0" cy="0" r="1" gradientUnits="userSpaceOnUse" gradientTransform="translate(18.1605 40.1258) rotate(-90) scale(2.06913 9.05669)">
<stop stop-color="#B8B8B8" stop-opacity="0.498039"/>
<stop offset="1" stop-color="#7F7F7F" stop-opacity="0"/>
</radialGradient>
</defs>
</svg>
