<svg width="161" height="80" viewBox="0 0 161 80" fill="none" xmlns="http://www.w3.org/2000/svg">
<path d="M49.9451 57.8692C49.5886 57.8934 49.2356 57.7867 48.9521 57.5691C48.8354 57.4626 48.7439 57.3314 48.6842 57.1851C48.6245 57.0388 48.5982 56.881 48.6072 56.7232V55.5542C48.6135 55.4545 48.5817 55.3562 48.5181 55.2791C48.4852 55.2453 48.4454 55.2189 48.4014 55.2016C48.3575 55.1844 48.3104 55.1767 48.2632 55.1792H48.0352V54.2842H48.2632C48.3104 54.2868 48.3576 54.2793 48.4016 54.2621C48.4456 54.2448 48.4853 54.2182 48.5181 54.1842C48.5807 54.1082 48.6125 54.0115 48.6072 53.9132V52.6592C48.5982 52.5014 48.6245 52.3436 48.6842 52.1972C48.7439 52.0509 48.8354 51.9197 48.9521 51.8131C49.2356 51.5955 49.5886 51.4889 49.9451 51.5132H50.3002V52.4062H49.9451C49.9086 52.4036 49.872 52.4087 49.8376 52.4211C49.8032 52.4335 49.7717 52.4529 49.7452 52.4781C49.6957 52.5369 49.6706 52.6125 49.6752 52.6892V53.8232C49.6785 54.0066 49.6384 54.1882 49.5582 54.3531C49.4833 54.505 49.3681 54.6334 49.2252 54.7242C49.3682 54.8013 49.4844 54.9203 49.5582 55.0652C49.6372 55.2199 49.6773 55.3915 49.6752 55.5652V56.6931C49.6713 56.7682 49.6964 56.842 49.7452 56.8991C49.7715 56.9249 49.8028 56.9449 49.8372 56.9578C49.8717 56.9707 49.9084 56.9763 49.9451 56.9742H50.3002V57.8692H49.9451Z" fill="white"/>
<path d="M113.476 56.4535C113.707 56.4561 113.935 56.3948 114.133 56.2765C114.328 56.1608 114.488 55.9955 114.598 55.7975C114.709 55.5859 114.767 55.3505 114.767 55.1115C114.767 54.8725 114.709 54.6371 114.598 54.4255C114.488 54.2281 114.327 54.0633 114.133 53.9475C113.986 53.859 113.822 53.8012 113.652 53.7773C113.482 53.7535 113.309 53.7642 113.143 53.8088C112.977 53.8535 112.822 53.931 112.686 54.037C112.551 54.1429 112.438 54.2751 112.355 54.4255C112.246 54.6377 112.189 54.8729 112.189 55.1115C112.189 55.3501 112.246 55.5853 112.355 55.7975C112.464 55.9989 112.626 56.1666 112.824 56.2822C113.022 56.3979 113.247 56.4571 113.476 56.4535ZM113.416 57.0845C113.067 57.0894 112.724 56.9995 112.422 56.8245C112.129 56.6562 111.887 56.4115 111.722 56.1165C111.554 55.807 111.466 55.4603 111.466 55.108C111.466 54.7557 111.554 54.409 111.722 54.0995C111.889 53.8081 112.128 53.5648 112.416 53.3935C112.717 53.2175 113.061 53.128 113.41 53.1345C113.711 53.1288 114.009 53.1974 114.277 53.3345C114.519 53.4592 114.723 53.6451 114.87 53.8735L114.761 54.0345V51.6895H115.444V57.0025H114.783V56.1945L114.869 56.3075C114.738 56.557 114.531 56.7589 114.278 56.8845C114.011 57.0176 113.715 57.0848 113.416 57.0805V57.0845ZM107.416 57.0005V53.2195H108.085V53.9535L107.976 53.8905C108.067 53.6577 108.232 53.4612 108.446 53.3315C108.675 53.1945 108.938 53.1251 109.204 53.1315C109.467 53.127 109.726 53.19 109.957 53.3145C110.174 53.4329 110.354 53.6073 110.48 53.8195C110.61 54.0407 110.676 54.2932 110.672 54.5495V56.9985H109.988V54.7605C109.993 54.5754 109.954 54.3918 109.872 54.2255C109.796 54.0837 109.681 53.9669 109.54 53.8895C109.389 53.8107 109.221 53.7696 109.05 53.7696C108.88 53.7696 108.712 53.8107 108.56 53.8895C108.418 53.9686 108.3 54.0865 108.222 54.2295C108.136 54.3928 108.093 54.5758 108.098 54.7605V56.9985L107.416 57.0005ZM104.395 57.0845C104.161 57.0891 103.928 57.0424 103.713 56.9475C103.526 56.8673 103.365 56.7364 103.248 56.5695C103.136 56.4055 103.078 56.211 103.081 56.0125C103.078 55.8218 103.126 55.6337 103.219 55.4675C103.323 55.2952 103.47 55.1532 103.646 55.0555C103.87 54.933 104.114 54.8527 104.366 54.8185L105.811 54.5855V55.1345L104.517 55.3505C104.316 55.371 104.125 55.4507 103.969 55.5795C103.914 55.6321 103.87 55.6957 103.84 55.7664C103.811 55.837 103.797 55.913 103.798 55.9895C103.798 56.0645 103.815 56.1386 103.848 56.2057C103.882 56.2728 103.931 56.331 103.991 56.3755C104.129 56.4822 104.299 56.5371 104.473 56.5305C104.698 56.5362 104.92 56.4842 105.118 56.3795C105.294 56.2834 105.44 56.1417 105.541 55.9694C105.643 55.797 105.696 55.6005 105.695 55.4005V54.4315C105.697 54.336 105.677 54.2412 105.637 54.1545C105.597 54.0679 105.538 53.9916 105.463 53.9315C105.287 53.7955 105.068 53.727 104.845 53.7385C104.636 53.7347 104.43 53.7929 104.254 53.9055C104.088 54.0114 103.955 54.1622 103.871 54.3405L103.285 54.0465C103.363 53.8656 103.482 53.7054 103.633 53.5785C103.799 53.4371 103.988 53.3267 104.193 53.2525C104.406 53.1726 104.632 53.1319 104.86 53.1325C105.134 53.127 105.405 53.1834 105.653 53.2975C105.871 53.3973 106.055 53.5564 106.186 53.7565C106.315 53.9576 106.382 54.1925 106.378 54.4315V56.9995H105.717V56.2835L105.841 56.3335C105.755 56.4833 105.64 56.615 105.504 56.7215C105.358 56.8395 105.191 56.9296 105.012 56.9875C104.813 57.0518 104.604 57.0832 104.394 57.0805L104.395 57.0845ZM97.2602 57.0845C96.8991 57.0933 96.5435 56.996 96.2372 56.8045C95.9528 56.6254 95.7333 56.3597 95.6113 56.0465L96.1572 55.7945C96.2594 56.0099 96.4176 56.194 96.6152 56.3275C96.8049 56.4588 97.0304 56.5286 97.2612 56.5275C97.4465 56.5335 97.6292 56.4822 97.7842 56.3805C97.8492 56.3393 97.9025 56.2823 97.9393 56.2147C97.976 56.1472 97.9949 56.0714 97.9942 55.9945C97.9977 55.8949 97.9618 55.7978 97.8942 55.7245C97.8274 55.6566 97.7483 55.602 97.6612 55.5635C97.5776 55.5258 97.4905 55.4963 97.4012 55.4755L96.8143 55.3145C96.5232 55.2533 96.2564 55.108 96.0472 54.8965C95.8879 54.7205 95.8008 54.4909 95.8032 54.2535C95.7986 54.0437 95.8614 53.838 95.9822 53.6665C96.1071 53.4956 96.2751 53.361 96.4692 53.2765C96.6878 53.1807 96.9246 53.1334 97.1633 53.1375C97.4895 53.1325 97.8104 53.2198 98.0892 53.3895C98.3582 53.553 98.5644 53.8024 98.6743 54.0975L98.1223 54.3445C98.0401 54.1546 97.9033 53.9934 97.7292 53.8815C97.5537 53.7684 97.3489 53.7096 97.1402 53.7125C96.9713 53.7037 96.8047 53.7535 96.6683 53.8535C96.6125 53.8961 96.5675 53.9512 96.537 54.0145C96.5066 54.0777 96.4916 54.1473 96.4932 54.2175C96.4891 54.3112 96.5206 54.403 96.5812 54.4745C96.6377 54.5419 96.7098 54.5944 96.7912 54.6275C96.8698 54.6619 96.9502 54.6919 97.0322 54.7175L97.6702 54.9005C97.9518 54.9679 98.2097 55.1106 98.4162 55.3135C98.5704 55.4796 98.6627 55.6937 98.6777 55.9199C98.6926 56.1461 98.6293 56.3705 98.4982 56.5555C98.3702 56.7288 98.1973 56.864 97.9982 56.9465C97.7638 57.0416 97.5122 57.0873 97.2592 57.0805L97.2602 57.0845ZM93.3062 57.0005V53.2195H93.9753V53.9135L93.9033 53.8135C93.9857 53.6102 94.1344 53.4408 94.3253 53.3325C94.538 53.222 94.7755 53.1679 95.0152 53.1755H95.2532V53.7995H94.9112C94.7893 53.7941 94.6677 53.8129 94.5532 53.855C94.4387 53.897 94.3336 53.9615 94.2442 54.0445C94.1559 54.1374 94.0878 54.2476 94.0439 54.368C94 54.4884 93.9814 54.6166 93.9892 54.7445V56.9965H93.3062V57.0005ZM90.6552 57.0845C90.3004 57.0899 89.9506 57.0001 89.6423 56.8245C89.3482 56.6556 89.106 56.4094 88.9422 56.1125C88.7696 55.8031 88.6816 55.4537 88.6872 55.0995C88.6802 54.7457 88.7683 54.3966 88.9422 54.0885C89.1046 53.7997 89.3397 53.5584 89.6242 53.3885C89.8885 53.2401 90.183 53.1535 90.4855 53.1351C90.7881 53.1168 91.091 53.1671 91.3713 53.2825C91.5876 53.3781 91.7826 53.5158 91.9453 53.6875C92.1028 53.8569 92.2267 54.0548 92.3102 54.2705C92.3941 54.4867 92.4365 54.7166 92.4352 54.9485C92.435 55.007 92.4316 55.0654 92.4252 55.1235C92.4192 55.1845 92.4112 55.2445 92.4002 55.3065H89.1882V54.7375H92.0073L91.6793 54.9905C91.7313 54.7718 91.7091 54.5421 91.6163 54.3375C91.5268 54.1493 91.3851 53.9907 91.2082 53.8805C91.0252 53.7681 90.8139 53.7102 90.5992 53.7135C90.3782 53.711 90.161 53.7709 89.9726 53.8864C89.7842 54.0019 89.6322 54.1684 89.5342 54.3665C89.4257 54.5957 89.3814 54.8501 89.4062 55.1025C89.3831 55.3531 89.4302 55.6051 89.5422 55.8305C89.6458 56.0343 89.8078 56.2028 90.0073 56.3145C90.2066 56.4287 90.4325 56.4881 90.6622 56.4865C90.8956 56.4947 91.1263 56.4337 91.3253 56.3115C91.5022 56.1961 91.6509 56.0423 91.7602 55.8615L92.3262 56.1435C92.2434 56.3254 92.1207 56.4864 91.9672 56.6145C91.7968 56.762 91.6009 56.8771 91.3892 56.9545C91.154 57.0412 90.9049 57.0839 90.6542 57.0805L90.6552 57.0845ZM82.2122 57.0005V53.2195H82.8812V53.9915L82.7872 53.8775C82.8752 53.6453 83.039 53.4497 83.2522 53.3225C83.4702 53.1953 83.7188 53.1299 83.9712 53.1335C84.2648 53.1301 84.5526 53.2151 84.7972 53.3775C85.0311 53.5312 85.2071 53.7585 85.2972 54.0235L85.1082 54.0315C85.1958 53.7532 85.3789 53.5149 85.6252 53.3585C85.8648 53.2083 86.1424 53.1295 86.4252 53.1315C86.6832 53.1279 86.9377 53.191 87.1642 53.3145C87.3858 53.4351 87.57 53.614 87.6971 53.8319C87.8242 54.0498 87.8892 54.2983 87.8852 54.5505V56.9995H87.2032V54.7535C87.2083 54.5684 87.1685 54.3849 87.0872 54.2185C87.0136 54.0788 86.9024 53.9624 86.7662 53.8825C86.6249 53.8011 86.4642 53.7597 86.3012 53.7625C86.1373 53.7599 85.9756 53.8013 85.8332 53.8825C85.6942 53.9629 85.5806 54.0807 85.5052 54.2225C85.4214 54.3866 85.3804 54.5693 85.3862 54.7535V56.9915H84.7032V54.7535C84.7087 54.5685 84.6693 54.3849 84.5882 54.2185C84.5154 54.0795 84.4057 53.9632 84.2712 53.8825C84.1293 53.8008 83.9679 53.7593 83.8042 53.7625C83.6406 53.7601 83.4794 53.8016 83.3372 53.8825C83.1983 53.9627 83.0849 54.0805 83.0102 54.2225C82.9251 54.3862 82.8832 54.569 82.8882 54.7535V56.9915H82.2032L82.2122 57.0005ZM75.5792 57.0005V53.2195H76.2482V53.9915L76.1542 53.8775C76.2426 53.6456 76.4064 53.4502 76.6192 53.3225C76.8372 53.1953 77.0858 53.1299 77.3382 53.1335C77.6318 53.13 77.9197 53.2151 78.1642 53.3775C78.3977 53.5317 78.5735 53.7588 78.6642 54.0235L78.4742 54.0315C78.5618 53.7532 78.7449 53.5149 78.9912 53.3585C79.2323 53.2074 79.5117 53.1286 79.7962 53.1315C80.0542 53.1279 80.3087 53.191 80.5352 53.3145C80.7563 53.4356 80.9402 53.6147 81.067 53.8325C81.1939 54.0502 81.259 54.2985 81.2552 54.5505V56.9995H80.5732V54.7535C80.5786 54.5685 80.5391 54.3849 80.4582 54.2185C80.3844 54.0789 80.2733 53.9626 80.1372 53.8825C79.9959 53.8011 79.8352 53.7597 79.6722 53.7625C79.5086 53.76 79.3473 53.8015 79.2052 53.8825C79.0662 53.963 78.9526 54.0807 78.8772 54.2225C78.7937 54.3867 78.7528 54.5693 78.7582 54.7535V56.9915H78.0752V54.7535C78.0806 54.5685 78.0412 54.3849 77.9602 54.2185C77.8875 54.0795 77.7778 53.9632 77.6432 53.8825C77.5011 53.8006 77.3393 53.7591 77.1752 53.7625C77.0116 53.7601 76.8503 53.8015 76.7082 53.8825C76.5691 53.9628 76.4555 54.0806 76.3802 54.2225C76.296 54.3865 76.2544 54.5691 76.2592 54.7535V56.9915H75.5762L75.5792 57.0005ZM72.5582 57.0845C72.3236 57.089 72.0909 57.0423 71.8762 56.9475C71.689 56.8673 71.528 56.7364 71.4112 56.5695C71.2994 56.4055 71.2411 56.211 71.2442 56.0125C71.241 55.8218 71.2886 55.6337 71.3822 55.4675C71.486 55.2951 71.6333 55.1531 71.8092 55.0555C72.0326 54.933 72.2767 54.8526 72.5292 54.8185L73.9742 54.5855V55.1345L72.6802 55.3505C72.4792 55.3709 72.2888 55.4506 72.1332 55.5795C72.0777 55.6321 72.0338 55.6957 72.0043 55.7664C71.9749 55.837 71.9605 55.913 71.9622 55.9895C71.9616 56.0645 71.9788 56.1386 72.0123 56.2057C72.0459 56.2728 72.0948 56.331 72.1552 56.3755C72.2927 56.4822 72.4633 56.5371 72.6372 56.5305C72.8616 56.5362 73.0837 56.4842 73.2822 56.3795C73.4577 56.2835 73.6039 56.1418 73.7055 55.9694C73.8071 55.7971 73.8602 55.6005 73.8592 55.4005V54.4315C73.8613 54.3359 73.8414 54.2411 73.801 54.1544C73.7606 54.0677 73.7008 53.9914 73.6262 53.9315C73.4499 53.7954 73.2307 53.7269 73.0082 53.7385C72.7991 53.7348 72.5935 53.7929 72.4172 53.9055C72.251 54.0114 72.1182 54.1622 72.0342 54.3405L71.4472 54.0465C71.5254 53.8656 71.6445 53.7054 71.7952 53.5785C71.9608 53.4371 72.1505 53.3267 72.3552 53.2525C72.5685 53.1725 72.7945 53.1319 73.0222 53.1325C73.2956 53.127 73.5667 53.1834 73.8152 53.2975C74.0326 53.3973 74.2173 53.5564 74.3482 53.7565C74.4773 53.9576 74.5441 54.1925 74.5402 54.4315V56.9995H73.8792V56.2835L74.0032 56.3335C73.9167 56.4832 73.8023 56.6149 73.6662 56.7215C73.5198 56.8395 73.3531 56.9296 73.1742 56.9875C72.9752 57.0513 72.7672 57.0827 72.5582 57.0805V57.0845ZM68.8582 57.0005V53.2195H69.5272V53.9135L69.4552 53.8135C69.5378 53.6102 69.6864 53.4408 69.8772 53.3325C70.09 53.222 70.3275 53.1679 70.5672 53.1755H70.8062V53.7995H70.4642C70.3424 53.7941 70.2206 53.8129 70.1061 53.855C69.9916 53.897 69.8866 53.9615 69.7972 54.0445C69.709 54.1374 69.6408 54.2476 69.5969 54.368C69.5531 54.4884 69.5344 54.6166 69.5422 54.7445V56.9965H68.8592L68.8582 57.0005ZM65.8952 56.2785C66.1162 56.2819 66.3338 56.2234 66.5232 56.1095C66.708 55.9982 66.8618 55.842 66.9702 55.6555C67.0795 55.463 67.137 55.2454 67.137 55.024C67.137 54.8026 67.0795 54.585 66.9702 54.3925C66.8619 54.2067 66.7081 54.0514 66.5232 53.9415C66.3337 53.8277 66.1162 53.7692 65.8952 53.7725C65.6737 53.7696 65.4553 53.8253 65.2622 53.9338C65.0691 54.0423 64.908 54.1998 64.7952 54.3905C64.6847 54.5819 64.6277 54.7995 64.6302 55.0205C64.6282 55.1868 64.6595 55.3517 64.7224 55.5057C64.7853 55.6596 64.8784 55.7994 64.9963 55.9167C65.1141 56.034 65.2543 56.1265 65.4086 56.1886C65.5628 56.2507 65.7289 56.2813 65.8952 56.2785ZM65.9462 58.5445C65.6855 58.547 65.4264 58.5044 65.1802 58.4185C64.9601 58.3414 64.7564 58.2233 64.5802 58.0705C64.4169 57.9285 64.2862 57.7528 64.1972 57.5555L64.8292 57.2755C64.9071 57.4645 65.0434 57.6235 65.2182 57.7295C65.4342 57.8594 65.6834 57.9236 65.9352 57.9145C66.1434 57.9172 66.3497 57.8752 66.5402 57.7915C66.7251 57.7128 66.8815 57.5796 66.9887 57.4097C67.0959 57.2398 67.1487 57.0412 67.1402 56.8405V55.9905L67.2572 56.1155C67.1283 56.3671 66.9256 56.5733 66.6762 56.7065C66.4159 56.8423 66.1258 56.9111 65.8322 56.9065C65.4893 56.9111 65.1513 56.8252 64.8522 56.6575C64.5664 56.4969 64.3293 56.2619 64.1662 55.9775C64.0015 55.6845 63.915 55.3541 63.915 55.018C63.915 54.6819 64.0015 54.3514 64.1662 54.0585C64.33 53.7762 64.5652 53.5421 64.8482 53.3795C65.1484 53.211 65.488 53.125 65.8322 53.1305C66.1207 53.1263 66.4055 53.1951 66.6602 53.3305C66.9046 53.4599 67.1113 53.6504 67.2602 53.8835L67.1662 54.0585V53.2165H67.8272V56.8375C67.8319 57.1465 67.7491 57.4506 67.5882 57.7145C67.4254 57.9731 67.1956 58.1829 66.9232 58.3215C66.6206 58.4717 66.2861 58.5466 65.9482 58.5395L65.9462 58.5445ZM61.1882 56.4535C61.4189 56.4573 61.6462 56.3977 61.8453 56.2811C62.0444 56.1646 62.2076 55.9955 62.3172 55.7925C62.4323 55.5816 62.4912 55.3447 62.4882 55.1045C62.4915 54.8668 62.4325 54.6324 62.3172 54.4245C62.2063 54.2232 62.0426 54.0559 61.8436 53.9409C61.6447 53.8258 61.418 53.7672 61.1882 53.7715C60.9567 53.7681 60.7286 53.8287 60.5292 53.9465C60.3347 54.0626 60.1738 54.2274 60.0622 54.4245C59.9438 54.6313 59.8834 54.8662 59.8872 55.1045C59.8836 55.3453 59.9439 55.5827 60.0622 55.7925C60.1724 55.9922 60.3336 56.1592 60.5292 56.2765C60.7284 56.395 60.9565 56.4563 61.1882 56.4535ZM61.1882 57.0845C60.8326 57.0888 60.482 57.0003 60.1712 56.8275C59.9435 56.6963 59.744 56.5214 59.5839 56.313C59.4239 56.1046 59.3064 55.8667 59.2383 55.6129C59.1703 55.3591 59.1529 55.0943 59.1872 54.8338C59.2215 54.5733 59.3068 54.322 59.4382 54.0945C59.6155 53.8025 59.8652 53.5614 60.1632 53.3945C60.4762 53.2196 60.8297 53.1303 61.1882 53.1355C61.5484 53.1303 61.9037 53.2189 62.2192 53.3925C62.5256 53.5598 62.7798 53.8085 62.9538 54.1111C63.1278 54.4138 63.2148 54.7585 63.2052 55.1075C63.2117 55.4677 63.116 55.8224 62.9292 56.1305C62.7506 56.4228 62.4995 56.6639 62.2002 56.8305C61.8905 57.0007 61.5416 57.0869 61.1882 57.0805V57.0845ZM56.7832 57.0005V53.2195H57.4522V53.9135L57.3802 53.8135C57.4627 53.6102 57.6114 53.4408 57.8022 53.3325C58.015 53.222 58.2526 53.1679 58.4922 53.1755H58.7312V53.7995H58.3882C58.2664 53.7939 58.1445 53.8126 58.03 53.8547C57.9154 53.8967 57.8104 53.9613 57.7212 54.0445C57.6329 54.1374 57.5647 54.2475 57.5208 54.3679C57.4769 54.4884 57.4584 54.6166 57.4662 54.7445V56.9965H56.7822L56.7832 57.0005ZM101.435 51.6875H102.135V57.0005H101.435V51.6875Z" fill="white"/>
<path d="M54.1491 53.7571C53.918 53.7545 53.6906 53.8158 53.4921 53.9341C53.2973 54.0497 53.1368 54.215 53.0271 54.4131C52.916 54.6249 52.858 54.8605 52.858 55.0997C52.858 55.3388 52.916 55.5743 53.0271 55.7861C53.1373 55.9834 53.2977 56.1479 53.4921 56.2631C53.6394 56.3513 53.8029 56.4091 53.9729 56.4328C54.1429 56.4565 54.316 56.4458 54.4818 56.4013C54.6475 56.3568 54.8027 56.2794 54.9379 56.1737C55.0732 56.068 55.1858 55.9362 55.2691 55.7861C55.3789 55.5739 55.4362 55.3386 55.4362 55.0997C55.4362 54.8608 55.3789 54.6253 55.2691 54.4131C55.1602 54.2119 54.9982 54.0443 54.8008 53.9286C54.6033 53.813 54.3779 53.7537 54.1491 53.7571ZM54.2091 53.1262C54.5583 53.1214 54.9022 53.2116 55.2041 53.3871C55.497 53.5557 55.7389 53.8004 55.9041 54.0952C56.0724 54.4048 56.1606 54.7517 56.1606 55.1041C56.1606 55.4566 56.0724 55.8035 55.9041 56.1132C55.7378 56.4046 55.4987 56.6478 55.2101 56.8191C54.9084 56.9949 54.5643 57.0845 54.2151 57.0781C53.9141 57.0839 53.6163 57.0152 53.3481 56.8781C53.1069 56.7532 52.9025 56.5674 52.7551 56.3391L52.8641 56.1782V58.5231H52.1812V53.2061H52.8421V54.0131L52.7551 53.9001C52.8867 53.6506 53.0935 53.4487 53.3461 53.3231C53.6136 53.1896 53.9102 53.1221 54.2091 53.1262Z" fill="white"/>
<path d="M117.258 57.8691V56.9781H117.615C117.651 56.9799 117.688 56.9743 117.722 56.9616C117.757 56.9489 117.788 56.9293 117.815 56.9041C117.864 56.8468 117.89 56.7726 117.886 56.6971V55.5691C117.884 55.3954 117.924 55.2238 118.003 55.0691C118.076 54.9245 118.192 54.8056 118.334 54.7281C118.191 54.6372 118.077 54.5089 118.003 54.3571C117.923 54.1921 117.883 54.0105 117.886 53.8271V52.6931C117.891 52.6162 117.865 52.5404 117.815 52.4821C117.788 52.4571 117.757 52.4378 117.722 52.4254C117.688 52.413 117.651 52.4078 117.615 52.4101H117.258V51.5171H117.615C117.971 51.4928 118.324 51.5995 118.608 51.817C118.725 51.9235 118.816 52.0548 118.876 52.2011C118.936 52.3475 118.962 52.5053 118.953 52.6631V53.9221C118.95 53.9712 118.956 54.0203 118.972 54.0668C118.988 54.1133 119.013 54.1562 119.046 54.1931C119.077 54.2267 119.116 54.253 119.159 54.2703C119.202 54.2876 119.248 54.2953 119.294 54.2931H119.522V55.1781H119.294C119.248 55.1762 119.202 55.1841 119.159 55.2014C119.116 55.2186 119.078 55.2447 119.046 55.278C119.013 55.3155 118.988 55.3591 118.972 55.4063C118.956 55.4535 118.949 55.5034 118.953 55.5531V56.7221C118.962 56.8799 118.935 57.0377 118.876 57.184C118.816 57.3303 118.725 57.4615 118.608 57.5681C118.324 57.7856 117.971 57.8923 117.615 57.8681L117.258 57.8691Z" fill="white"/>
<path d="M113.898 35.4446C114.935 35.4446 115.821 36.1386 115.821 37.6906V37.9806H118.271V37.3266C118.295 36.7807 118.186 36.2371 117.955 35.7422C117.723 35.2473 117.375 34.8158 116.94 34.4846C116.054 33.7951 114.959 33.429 113.837 33.4472C112.715 33.4654 111.632 33.8668 110.769 34.5846C110.362 34.9143 110.035 35.3317 109.812 35.8056C109.589 36.2796 109.476 36.7978 109.481 37.3216C109.497 38.0663 109.749 38.7866 110.2 39.3795C110.651 39.9723 111.278 40.4072 111.991 40.6216C113.01 41.0326 113.914 41.3966 114.699 41.7036C115.016 41.8147 115.291 42.0224 115.484 42.2975C115.678 42.5726 115.78 42.9013 115.777 43.2376V43.5036C115.711 45.0716 114.866 45.7036 113.854 45.7036C112.817 45.7036 111.931 45.0266 111.931 43.5036V42.0506H109.457V43.4806C109.43 44.0546 109.532 44.6274 109.754 45.157C109.977 45.6867 110.316 46.1597 110.745 46.5416C111.602 47.2983 112.711 47.7071 113.854 47.6876C114.953 47.7135 116.028 47.3604 116.898 46.6876C117.367 46.3081 117.735 45.8195 117.971 45.2646C118.207 44.7097 118.304 44.1054 118.252 43.5046V43.2556C118.225 42.6203 118.035 42.0025 117.701 41.4616C117.143 40.6717 116.327 40.1007 115.394 39.8466L112.901 38.8686C112.603 38.739 112.351 38.5206 112.181 38.2431C112.01 37.9657 111.93 37.6426 111.949 37.3176C111.953 37.0662 112.007 36.818 112.107 36.5874C112.207 36.3567 112.352 36.1481 112.533 35.9735C112.714 35.7988 112.928 35.6616 113.162 35.5697C113.396 35.4777 113.646 35.4328 113.897 35.4376M104.98 33.6436V43.4436C104.98 44.9946 104.135 45.7116 103.057 45.7116C102.02 45.7116 101.134 44.9936 101.134 43.4436V33.6436H98.6601V43.4436C98.6291 44.0237 98.7288 44.6035 98.9517 45.14C99.1746 45.6766 99.5151 46.1562 99.9481 46.5436C100.814 47.2831 101.916 47.6894 103.055 47.6894C104.193 47.6894 105.295 47.2831 106.161 46.5436C106.596 46.1573 106.938 45.678 107.162 45.1413C107.386 44.6046 107.486 44.0243 107.455 43.4436V33.6436H104.98ZM90.3521 37.7066C90.3521 36.1326 91.1971 35.4386 92.2751 35.4386C93.3531 35.4386 94.1981 36.1326 94.1981 37.7066V43.4416C94.1981 44.9926 93.3531 45.7096 92.2751 45.7096C91.1971 45.7096 90.3521 45.0326 90.3521 43.4636V37.7066ZM96.6731 37.7066C96.7054 37.1263 96.6063 36.5462 96.3833 36.0094C96.1603 35.4727 95.8191 34.9932 95.3851 34.6066C94.524 33.8564 93.4206 33.4431 92.2786 33.4431C91.1366 33.4431 90.0332 33.8564 89.1721 34.6066C88.7381 34.9932 88.3969 35.4728 88.1739 36.0095C87.9509 36.5462 87.8519 37.1263 87.8841 37.7066V50.3066H90.3521V47.0586C91.0144 47.498 91.7978 47.7187 92.5921 47.6896C93.6329 47.6681 94.6283 47.2595 95.3841 46.5436C95.8181 46.1571 96.1594 45.6776 96.3824 45.1408C96.6054 44.6041 96.7045 44.0239 96.6721 43.4436V37.7086L96.6731 37.7066ZM73.0651 47.3416V37.7066C73.0651 36.1326 73.9101 35.4386 74.9881 35.4386C76.0661 35.4386 76.9111 36.1326 76.9291 37.7066V47.3426H79.4031V37.7066C79.4031 36.1326 80.2481 35.4386 81.3261 35.4386C82.4041 35.4386 83.2491 36.1326 83.2491 37.7066V47.3656H85.7491V37.7066C85.7802 37.1258 85.6801 36.5455 85.4561 36.0088C85.2321 35.4721 84.8899 34.9928 84.4551 34.6066C83.5977 33.8367 82.4802 33.4211 81.3281 33.4436C80.9456 33.9153 80.4625 34.2957 79.9143 34.557C79.366 34.8182 78.7664 34.9538 78.1591 34.9538C77.5518 34.9538 76.9521 34.8182 76.4039 34.557C75.8556 34.2957 75.3726 33.9153 74.9901 33.4436C73.8436 33.4222 72.732 33.838 71.8811 34.6066C71.4483 34.9942 71.108 35.4739 70.8851 36.0103C70.6622 36.5468 70.5624 37.1264 70.5931 37.7066V47.3426H73.0671L73.0651 47.3416ZM62.3501 42.9316C62.3789 42.4443 62.5953 41.9871 62.9538 41.6559C63.3123 41.3246 63.785 41.145 64.2731 41.1546C64.7585 41.1539 65.2264 41.3366 65.583 41.666C65.9396 41.9955 66.1585 42.4476 66.1961 42.9316V43.8516C66.172 44.3478 65.9597 44.8161 65.6024 45.1613C65.2451 45.5065 64.7698 45.7026 64.2731 45.7096C63.7733 45.7127 63.2922 45.5199 62.9328 45.1726C62.5734 44.8254 62.3642 44.3512 62.3501 43.8516V42.9316ZM64.2731 35.4366C65.3101 35.4366 66.1961 36.1136 66.1961 37.6826V39.8066C65.6379 39.3983 64.9646 39.1775 64.2731 39.1756C63.6949 39.163 63.1202 39.2666 62.5829 39.4803C62.0455 39.6939 61.5566 40.0133 61.1451 40.4196C60.738 40.8086 60.414 41.2762 60.1926 41.794C59.9712 42.3117 59.8571 42.869 59.8571 43.4321C59.8571 43.9952 59.9712 44.5525 60.1926 45.0702C60.414 45.588 60.738 46.0556 61.1451 46.4446C61.5574 46.8497 62.0465 47.1684 62.5836 47.382C63.1207 47.5957 63.6951 47.6999 64.2731 47.6886C65.3828 47.7012 66.4589 47.3078 67.2991 46.5826C67.7138 46.2519 68.0499 45.8332 68.2831 45.3568C68.5162 44.8803 68.6405 44.358 68.6471 43.8276V37.6816C68.673 37.0981 68.5669 36.5163 68.3366 35.9795C68.1063 35.4428 67.7578 34.9649 67.3171 34.5816C66.4574 33.8458 65.3632 33.4414 64.2316 33.4414C63.1001 33.4414 62.0058 33.8458 61.1461 34.5816C60.7126 34.9686 60.3718 35.4482 60.1488 35.9848C59.9258 36.5215 59.8265 37.1014 59.8581 37.6816V37.9716H62.3321V37.6816C62.3501 36.1366 63.1951 35.4446 64.2781 35.4446L64.2731 35.4366ZM57.9971 42.0516H55.5231V43.4406C55.5231 44.9916 54.6781 45.7086 53.6001 45.7086C52.5221 45.7086 51.6781 45.0366 51.6781 43.4706V37.7116C51.6781 36.1376 52.5231 35.4436 53.6011 35.4436C54.6791 35.4436 55.5241 36.1376 55.5241 37.7116V37.9776H57.9981V37.7116C58.0303 37.1313 57.9312 36.5512 57.7082 36.0145C57.4852 35.4778 57.144 34.9982 56.7101 34.6116C55.8489 33.8616 54.7455 33.4485 53.6036 33.4485C52.4616 33.4485 51.3582 33.8616 50.4971 34.6116C50.0631 34.9982 49.7219 35.4778 49.4989 36.0145C49.2759 36.5512 49.1769 37.1313 49.2091 37.7116V43.4466C49.1768 44.0269 49.2758 44.607 49.4988 45.1438C49.7218 45.6805 50.063 46.16 50.4971 46.5466C51.3632 47.2861 52.4647 47.6924 53.6036 47.6924C54.7424 47.6924 55.844 47.2861 56.7101 46.5466C57.1439 46.1599 57.485 45.6803 57.708 45.1436C57.931 44.6069 58.0302 44.0269 57.9981 43.4466L57.9971 42.0516Z" fill="white"/>
<path d="M121.325 33.6593V31.8712H122.113C122.258 31.8647 122.404 31.8809 122.544 31.9193C122.633 31.9505 122.709 32.0107 122.759 32.0903C122.813 32.1742 122.841 32.2723 122.84 32.3723C122.845 32.4951 122.8 32.6148 122.717 32.7053C122.618 32.801 122.489 32.8596 122.351 32.8712C122.425 32.9111 122.492 32.9617 122.551 33.0213C122.63 33.1116 122.702 33.2086 122.764 33.3113L122.99 33.6603H122.543L122.272 33.2713C122.211 33.1795 122.144 33.0916 122.072 33.0083C122.041 32.9749 122.002 32.9495 121.959 32.9343C121.898 32.918 121.834 32.9112 121.771 32.9143H121.696V33.6613H121.321L121.325 33.6593ZM124 32.8453C124.013 33.226 123.913 33.6021 123.711 33.9252C123.509 34.2484 123.215 34.5039 122.867 34.6589C122.519 34.8139 122.133 34.8614 121.758 34.7953C121.382 34.7291 121.035 34.5524 120.761 34.2878C120.487 34.0231 120.298 33.6827 120.219 33.31C120.14 32.9373 120.174 32.5495 120.316 32.1962C120.459 31.8429 120.704 31.5403 121.02 31.3272C121.336 31.1142 121.708 31.0003 122.089 31.0003C122.587 30.9917 123.068 31.1814 123.427 31.5276C123.785 31.8737 123.991 32.3471 124 32.8453ZM122.089 34.4043C122.395 34.3937 122.691 34.2932 122.941 34.1155C123.19 33.9377 123.382 33.6904 123.491 33.4045C123.601 33.1187 123.624 32.8068 123.558 32.5078C123.492 32.2088 123.339 31.9359 123.119 31.7231C122.899 31.5104 122.621 31.3672 122.32 31.3113C122.018 31.2555 121.708 31.2895 121.426 31.4092C121.144 31.5288 120.903 31.7288 120.734 31.9842C120.565 32.2395 120.475 32.539 120.475 32.8453C120.483 33.2658 120.658 33.6659 120.96 33.9581C121.263 34.2503 121.669 34.4107 122.089 34.4043ZM121.699 32.6273H121.976C122.088 32.6326 122.201 32.6252 122.311 32.6053C122.352 32.5913 122.387 32.5647 122.411 32.5293C122.438 32.4898 122.451 32.4429 122.449 32.3953C122.452 32.342 122.434 32.2898 122.399 32.2493C122.362 32.2099 122.313 32.1851 122.259 32.1793C122.228 32.1793 122.138 32.1733 121.987 32.1733H121.695L121.699 32.6273Z" fill="white"/>
<mask id="mask0_540_73" style="mask-type:luminance" maskUnits="userSpaceOnUse" x="-1" y="27" width="44" height="32">
<path d="M21.2815 54.5074C17.4696 54.5434 13.6753 53.9854 10.0351 52.8533C14.9 56.3462 27.6616 56.3462 32.5265 52.8533C28.8868 53.9854 25.093 54.5435 21.2815 54.5074ZM2.37327 47.4215C0.141766 46.1249 0.865155 40.3816 3.54155 39.8358C-0.402538 40.0459 -1.41782 46.2201 2.37327 47.4215ZM40.189 47.4215C43.9794 46.2229 42.9662 40.0459 39.0207 39.8358C41.6964 40.3823 42.4191 46.1249 40.189 47.4215ZM19.5076 33.8429C18.1586 33.9757 16.8328 34.2838 15.5635 34.7594C15.1846 34.9004 14.8086 35.0539 14.4354 35.2198C12.9357 35.8924 10.523 37.2976 9.52819 38.6041C9.39705 38.7797 9.25957 38.9609 9.13689 39.1597C9.01421 39.3585 8.87249 39.5545 8.75334 39.771C8.63418 39.9874 8.50727 40.2067 8.39164 40.4379C8.27601 40.6692 8.16602 40.9089 8.06168 41.1557C7.95733 41.4025 7.85862 41.6563 7.76908 41.9172C7.67953 42.178 7.5914 42.4424 7.51949 42.7153C7.44757 42.9881 7.37354 43.261 7.31713 43.5409C7.26073 43.8208 7.20432 44.1007 7.16766 44.387C7.131 44.6732 7.08729 44.951 7.06895 45.2394C7.02111 45.8021 7.00557 46.3671 7.02242 46.9315C7.03793 47.2086 7.04005 47.4794 7.06895 47.7473C7.09786 48.0152 7.12677 48.2761 7.15497 48.5306C7.19587 48.788 7.23182 49.0368 7.27342 49.278C7.31502 49.5191 7.37354 49.7405 7.42007 49.9598C7.50675 50.3646 7.61453 50.7647 7.74299 51.1583C7.85086 51.5109 7.96579 51.8169 8.06168 52.0672C8.25627 52.5663 8.39235 52.8427 8.39235 52.8427L8.24147 52.0418C8.19493 51.7887 8.14699 51.4777 8.0934 51.1301C8.03982 50.7825 7.99047 50.3828 7.95239 49.9583C7.93477 49.7426 7.90586 49.5113 7.89528 49.2829C7.88471 49.0545 7.86849 48.8204 7.85439 48.5778C7.85063 48.3362 7.8471 48.0885 7.84381 47.8347C7.84381 47.5823 7.85439 47.3264 7.85862 47.0648C7.86285 46.8032 7.89034 46.543 7.90304 46.2765C7.91573 46.01 7.95874 45.747 7.9813 45.4777C8.04687 44.944 8.13288 44.4081 8.24499 43.8808C8.29575 43.6157 8.36767 43.3576 8.42901 43.0967C8.49035 42.8359 8.57566 42.5863 8.64617 42.3331C8.71667 42.08 8.81468 41.8396 8.89294 41.5957C8.9712 41.3517 9.07907 41.124 9.16579 40.8906C9.36039 40.4351 9.55217 39.9959 9.76086 39.594C9.80176 39.5059 9.84688 39.4213 9.89271 39.3388C12.5085 36.6243 16.5259 35.2156 20.6921 35.1084L21.285 35.1119L21.8773 35.1084C26.0435 35.2128 30.0616 36.6222 32.6773 39.3388C32.7232 39.4213 32.7683 39.5052 32.8092 39.594C33.0207 39.9959 33.2104 40.4351 33.4043 40.8906C33.491 41.1247 33.5904 41.3552 33.6771 41.5957C33.7638 41.8361 33.8456 42.0828 33.9239 42.3331C34.0021 42.5834 34.0727 42.8394 34.1403 43.0967C34.208 43.3541 34.2722 43.6149 34.3236 43.8808C34.4358 44.4081 34.5218 44.944 34.5873 45.4777C34.6099 45.747 34.6522 46.01 34.6649 46.2765C34.6776 46.543 34.7051 46.8039 34.7093 47.0648C34.7135 47.3257 34.7234 47.5823 34.7241 47.8347C34.7248 48.0871 34.7164 48.336 34.7135 48.5778C34.6994 48.8183 34.6818 49.053 34.6727 49.2829C34.6635 49.5127 34.6332 49.7419 34.6155 49.9583C34.5803 50.3814 34.526 50.7804 34.4745 51.1301C34.4231 51.4798 34.373 51.7887 34.3272 52.0418C34.2306 52.5508 34.1763 52.8427 34.1763 52.8427C34.1763 52.8427 34.3124 52.5656 34.507 52.0672C34.6021 51.8176 34.7185 51.513 34.8257 51.1583C34.9542 50.7647 35.062 50.3647 35.1486 49.9598C35.1951 49.7412 35.2522 49.5191 35.2952 49.278C35.3382 49.0368 35.3728 48.7844 35.4137 48.5306C35.4412 48.2761 35.4701 48.0145 35.4997 47.7473C35.5293 47.4801 35.53 47.2086 35.5462 46.9315C35.5625 46.3671 35.547 45.8021 35.4997 45.2394C35.4814 44.9574 35.4362 44.6753 35.401 44.387C35.3657 44.0986 35.3002 43.8229 35.2515 43.5409C35.2029 43.2589 35.1161 42.9903 35.0499 42.7153C34.9836 42.4403 34.8835 42.1816 34.801 41.9172C34.7185 41.6528 34.6064 41.4053 34.5084 41.1557C34.4104 40.9061 34.2884 40.672 34.1784 40.4379C34.0684 40.2039 33.9387 39.986 33.8174 39.771C33.6962 39.5559 33.5573 39.3585 33.4332 39.1597C33.3091 38.9609 33.173 38.7797 33.0419 38.6041C32.047 37.2997 29.6343 35.8946 28.1347 35.2198C27.7586 35.0515 27.3826 34.8981 27.0066 34.7594C25.7374 34.2835 24.4115 33.9754 23.0625 33.8429C22.533 33.7907 21.9598 33.7646 21.3873 33.7646H21.1891C20.6096 33.7646 20.0371 33.79 19.5076 33.8429ZM21.3506 27.0003H21.2131C17.7509 26.9813 14.3599 27.9836 11.4643 29.8818C7.81343 32.2509 5.03426 35.7454 3.5479 39.8358C2.6658 42.2636 2.26794 44.8407 2.3768 47.4215C2.45645 49.2709 2.78442 51.1012 3.35189 52.8632C4.04084 55.0194 5.0913 57.0428 6.45837 58.847C6.49414 58.8942 6.54027 58.9325 6.5932 58.9591C6.64613 58.9856 6.70446 58.9996 6.76366 59H17.6991L7.19375 57.7633C6.59491 56.9567 6.05418 56.1085 5.57564 55.2251C4.28924 52.8804 3.47978 50.3042 3.19396 47.645C2.7815 43.971 3.67763 40.1975 5.92958 36.4078C9.65792 32.0985 15.4718 30.314 21.2843 30.3162C27.0968 30.3183 32.9107 32.0999 36.6391 36.4078C38.8903 40.1975 39.7878 43.9717 39.3747 47.645C39.0881 50.3038 38.2779 52.8796 36.9909 55.2237C36.5122 56.107 35.9715 56.9552 35.3728 57.7619L24.8674 58.9986H35.8007C35.86 58.9982 35.9183 58.9842 35.9712 58.9577C36.0241 58.9311 36.0703 58.8928 36.106 58.8456C37.4733 57.0416 38.5238 55.0181 39.2125 52.8618C39.7795 51.0997 40.1074 49.2695 40.1876 47.4201C40.2969 44.8401 39.8993 42.2636 39.0172 39.8365C37.5306 35.746 34.7512 32.2515 31.1001 29.8825C28.2045 27.9837 24.8132 26.9811 21.3506 27.0003Z" fill="white"/>
</mask>
<g mask="url(#mask0_540_73)">
<path d="M43.9795 27H-1.41699V59.0011H43.9795V27Z" fill="white"/>
</g>
</svg>
