<svg width="17" height="16" viewBox="0 0 17 16" fill="none" xmlns="http://www.w3.org/2000/svg">
<g clip-path="url(#clip0_384_8748)">
<path fill-rule="evenodd" clip-rule="evenodd" d="M3.31463 2.81438C4.64099 1.48805 6.47524 0.666504 8.50008 0.666504C10.5249 0.666504 12.3592 1.48805 13.6855 2.81438L13.2141 3.28579L13.6855 2.81439C15.0119 4.14074 15.8334 5.97499 15.8334 7.99984C15.8334 10.0247 15.0119 11.8589 13.6855 13.1853C12.3592 14.5116 10.5249 15.3332 8.50008 15.3332C6.47523 15.3332 4.64099 14.5116 3.31463 13.1853L3.78603 12.7139L3.31463 13.1853C1.98829 11.8589 1.16675 10.0247 1.16675 7.99984C1.16675 5.97499 1.98829 4.14075 3.31463 2.81439L3.31463 2.81438ZM8.50008 1.99984C6.84306 1.99984 5.34397 2.67068 4.25744 3.7572C3.17092 4.84374 2.50008 6.34282 2.50008 7.99984C2.50008 9.65686 3.17092 11.1559 4.25744 12.2425C5.34397 13.329 6.84306 13.9998 8.50008 13.9998C10.1571 13.9998 11.6562 13.329 12.7427 12.2425C13.8292 11.1559 14.5001 9.65686 14.5001 7.99984C14.5001 6.34282 13.8292 4.84373 12.7427 3.7572C11.6562 2.67068 10.1571 1.99984 8.50008 1.99984Z" fill="white"/>
<path fill-rule="evenodd" clip-rule="evenodd" d="M12.3048 5.52851C12.5652 5.78886 12.5652 6.21097 12.3048 6.47132L8.30482 10.4713C8.04447 10.7317 7.62236 10.7317 7.36201 10.4713L5.36201 8.47132C5.10166 8.21097 5.10166 7.78886 5.36201 7.52851C5.62236 7.26816 6.04447 7.26816 6.30482 7.52851L7.83341 9.05711L11.362 5.52851C11.6224 5.26816 12.0445 5.26816 12.3048 5.52851Z" fill="white"/>
</g>
<defs>
<clipPath id="clip0_384_8748">
<rect width="16" height="16" fill="white" transform="translate(0.5 -0.00012207)"/>
</clipPath>
</defs>
</svg>
