<svg width="24" height="24" viewBox="0 0 24 24" fill="none" xmlns="http://www.w3.org/2000/svg">
<path fill-rule="evenodd" clip-rule="evenodd" d="M1 3.5C1 2.94772 1.44772 2.5 2 2.5H22C22.5523 2.5 23 2.94772 23 3.5V18.5C23 19.0523 22.5523 19.5 22 19.5H10.7361L5.94721 21.8944C5.63723 22.0494 5.26909 22.0329 4.97427 21.8507C4.67945 21.6684 4.5 21.3466 4.5 21V19.5H2C1.44772 19.5 1 19.0523 1 18.5V3.5ZM3 4.5V17.5H5.5C6.05228 17.5 6.5 17.9477 6.5 18.5V19.382L10.0528 17.6056C10.1916 17.5361 10.3448 17.5 10.5 17.5H21V4.5H3ZM8.5 7C9.05228 7 9.5 7.44772 9.5 8V8.5C9.5 9.05228 9.05228 9.5 8.5 9.5C7.94772 9.5 7.5 9.05228 7.5 8.5V8C7.5 7.44772 7.94772 7 8.5 7ZM15.5 7C16.0523 7 16.5 7.44772 16.5 8V8.5C16.5 9.05228 16.0523 9.5 15.5 9.5C14.9477 9.5 14.5 9.05228 14.5 8.5V8C14.5 7.44772 14.9477 7 15.5 7ZM8.5 12.5L7.60557 12.9472C7.35858 12.4532 7.55881 11.8526 8.05279 11.6056C8.5441 11.3599 9.14095 11.5567 9.39039 12.0448C9.3916 12.0472 9.3928 12.0495 9.39398 12.0519L9.39285 12.0496L9.3916 12.0472L9.39039 12.0448C9.38978 12.0437 9.38998 12.044 9.39039 12.0448C9.39059 12.0452 9.39083 12.0456 9.39113 12.0462C9.39362 12.0508 9.39968 12.0618 9.40939 12.0782C9.42889 12.1113 9.46265 12.1657 9.51134 12.2345C9.60948 12.373 9.7633 12.5628 9.97686 12.7526C10.3956 13.1248 11.0428 13.5 12 13.5C12.9572 13.5 13.6044 13.1248 14.0231 12.7526C14.2367 12.5628 14.3905 12.373 14.4887 12.2345C14.5373 12.1657 14.5711 12.1113 14.5906 12.0782C14.6003 12.0618 14.6064 12.0508 14.6089 12.0462C14.6092 12.0456 14.6094 12.0452 14.6096 12.0448M14.606 12.0519L14.6072 12.0496L14.6084 12.0472L14.6096 12.0448C14.61 12.044 14.6102 12.0437 14.6096 12.0448C14.859 11.5567 15.4559 11.3599 15.9472 11.6056C16.4412 11.8526 16.6414 12.4532 16.3944 12.9472L15.5 12.5C16.3944 12.9472 16.3942 12.9477 16.394 12.9481L16.3925 12.9511L16.3901 12.9557L16.3842 12.9672C16.3797 12.9758 16.3741 12.9864 16.3675 12.9987C16.3541 13.0234 16.3362 13.0554 16.3137 13.0936C16.2687 13.1699 16.2048 13.2718 16.1207 13.3905C15.9532 13.627 15.7008 13.9372 15.3519 14.2474C14.6456 14.8752 13.5428 15.5 12 15.5C10.4572 15.5 9.35443 14.8752 8.64814 14.2474C8.2992 13.9372 8.04677 13.627 7.87929 13.3905C7.79516 13.2718 7.73127 13.1699 7.68631 13.0936C7.6638 13.0554 7.64593 13.0234 7.63255 12.9987C7.62585 12.9864 7.62027 12.9758 7.61579 12.9672L7.60987 12.9557L7.60752 12.9511L7.6065 12.9491L7.60602 12.9481C7.6058 12.9477 7.60557 12.9472 8.5 12.5" fill="#252329"/>
</svg>
