<svg width="95" height="36" viewBox="0 0 95 36" fill="none" xmlns="http://www.w3.org/2000/svg">
<g clip-path="url(#clip0_489_6417)">
<mask id="mask0_489_6417" style="mask-type:luminance" maskUnits="userSpaceOnUse" x="0" y="0" width="95" height="36">
<path d="M94.4246 0.500977H0.424561V35.501H94.4246V0.500977Z" fill="white"/>
</mask>
<g mask="url(#mask0_489_6417)">
<path d="M20.3077 4.8055H10.5052M10.5052 4.8055L20.3077 26.8335M10.5052 4.8055L0.699951 26.8335H83.1664M88.6741 4.8055H44.4775M44.4775 15.8181H64.1018M5.61497 15.8181H20.3077M88.6713 4.79448C87.2091 4.79448 85.8068 5.37519 84.7729 6.40885C83.739 7.44252 83.1581 8.84447 83.1581 10.3063C83.1581 11.7681 83.739 13.1701 84.7729 14.2038C85.8068 15.2374 87.2091 15.8181 88.6713 15.8181C90.1335 15.8181 91.5358 16.3988 92.5697 17.4325C93.6037 18.4662 94.1845 19.8681 94.1845 21.3299C94.1845 22.7918 93.6037 24.1937 92.5697 25.2274C91.5358 26.261 90.1335 26.8417 88.6713 26.8417H83.1581M80.7351 4.81377V26.8335M77.6697 26.8335L70.883 18.3921C71.7753 18.3921 72.6589 18.2164 73.4833 17.875C74.3077 17.5336 75.0568 17.0332 75.6878 16.4024C76.3188 15.7716 76.8193 15.0227 77.1608 14.1985C77.5022 13.3743 77.678 12.4909 77.678 11.5988C77.678 10.7067 77.5022 9.82333 77.1608 8.99913C76.8193 8.17492 76.3188 7.42604 75.6878 6.79522C75.0568 6.1644 74.3077 5.66401 73.4833 5.32261C72.6589 4.98122 71.7753 4.8055 70.883 4.8055H64.1018V26.8335L54.2827 4.8055L44.4775 26.8335M44.4913 26.8335V4.80275C44.4913 3.73489 44.067 2.71076 43.3117 1.95567C42.5564 1.20057 41.5321 0.776367 40.4639 0.776367C39.3958 0.776367 38.3714 1.20057 37.6161 1.95567C36.8608 2.71076 36.4365 3.73489 36.4365 4.80275M36.4365 4.80275V26.8335M36.4365 4.80275C36.4091 3.75276 35.9725 2.75501 35.22 2.02207C34.4675 1.28914 33.4584 0.878977 32.4078 0.878977C31.3572 0.878977 30.3481 1.28914 29.5955 2.02207C28.843 2.75501 28.4065 3.75276 28.379 4.80275M28.379 4.80275V26.8335M28.379 4.80275C28.3515 3.75276 27.915 2.75501 27.1625 2.02207C26.4099 1.28914 25.4008 0.878977 24.3502 0.878977C23.2996 0.878977 22.2905 1.28914 21.538 2.02207C20.7854 2.75501 20.3489 3.75276 20.3215 4.80275V26.8335M82.7584 2.79094C82.7584 3.18938 82.6402 3.57888 82.4188 3.91017C82.1974 4.24147 81.8827 4.49968 81.5145 4.65215C81.1463 4.80463 80.7411 4.84453 80.3502 4.7668C79.9593 4.68906 79.6003 4.49719 79.3185 4.21545C79.0367 3.93371 78.8447 3.57475 78.767 3.18396C78.6892 2.79317 78.7291 2.38811 78.8817 2.02C79.0342 1.65188 79.2924 1.33725 79.6238 1.11588C79.9552 0.894519 80.3448 0.776367 80.7433 0.776367C81.2778 0.776367 81.7903 0.988615 82.1682 1.36642C82.5461 1.74423 82.7584 2.25664 82.7584 2.79094Z" stroke="white" stroke-linecap="round" stroke-linejoin="round"/>
<path d="M24.6666 31.8191C24.491 31.6448 24.288 31.5005 24.0657 31.3919C23.8164 31.2777 23.546 31.2167 23.2718 31.2128C22.7809 31.2315 22.3164 31.4396 21.9758 31.7934C21.6351 32.1471 21.4448 32.6191 21.4448 33.1102C21.4448 33.6013 21.6351 34.0733 21.9758 34.427C22.3164 34.7808 22.7809 34.9889 23.2718 35.0076C23.5703 35.0033 23.8638 34.9297 24.1291 34.7927C24.3254 34.6925 24.5049 34.5623 24.6611 34.4069V35.0407C24.2588 35.3287 23.7775 35.4856 23.2828 35.4899C22.97 35.4881 22.6607 35.4247 22.3724 35.3034C22.0841 35.1821 21.8226 35.0052 21.6027 34.7828C21.1586 34.3336 20.9112 33.7265 20.9149 33.095C20.9185 32.4635 21.173 31.8593 21.6222 31.4154C22.0714 30.9714 22.6787 30.7241 23.3104 30.7277C23.803 30.7218 24.283 30.8831 24.6721 31.1852L24.6666 31.8191Z" fill="white"/>
<path d="M26.6533 33.1089C26.6506 32.6346 26.7888 32.1703 27.0503 31.7746C27.3119 31.379 27.685 31.0699 28.1225 30.8865C28.56 30.7031 29.042 30.6537 29.5076 30.7446C29.9732 30.8354 30.4013 31.0624 30.7377 31.3968C31.0741 31.7312 31.3036 32.1579 31.3972 32.6228C31.4907 33.0877 31.4441 33.57 31.2632 34.0084C31.0823 34.4468 30.7753 34.8216 30.3811 35.0854C29.9869 35.3492 29.5232 35.49 29.0488 35.49C28.7338 35.4959 28.4207 35.4385 28.1283 35.3211C27.8359 35.2037 27.5701 35.0288 27.3466 34.8067C27.1232 34.5845 26.9466 34.3198 26.8275 34.0281C26.7084 33.7365 26.6492 33.4239 26.6533 33.1089ZM27.1771 33.1089C27.182 33.4779 27.2959 33.8372 27.5045 34.1417C27.7131 34.4461 28.0071 34.6821 28.3495 34.8199C28.692 34.9578 29.0675 34.9913 29.4289 34.9163C29.7904 34.8413 30.1215 34.6612 30.3808 34.3985C30.6401 34.1359 30.8159 33.8024 30.8862 33.4401C30.9564 33.0778 30.9179 32.7029 30.7756 32.3624C30.6332 32.0219 30.3933 31.7311 30.0861 31.5265C29.7788 31.322 29.4179 31.2129 29.0488 31.2128C28.8012 31.2139 28.5563 31.2639 28.3281 31.3598C28.0998 31.4558 27.8928 31.5959 27.7189 31.7721C27.545 31.9483 27.4076 32.157 27.3146 32.3864C27.2216 32.6159 27.1749 32.8614 27.1771 33.1089Z" fill="white"/>
<path d="M33.8307 35.4066V30.6113L37.4143 34.3704V30.8153H37.9272V35.6243L34.3435 31.8625V35.4176L33.8307 35.4066Z" fill="white"/>
<path d="M42.6248 31.7141C42.5571 31.5819 42.4633 31.4647 42.3491 31.3696C42.1989 31.2606 42.0164 31.2053 41.8309 31.2125C41.7324 31.2029 41.6329 31.214 41.539 31.2453C41.445 31.2766 41.3587 31.3273 41.2857 31.3941C41.2126 31.4609 41.1545 31.5423 41.1149 31.633C41.0754 31.7238 41.0554 31.8218 41.0563 31.9208C41.0518 31.9968 41.0652 32.0727 41.0954 32.1426C41.1255 32.2124 41.1716 32.2743 41.23 32.3232C41.3727 32.4435 41.5362 32.5369 41.7124 32.5987L42.1562 32.7917C42.4221 32.8948 42.6662 33.0472 42.8756 33.2409C42.9858 33.3479 43.0723 33.4767 43.1297 33.619C43.1872 33.7614 43.2142 33.9142 43.2092 34.0676C43.1965 34.3466 43.1051 34.6162 42.9457 34.8454C42.7862 35.0746 42.5651 35.254 42.308 35.3629C42.0509 35.4719 41.7682 35.5059 41.4925 35.461C41.2169 35.4161 40.9596 35.2942 40.7503 35.1094C40.5331 34.8793 40.3851 34.5928 40.323 34.2826L40.8192 34.1448C40.8502 34.3637 40.9462 34.5682 41.0949 34.7318C41.1817 34.8184 41.2856 34.8858 41.4 34.93C41.5144 34.9741 41.6368 34.9939 41.7592 34.9881C41.8815 34.9956 42.004 34.9773 42.1187 34.9342C42.2334 34.8912 42.3378 34.8245 42.4249 34.7384C42.5121 34.6523 42.5801 34.5488 42.6245 34.4346C42.6689 34.3205 42.6887 34.1982 42.6827 34.0759C42.6891 33.9729 42.672 33.8699 42.6329 33.7744C42.5937 33.6789 42.5335 33.5936 42.4566 33.5247C42.2907 33.3907 42.1046 33.2838 41.9053 33.2078L41.4918 33.0149C41.2657 32.9261 41.0575 32.7973 40.8771 32.6346C40.7723 32.5401 40.6896 32.4237 40.6348 32.2937C40.58 32.1637 40.5545 32.0232 40.5601 31.8822C40.5601 31.1712 41.1114 30.6944 41.8502 30.6944C42.1121 30.6837 42.3707 30.7561 42.589 30.9011C42.7793 31.0317 42.9338 31.2079 43.0383 31.4137L42.6248 31.7141Z" fill="white"/>
<path d="M46.104 33.6265C46.104 34.0123 46.104 34.4339 46.4706 34.7454C46.6874 34.915 46.9548 35.0072 47.2301 35.0072C47.5054 35.0072 47.7727 34.915 47.9895 34.7454C48.3562 34.4339 48.3562 34.0123 48.3562 33.6265V30.8154H48.8661V33.7643C48.8969 34.1519 48.8001 34.5391 48.5905 34.8666C48.4241 35.061 48.2175 35.217 47.9851 35.324C47.7526 35.431 47.4998 35.4864 47.2439 35.4864C46.988 35.4864 46.7351 35.431 46.5026 35.324C46.2702 35.217 46.0637 35.061 45.8973 34.8666C45.6876 34.5391 45.5908 34.1519 45.6216 33.7643V30.8154H46.1316L46.104 33.6265Z" fill="white"/>
<path d="M52.0146 30.8154V34.9493H53.2854V35.4316H51.5047V30.8154H52.0146Z" fill="white"/>
<path d="M56.4112 31.2867V35.4206H55.9012V31.2867H54.782V30.8154H57.5386V31.2977L56.4112 31.2867Z" fill="white"/>
<path d="M60.1815 30.8154V35.4178H59.6687V30.8154H60.1815Z" fill="white"/>
<path d="M62.8113 35.4066V30.6113L66.3949 34.3704V30.8153H66.9049V35.6243L63.3213 31.8625V35.4176L62.8113 35.4066Z" fill="white"/>
<path d="M71.9231 33.0951H73.8527V33.2053C73.8583 33.7249 73.7043 34.2338 73.4117 34.6632C73.2131 34.9277 72.9541 35.1408 72.6563 35.2847C72.3584 35.4285 72.0305 35.4989 71.6998 35.49C71.0681 35.4881 70.4631 35.2355 70.0177 34.7877C69.5723 34.3399 69.3232 33.7335 69.325 33.102C69.3268 32.4705 69.5795 31.8656 70.0275 31.4203C70.4754 30.975 71.0819 30.7259 71.7136 30.7278C72.2209 30.7197 72.7165 30.8806 73.1222 31.1852C73.3238 31.3439 73.5028 31.5293 73.6542 31.7364L73.2738 32.0837C73.1504 31.9062 73.0039 31.7459 72.8383 31.6069C72.524 31.3476 72.1265 31.2106 71.7191 31.2211C71.2283 31.2398 70.7638 31.4479 70.4231 31.8017C70.0825 32.1555 69.8922 32.6274 69.8922 33.1185C69.8922 33.6096 70.0825 34.0816 70.4231 34.4354C70.7638 34.7892 71.2283 34.9972 71.7191 35.016C72.0013 35.0224 72.2803 34.9542 72.5276 34.8182C72.775 34.6822 72.982 34.4833 73.1277 34.2415C73.2418 34.0411 73.3061 33.8161 73.3152 33.5856H71.9369L71.9231 33.0951Z" fill="white"/>
<path d="M79.225 33.8053C79.3223 33.8059 79.4176 33.7775 79.4987 33.7238C79.5798 33.6701 79.6431 33.5935 79.6806 33.5038C79.7181 33.414 79.728 33.3152 79.7092 33.2198C79.6903 33.1243 79.6435 33.0367 79.5747 32.9679C79.5059 32.8991 79.4183 32.8524 79.3228 32.8335C79.2274 32.8147 79.1285 32.8246 79.0387 32.8621C78.949 32.8996 78.8724 32.9629 78.8186 33.044C78.7649 33.1251 78.7366 33.2203 78.7371 33.3175C78.7378 33.4467 78.7895 33.5703 78.8808 33.6617C78.9722 33.753 79.0958 33.8046 79.225 33.8053Z" fill="white"/>
<path d="M15.6566 33.8053C15.7538 33.8059 15.8491 33.7775 15.9302 33.7238C16.0113 33.6701 16.0746 33.5935 16.1121 33.5038C16.1496 33.414 16.1595 33.3152 16.1407 33.2198C16.1218 33.1243 16.0751 33.0367 16.0063 32.9679C15.9375 32.8991 15.8498 32.8524 15.7544 32.8335C15.6589 32.8147 15.56 32.8246 15.4703 32.8621C15.3805 32.8996 15.3039 32.9629 15.2502 33.044C15.1965 33.1251 15.1681 33.2203 15.1686 33.3175C15.1694 33.4467 15.221 33.5703 15.3124 33.6617C15.4037 33.753 15.5274 33.8046 15.6566 33.8053Z" fill="white"/>
</g>
</g>
<defs>
<clipPath id="clip0_489_6417">
<rect width="94" height="35" fill="white" transform="translate(0.424561 0.500977)"/>
</clipPath>
</defs>
</svg>
