<svg width="157" height="48" viewBox="0 0 157 48" fill="none" xmlns="http://www.w3.org/2000/svg">
<path d="M71.3895 19.3621C69.9602 17.0445 67.399 15.498 64.4755 15.498H62.4951C61.7074 15.498 60.9003 15.7143 60.0752 16.146C59.2493 16.5784 58.5701 17.1498 58.0362 17.861V15.8033H53.2346V44.3795H58.4171V33.8825C58.9503 34.4414 59.592 34.8864 60.3414 35.2158C61.09 35.546 61.8206 35.7107 62.5326 35.7107H64.4747C67.3982 35.7107 69.9594 34.1651 71.3887 31.8466C72.1514 30.6093 72.5924 28.5633 72.5924 27.0036V23.6142C72.5924 22.0545 72.1514 20.5978 71.3887 19.3606L71.3895 19.3621ZM68.2373 26.8584C68.2373 29.2706 66.2639 31.244 63.8518 31.244H62.4537C60.0119 31.244 58.0323 29.2643 58.0323 26.8225V24.387C58.0323 21.9452 60.0119 19.9655 62.4537 19.9655H63.8159C66.2577 19.9655 68.2373 21.9452 68.2373 24.387V26.8584Z" fill="white"/>
<path d="M135.459 3.57129C128.185 3.57129 126.081 5.61418 126.081 12.6804C126.081 19.7466 128.26 21.8449 135.405 21.8449C142.55 21.8449 144.676 19.7895 144.676 12.6804C144.676 5.57124 142.695 3.57129 135.459 3.57129ZM135.378 6.43773C140.486 6.43773 141.869 7.21523 141.869 12.6851C141.869 17.8598 140.734 18.9769 135.476 18.9769C130.218 18.9769 128.887 18.1088 128.887 12.6851C128.887 7.26129 130.349 6.43773 135.378 6.43773Z" fill="white"/>
<path d="M76.7658 34.3148C75.7111 33.3625 75.1842 31.8824 75.1842 29.8755V9.07031H80.3668V29.5702C80.3668 30.1799 80.5065 30.6248 80.786 30.9035C81.0654 31.183 81.5096 31.3227 82.1193 31.3227H84.177V35.7426H81.7383C79.4769 35.7426 77.8196 35.2664 76.7658 34.3141V34.3148Z" fill="white"/>
<path d="M87.6815 34.0097C86.4621 32.6507 85.8525 30.8662 85.8525 28.6562V15.498H91.0342V28.7327C91.1193 29.6054 91.2099 30.8365 92.7063 31.4626C93.8343 31.9348 95.1356 31.9223 96.3128 31.5906C96.9185 31.4196 97.5235 30.9825 97.817 30.689C98.9622 29.5438 99.1769 27.8061 99.2651 26.7593V15.498H104.447V35.7443H99.646V33.3056C99.0614 34.119 98.344 34.7794 97.4931 35.2868C97.2378 35.439 96.8405 35.5686 96.4088 35.6756C94.8132 36.0706 93.1458 36.0854 91.5362 35.7521C89.9866 35.4312 88.4348 34.8512 87.6807 34.0105L87.6815 34.0097Z" fill="white"/>
<path d="M111.478 29.0577H106.677C106.677 29.0577 106.544 33.878 110.675 35.2722C114.21 36.4658 119.226 35.8701 120.634 35.5634C122.065 35.2519 123.206 34.5142 123.976 33.2324C124.321 32.6587 124.603 31.9421 124.743 31.0506C125.303 27.4855 123.104 25.4738 123.104 25.4738C123.104 25.4738 122.105 24.2678 119.34 23.829L113.371 22.7573C113.101 22.7089 112.839 22.6105 112.615 22.4473C112.26 22.1866 111.881 21.7011 111.974 20.8346C112.097 19.6839 112.812 19.5075 113.886 19.3569C114.413 19.2827 116.696 19.2249 117.621 19.3116C119.193 19.4591 119.791 20.2905 120.016 21.4606C120.039 21.5824 120.058 21.7112 120.073 21.847L124.874 21.8502C124.874 21.8502 125.007 17.0298 120.877 15.6356C117.341 14.4421 112.326 15.0377 110.917 15.3445C109.487 15.6559 108.345 16.3936 107.576 17.6754C107.231 18.2492 106.949 18.9658 106.808 19.8572C106.248 23.4223 108.447 25.434 108.447 25.434C108.447 25.434 109.446 26.6401 112.212 27.0788L118.18 28.1506C118.45 28.199 118.713 28.2973 118.936 28.4605C119.291 28.7212 119.681 29.2075 119.577 30.0732C119.425 31.3324 118.17 31.4596 117.658 31.5346C116.522 31.7001 114.843 31.6548 113.871 31.5494C112.35 31.3839 111.76 30.6181 111.536 29.4472C111.512 29.3254 111.493 29.1966 111.478 29.0608V29.0577Z" fill="white"/>
<path d="M140.094 11.4128H136.675V8.16309H134.084V11.4128H130.664V14.0037H134.084V17.2534H136.675V14.0037H140.094V11.4128Z" fill="white"/>
<path d="M30.4765 29.5328L32.7122 35.7434H38.1992L28.5141 11.0937L27.7615 9.07031H22.9958L12.555 35.7434H18.042L25.3963 15.5097H25.4345L28.8888 25.1121H24.4923L22.8827 29.532H30.4765V29.5328Z" fill="white"/>
<path d="M50.0198 31.244H49.3391C46.8973 31.244 44.9177 29.2643 44.9177 26.8225V24.387C44.9177 21.9452 46.8973 19.9655 49.3391 19.9655H50.6326V15.498H49.3805C48.5928 15.498 47.7857 15.7143 46.9605 16.146C46.1346 16.5784 45.4555 17.1498 44.9216 17.861V15.8033H40.1199V44.3795H45.3025V33.8825C45.8357 34.4414 46.4773 34.8864 47.2267 35.2158C47.9753 35.546 48.706 35.7107 49.4179 35.7107H50.6318V31.2432H50.019L50.0198 31.244Z" fill="white"/>
</svg>
