<svg width="159" height="159" viewBox="0 0 159 159" fill="none" xmlns="http://www.w3.org/2000/svg">
<path fill-rule="evenodd" clip-rule="evenodd" d="M62.4498 30.1946C37.5047 46.2148 23.6466 64.8606 20.8755 86.1324C16.5615 119.248 46.1758 135.457 61.1811 120.893C76.1864 106.33 67.1917 87.844 56.3263 82.7911C45.461 77.7379 38.8165 79.4978 39.9755 72.7456C41.1345 65.9931 56.5927 47.2715 70.1732 38.5527C71.0742 37.7865 71.4171 36.2999 70.5495 35.1723C69.9788 34.4303 68.8595 32.9757 67.1917 30.8079C65.7332 28.9123 64.336 28.9832 62.4498 30.1946Z" fill="#5E3AE2" fill-opacity="0.4"/>
<path fill-rule="evenodd" clip-rule="evenodd" d="M128.124 30.1946C103.179 46.2148 89.321 64.8606 86.5498 86.1324C82.2359 119.248 111.85 135.457 126.856 120.893C141.861 106.33 132.866 87.844 122.001 82.7911C111.135 77.7379 104.491 79.4978 105.65 72.7456C106.809 65.9931 122.267 47.2715 135.848 38.5527C136.749 37.7865 137.092 36.2999 136.224 35.1723C135.653 34.4303 134.534 32.9757 132.866 30.8079C131.408 28.9123 130.01 28.9832 128.124 30.1946Z" fill="#5E3AE2" fill-opacity="0.4"/>
</svg>
