<svg width="130" height="48" viewBox="0 0 130 48" fill="none" xmlns="http://www.w3.org/2000/svg">
<g clip-path="url(#clip0_298_5953)">
<path d="M19.1387 8.13269C21.4257 6.79983 24.058 6.17837 26.6997 6.34756C26.9925 6.35894 27.2801 6.42877 27.5455 6.55293C27.8109 6.67708 28.0488 6.85307 28.2452 7.07053C28.4417 7.28799 28.5926 7.54254 28.6892 7.8192C28.7858 8.09585 28.8261 8.38903 28.8077 8.68148C28.7893 8.97394 28.7126 9.25976 28.5821 9.52214C28.4516 9.78452 28.27 10.0182 28.0479 10.2093C27.8258 10.4005 27.5677 10.5453 27.2888 10.6352C27.0099 10.7251 26.7159 10.7584 26.424 10.733C21.7489 10.4375 17.8732 10.9929 14.8782 12.0639C16.094 10.3899 17.3535 9.16211 19.1387 8.13269Z" fill="white"/>
<path d="M14.7406 27.0736C14.5899 26.8494 14.4511 26.6233 14.3142 26.3893C13.0361 24.1927 12.4109 21.6772 12.5121 19.1378C12.6133 16.5985 13.4366 14.1406 14.8854 12.0527C5.63453 15.3612 4.79948 23.6045 14.7406 27.0736Z" fill="white"/>
<path d="M25.9039 28.6422C26.4741 28.6593 27.0151 28.8979 27.4123 29.3072C27.8095 29.7165 28.0317 30.2645 28.0317 30.8349C28.0317 31.4053 27.8095 31.9532 27.4123 32.3626C27.0151 32.7719 26.4741 33.0105 25.9039 33.0276C23.5613 33.0379 21.2573 32.4311 19.2236 31.2683C17.0815 30.0405 16.2187 28.9575 14.741 27.0732C17.5694 28.065 21.2745 28.66 25.9039 28.6422Z" fill="white"/>
<path d="M30.9301 19.1034C28.643 17.7705 26.0108 17.1491 23.3691 17.3183C23.081 17.3364 22.7993 17.411 22.5401 17.538C22.2809 17.665 22.0492 17.8418 21.8583 18.0583C21.6674 18.2748 21.521 18.5268 21.4275 18.7998C21.3339 19.0729 21.2951 19.3618 21.3132 19.6498C21.3313 19.9379 21.406 20.2196 21.533 20.4788C21.6599 20.7381 21.8367 20.9698 22.0532 21.1607C22.2697 21.3516 22.5217 21.498 22.7948 21.5915C23.0679 21.685 23.3567 21.7238 23.6448 21.7057C28.3198 21.4102 32.1955 21.9636 35.1886 23.0346C33.9787 21.3725 32.7152 20.1447 30.9301 19.1054" fill="white"/>
<path d="M35.3333 38.054C35.482 37.8299 35.6229 37.6038 35.7597 37.3697C37.0362 35.1726 37.6604 32.6574 37.5593 30.1184C37.4581 27.5794 36.6357 25.1218 35.1885 23.0332C44.4374 26.3416 45.2744 34.5929 35.3333 38.054Z" fill="white"/>
<path d="M24.1704 39.6226C23.8769 39.6138 23.5846 39.664 23.3108 39.7702C23.0371 39.8764 22.7875 40.0365 22.5767 40.241C22.366 40.4455 22.1985 40.6902 22.0841 40.9607C21.9697 41.2311 21.9107 41.5217 21.9107 41.8154C21.9107 42.109 21.9697 42.3996 22.0841 42.6701C22.1985 42.9405 22.366 43.1852 22.5767 43.3897C22.7875 43.5942 23.0371 43.7543 23.3108 43.8605C23.5846 43.9667 23.8769 44.0169 24.1704 44.0081C26.5097 44.017 28.8102 43.4102 30.8408 42.2488C32.9849 41.021 33.8477 39.938 35.3254 38.0537C32.495 39.0454 28.7919 39.6405 24.1624 39.6226" fill="white"/>
<path d="M47.597 38.0235V34.5822H49.1024C49.254 34.5802 49.405 34.6002 49.5507 34.6417C49.6723 34.6766 49.7861 34.7345 49.8859 34.8123C49.9725 34.8851 50.0405 34.9776 50.0843 35.082C50.1352 35.1947 50.1603 35.3174 50.1576 35.441C50.1578 35.5298 50.1417 35.6179 50.11 35.7009C50.0511 35.8681 49.9343 36.0088 49.7808 36.0976C49.7051 36.1417 49.6216 36.1707 49.5348 36.1828V36.2265C49.6446 36.2329 49.7523 36.2598 49.8522 36.3058C49.945 36.3489 50.0291 36.4087 50.1001 36.4824C50.171 36.5547 50.227 36.6403 50.2648 36.7343C50.3032 36.8335 50.3228 36.9392 50.3223 37.0457C50.3241 37.1861 50.2964 37.3253 50.241 37.4543C50.1868 37.5751 50.1053 37.6817 50.0029 37.7657C49.8922 37.8557 49.7648 37.9231 49.6281 37.964C49.4672 38.0118 49.3 38.0352 49.1322 38.0334L47.597 38.0235ZM48.317 36.0083H48.8585C49.0161 36.0186 49.1729 35.9791 49.3067 35.8952C49.3567 35.858 49.3968 35.809 49.4234 35.7526C49.45 35.6963 49.4624 35.6342 49.4595 35.5719C49.4625 35.5108 49.4514 35.4499 49.427 35.3938C49.4025 35.3377 49.3655 35.288 49.3186 35.2486C49.2036 35.1657 49.0635 35.1251 48.9219 35.1336H48.3269L48.317 36.0083ZM48.9596 37.4721C49.1274 37.4839 49.2943 37.4392 49.4337 37.3452C49.4888 37.3015 49.5326 37.2451 49.5613 37.1809C49.5899 37.1167 49.6026 37.0464 49.5983 36.9762C49.6022 36.9068 49.5889 36.8375 49.5595 36.7745C49.5301 36.7115 49.4855 36.6568 49.4297 36.6152C49.2833 36.526 49.113 36.4838 48.9418 36.4943H48.317V37.4721H48.9596ZM50.9153 35.3934H51.5877V35.8119H51.6294C51.6477 35.7462 51.678 35.6843 51.7186 35.6295C51.7606 35.5733 51.8107 35.5238 51.8674 35.4827C51.9288 35.4414 51.9955 35.4087 52.0657 35.3855C52.1427 35.3611 52.223 35.3491 52.3038 35.3498C52.3533 35.3469 52.403 35.3469 52.4525 35.3498C52.4944 35.3535 52.5357 35.3621 52.5755 35.3756V36.0063L52.516 35.9924L52.4307 35.9766H52.3375C52.3071 35.9747 52.2766 35.9747 52.2462 35.9766C52.1581 35.9758 52.0703 35.9891 51.9864 36.0162C51.9128 36.0419 51.8453 36.0824 51.7881 36.1352C51.7312 36.1869 51.6865 36.2506 51.6572 36.3217C51.6245 36.4002 51.6083 36.4846 51.6095 36.5696V38.0275H50.9173L50.9153 35.3934ZM53.3927 35.0265C53.3347 35.0268 53.277 35.0174 53.2221 34.9987C53.1753 34.9826 53.1317 34.9584 53.0932 34.9273C53.0583 34.8962 53.0299 34.8585 53.0099 34.8162C52.9915 34.7715 52.9821 34.7237 52.9821 34.6754C52.9815 34.6264 52.991 34.5778 53.0099 34.5326C53.0289 34.4897 53.0574 34.4518 53.0932 34.4215C53.1307 34.389 53.1746 34.3646 53.2221 34.3501C53.2771 34.3321 53.3348 34.3234 53.3927 34.3243C53.4499 34.3234 53.5069 34.3321 53.5613 34.3501C53.6082 34.3647 53.6514 34.389 53.6882 34.4215C53.7252 34.4511 53.7545 34.4892 53.7735 34.5326C53.794 34.5774 53.8041 34.6262 53.8033 34.6754C53.8035 34.7239 53.7934 34.772 53.7735 34.8162C53.7534 34.859 53.7243 34.8969 53.6882 34.9273C53.6505 34.9584 53.6075 34.9826 53.5613 34.9987C53.507 35.0174 53.4501 35.0268 53.3927 35.0265ZM53.0436 35.3934H53.7378V38.0235H53.0436V35.3934ZM54.4439 35.3934H55.1163V35.8139H55.158C55.2152 35.6699 55.3157 35.5473 55.4456 35.4628C55.593 35.3736 55.7633 35.3295 55.9355 35.3359C56.0593 35.3274 56.1834 35.3461 56.2992 35.3906C56.4151 35.4352 56.5197 35.5045 56.6059 35.5938C56.7709 35.7999 56.853 36.0602 56.836 36.3237V38.0235H56.1418V36.4962C56.1527 36.3483 56.1105 36.2013 56.0228 36.0817C55.9763 36.0325 55.9194 35.9945 55.8562 35.9704C55.793 35.9464 55.7252 35.937 55.6578 35.9428C55.5831 35.9409 55.5088 35.9544 55.4396 35.9825C55.3779 36.009 55.3225 36.0482 55.277 36.0976C55.2304 36.1507 55.1953 36.2128 55.1738 36.28C55.1492 36.3556 55.1371 36.4346 55.1381 36.5141V38.0314H54.4439V35.3934ZM58.6628 39.0192C58.5025 39.0209 58.3426 39.0029 58.1867 38.9657C58.0554 38.9339 57.9301 38.881 57.8158 38.809C57.7162 38.747 57.6315 38.6637 57.5679 38.565C57.5063 38.4704 57.4688 38.3621 57.4588 38.2496H58.1451C58.1554 38.2934 58.1759 38.3342 58.2048 38.3686C58.2337 38.4031 58.2703 38.4302 58.3117 38.448C58.4256 38.5017 58.5508 38.5269 58.6767 38.5214C58.8318 38.5308 58.9856 38.4875 59.113 38.3984C59.1637 38.3568 59.204 38.304 59.2305 38.244C59.257 38.1841 59.2691 38.1187 59.2657 38.0533V37.5673H59.2241C59.1541 37.7016 59.0457 37.8121 58.9127 37.8847C58.7633 37.9594 58.5977 37.9962 58.4307 37.9918C58.2782 37.9935 58.1272 37.9617 57.9884 37.8986C57.8585 37.8383 57.7439 37.7495 57.6532 37.6387C57.5569 37.5166 57.4849 37.3773 57.4409 37.2281C57.3904 37.0535 57.3657 36.8724 57.3676 36.6906C57.366 36.5043 57.3907 36.3187 57.4409 36.1392C57.4843 35.9864 57.5571 35.8436 57.6552 35.7187C57.746 35.6039 57.862 35.5116 57.9943 35.449C58.1366 35.3856 58.2909 35.3538 58.4466 35.3557C58.5322 35.355 58.6176 35.3657 58.7005 35.3875C58.7795 35.4087 58.8555 35.44 58.9266 35.4807C58.9951 35.5193 59.0573 35.5681 59.111 35.6255C59.1649 35.6846 59.2097 35.7515 59.2439 35.8238H59.2876V35.4033H59.96V38.0235C59.9621 38.168 59.9316 38.311 59.8707 38.442C59.8086 38.5657 59.719 38.6736 59.6089 38.7574C59.4864 38.8487 59.3478 38.916 59.2003 38.9557C59.0251 39.0027 58.8441 39.0241 58.6628 39.0192ZM59.2737 36.6946C59.275 36.5887 59.2609 36.4831 59.232 36.3812C59.2082 36.2955 59.1678 36.2153 59.113 36.1452C59.0597 36.08 58.9918 36.0283 58.9147 35.9944C58.8358 35.9579 58.7497 35.9396 58.6628 35.9409C58.5765 35.9393 58.491 35.9577 58.4129 35.9944C58.34 36.0297 58.2762 36.0813 58.2264 36.1452C58.1722 36.2151 58.133 36.2954 58.1114 36.3812C58.0585 36.5861 58.0585 36.8011 58.1114 37.006C58.1336 37.0918 58.172 37.1726 58.2244 37.244C58.2742 37.3079 58.338 37.3595 58.4109 37.3947C58.4905 37.4288 58.5762 37.4463 58.6628 37.4463C58.7494 37.4463 58.8351 37.4288 58.9147 37.3947C58.992 37.3612 59.06 37.3095 59.113 37.244C59.1672 37.1738 59.2069 37.0936 59.23 37.008C59.2598 36.9062 59.2745 36.8006 59.2737 36.6946ZM61.0092 35.0265C60.9518 35.027 60.8948 35.0176 60.8406 34.9987C60.793 34.9831 60.7486 34.9589 60.7097 34.9273C60.6753 34.8962 60.6477 34.8584 60.6284 34.8162C60.6085 34.772 60.5984 34.7239 60.5986 34.6754C60.5978 34.6262 60.6079 34.5774 60.6284 34.5326C60.6467 34.4899 60.6745 34.4519 60.7097 34.4215C60.7477 34.3885 60.7923 34.3642 60.8406 34.3501C60.8949 34.332 60.952 34.3232 61.0092 34.3243C61.0665 34.3231 61.1235 34.3318 61.1778 34.3501C61.2253 34.3646 61.2692 34.389 61.3067 34.4215C61.3426 34.4518 61.371 34.4897 61.39 34.5326C61.4105 34.5774 61.4207 34.6262 61.4198 34.6754C61.4201 34.7239 61.4099 34.772 61.39 34.8162C61.37 34.8585 61.3417 34.8962 61.3067 34.9273C61.2683 34.9584 61.2246 34.9826 61.1778 34.9987C61.1237 35.0177 61.0666 35.0271 61.0092 35.0265ZM60.6621 35.3934H61.3563V38.0235H60.6621V35.3934ZM62.0565 35.3934H62.7289V35.8139H62.7745C62.8311 35.6696 62.9317 35.5467 63.0621 35.4628C63.2094 35.3734 63.3798 35.3293 63.552 35.3359C63.6755 35.3274 63.7994 35.3461 63.9149 35.3907C64.0303 35.4352 64.1347 35.5045 64.2205 35.5938C64.3863 35.7994 64.4685 36.0601 64.4505 36.3237V38.0235H63.7563V36.4962C63.7668 36.3486 63.7254 36.202 63.6393 36.0817C63.5924 36.0326 63.5351 35.9946 63.4716 35.9706C63.4081 35.9466 63.34 35.9371 63.2724 35.9428C63.1983 35.9409 63.1247 35.9544 63.0562 35.9825C62.9938 36.0089 62.9378 36.0481 62.8915 36.0976C62.8457 36.1512 62.8107 36.2131 62.7884 36.28C62.7637 36.3556 62.7517 36.4346 62.7527 36.5141V38.0314H62.0585L62.0565 35.3934ZM66.2813 39.0192C66.1204 39.021 65.9598 39.003 65.8033 38.9657C65.6722 38.9332 65.547 38.8803 65.4324 38.809C65.3334 38.746 65.2489 38.6629 65.1844 38.565C65.1228 38.4704 65.0854 38.3621 65.0753 38.2496H65.7636C65.7731 38.2935 65.793 38.3344 65.8217 38.3689C65.8503 38.4034 65.8869 38.4305 65.9282 38.448C66.0429 38.5013 66.1688 38.5265 66.2952 38.5214C66.4497 38.5308 66.6029 38.4875 66.7295 38.3984C66.7809 38.3573 66.8217 38.3045 66.8486 38.2445C66.8755 38.1845 66.8877 38.1189 66.8843 38.0533V37.5673H66.8406C66.7712 37.7021 66.6626 37.8127 66.5292 37.8847C66.3806 37.9596 66.2156 37.9964 66.0492 37.9918C65.8967 37.994 65.7456 37.9621 65.6069 37.8986C65.4767 37.8388 65.362 37.7499 65.2717 37.6387C65.1748 37.517 65.1027 37.3776 65.0595 37.2281C65.0079 37.0537 64.9832 36.8725 64.9861 36.6906C64.9835 36.5042 65.0083 36.3185 65.0595 36.1392C65.1028 35.9864 65.1756 35.8436 65.2737 35.7187C65.3641 35.6035 65.4803 35.5111 65.6129 35.449C65.7543 35.3854 65.908 35.3536 66.0631 35.3557C66.1494 35.3551 66.2354 35.3658 66.319 35.3875C66.3975 35.4083 66.4729 35.4397 66.5431 35.4807C66.6119 35.5198 66.6747 35.5685 66.7295 35.6255C66.7828 35.6851 66.8275 35.7519 66.8624 35.8238H66.9061V35.4033H67.5785V38.0235C67.58 38.1681 67.5488 38.3112 67.4872 38.442C67.4265 38.5661 67.3375 38.6741 67.2274 38.7574C67.1044 38.8479 66.966 38.9151 66.8188 38.9557C66.6436 39.0026 66.4626 39.024 66.2813 39.0192ZM66.8902 36.6946C66.8915 36.5887 66.8775 36.4831 66.8486 36.3812C66.8247 36.2955 66.7843 36.2153 66.7295 36.1452C66.6791 36.0812 66.6146 36.0296 66.5411 35.9944C66.4622 35.9591 66.3767 35.9409 66.2902 35.9409C66.2037 35.9409 66.1182 35.9591 66.0393 35.9944C65.9664 36.0297 65.9026 36.0813 65.8529 36.1452C65.7994 36.2155 65.7603 36.2957 65.7378 36.3812C65.6849 36.5861 65.6849 36.8011 65.7378 37.006C65.7607 37.0919 65.7997 37.1727 65.8529 37.244C65.9014 37.3083 65.9647 37.36 66.0373 37.3947C66.1173 37.4287 66.2033 37.4463 66.2902 37.4463C66.3771 37.4463 66.4631 37.4287 66.5431 37.3947C66.6169 37.3601 66.6815 37.3084 66.7315 37.244C66.7855 37.1734 66.8259 37.0934 66.8505 37.008C66.8789 36.906 66.8922 36.8004 66.8902 36.6946ZM70.1669 38.0235V36.7561L68.9768 34.5743H69.7563L70.514 36.0143H70.5576L71.3133 34.5743H72.0929L70.9028 36.7561V38.0235H70.1669ZM73.2869 38.083C73.1016 38.0856 72.9173 38.054 72.7434 37.9898C72.5882 37.9318 72.4484 37.8388 72.3348 37.7181C72.2196 37.5942 72.1329 37.4466 72.081 37.2857C72.019 37.0996 71.9888 36.9045 71.9917 36.7085C71.9888 36.5137 72.019 36.3199 72.081 36.1352C72.136 35.9748 72.2238 35.8276 72.3388 35.7028C72.4538 35.5838 72.5932 35.4911 72.7474 35.4311C73.0963 35.3069 73.4775 35.3069 73.8264 35.4311C73.9809 35.4906 74.1204 35.5833 74.235 35.7028C74.3508 35.8269 74.4387 35.9744 74.4929 36.1352C74.5548 36.3199 74.585 36.5137 74.5821 36.7085C74.585 36.9045 74.5548 37.0996 74.4929 37.2857C74.4409 37.4466 74.3542 37.5942 74.239 37.7181C74.1254 37.8388 73.9856 37.9318 73.8304 37.9898C73.6565 38.054 73.4722 38.0856 73.2869 38.083ZM73.2869 37.5157C73.3707 37.5195 73.4541 37.502 73.5294 37.4649C73.6046 37.4278 73.6693 37.3723 73.7173 37.3035C73.8289 37.1259 73.8823 36.9179 73.87 36.7085C73.871 36.5942 73.8577 36.4803 73.8304 36.3693C73.8074 36.2791 73.7684 36.1938 73.7153 36.1174C73.6684 36.0509 73.6057 35.997 73.5329 35.9607C73.4571 35.9208 73.3725 35.9004 73.2869 35.9012C73.2016 35.8993 73.1172 35.9184 73.041 35.9567C72.9674 35.9919 72.9044 36.046 72.8585 36.1134C72.8052 36.1895 72.7669 36.275 72.7454 36.3653C72.7171 36.4761 72.7038 36.5902 72.7057 36.7045C72.6935 36.9134 72.7454 37.121 72.8545 37.2995C72.9029 37.3686 72.9678 37.4244 73.0434 37.4618C73.1189 37.4992 73.2027 37.5171 73.2869 37.5138V37.5157ZM77.5216 38.0235H76.8572V37.601H76.8135C76.7601 37.7459 76.6622 37.8702 76.5338 37.9561C76.3872 38.0452 76.2174 38.0887 76.0459 38.081C75.9154 38.0829 75.7856 38.0608 75.6631 38.0156C75.5525 37.9728 75.4534 37.9049 75.3735 37.8172C75.2913 37.7295 75.2284 37.6254 75.1891 37.5118C75.1453 37.3794 75.1238 37.2406 75.1256 37.1012V35.3875H75.8198V36.9227C75.8198 37.2876 75.9805 37.4721 76.3038 37.4721C76.377 37.4772 76.4505 37.4662 76.5191 37.4398C76.5876 37.4134 76.6495 37.3723 76.7005 37.3194C76.7974 37.203 76.8464 37.054 76.8373 36.9028V35.3875H77.5315L77.5216 38.0235ZM80.1973 38.0632C80.0786 38.0649 79.9605 38.0461 79.8482 38.0076C79.7482 37.972 79.6559 37.9174 79.5765 37.847C79.5001 37.7783 79.4399 37.6937 79.4 37.599C79.3567 37.4954 79.3351 37.3841 79.3365 37.2718C79.3316 37.164 79.3529 37.0567 79.3985 36.959C79.4441 36.8612 79.5126 36.7759 79.5983 36.7105C79.8213 36.5595 80.0847 36.4793 80.354 36.4804L80.9907 36.4427V36.2285C80.9934 36.1799 80.9846 36.1314 80.965 36.0869C80.9453 36.0425 80.9154 36.0033 80.8776 35.9726C80.781 35.9068 80.665 35.8754 80.5484 35.8833C80.441 35.8795 80.3343 35.9013 80.237 35.9468C80.1607 35.9833 80.1017 36.048 80.0724 36.1273H79.4357C79.4458 36.0115 79.4825 35.8995 79.5428 35.8C79.6035 35.6996 79.6854 35.6136 79.7828 35.5481C79.8911 35.4765 80.0103 35.4229 80.1358 35.3895C80.2837 35.3524 80.4356 35.3344 80.5881 35.3359C80.7448 35.3338 80.901 35.3539 81.0522 35.3954C81.1767 35.4306 81.2927 35.4907 81.3933 35.5719C81.4855 35.6468 81.5583 35.7427 81.6056 35.8516C81.6549 35.971 81.6792 36.0993 81.677 36.2285V38.0136H81.0026V37.6863H80.961C80.8899 37.8089 80.7834 37.9071 80.6555 37.968C80.5126 38.0358 80.3554 38.0684 80.1973 38.0632ZM80.4254 37.5415C80.5016 37.5424 80.5774 37.5303 80.6495 37.5058C80.7155 37.4838 80.7768 37.4494 80.83 37.4047C80.8792 37.3635 80.9197 37.3129 80.9491 37.2559C80.9771 37.1978 80.9913 37.134 80.9907 37.0695V36.8711L80.4591 36.9028C80.1636 36.9247 80.0168 37.0298 80.0168 37.2202C80.0149 37.2652 80.0243 37.31 80.044 37.3505C80.0638 37.391 80.0933 37.426 80.1299 37.4523C80.2168 37.5134 80.3212 37.5447 80.4274 37.5415H80.4254ZM84.8743 38.0235H84.196L83.2856 34.5822H84.0353L84.5709 37.008H84.6086L85.2373 34.5822H85.8443L86.4829 37.008H86.5226L87.0542 34.5822H87.798L86.8836 38.0235H86.2092L85.5586 35.7465H85.521L84.8743 38.0235ZM89.3233 38.083C89.1373 38.0856 88.9524 38.054 88.7778 37.9898C88.6231 37.9318 88.484 37.8388 88.3712 37.7181C88.2561 37.5938 88.1689 37.4464 88.1153 37.2857C88.0541 37.0995 88.0246 36.9044 88.0281 36.7085C88.0252 36.5137 88.0554 36.3199 88.1173 36.1352C88.1714 35.9744 88.2594 35.8269 88.3752 35.7028C88.4894 35.5838 88.6281 35.4911 88.7818 35.4311C89.1314 35.3067 89.5132 35.3067 89.8628 35.4311C90.0164 35.4911 90.1552 35.5838 90.2694 35.7028C90.3852 35.8269 90.4731 35.9744 90.5272 36.1352C90.5892 36.3199 90.6194 36.5137 90.6165 36.7085C90.62 36.9044 90.5905 37.0995 90.5292 37.2857C90.4757 37.4464 90.3884 37.5938 90.2734 37.7181C90.1606 37.8388 90.0214 37.9318 89.8667 37.9898C89.6928 38.0538 89.5086 38.0854 89.3233 38.083ZM89.3233 37.5157C89.407 37.5191 89.4903 37.5015 89.5655 37.4644C89.6407 37.4273 89.7054 37.372 89.7537 37.3035C89.8637 37.1253 89.9164 36.9176 89.9044 36.7085C89.9054 36.5942 89.892 36.4803 89.8647 36.3693C89.8435 36.2785 89.8044 36.1929 89.7497 36.1174C89.7028 36.0509 89.6401 35.997 89.5672 35.9607C89.4917 35.9224 89.4079 35.9033 89.3233 35.9052C89.2374 35.9034 89.1523 35.9224 89.0753 35.9607C89.0025 35.997 88.9398 36.0509 88.8929 36.1174C88.8396 36.1935 88.8012 36.2789 88.7798 36.3693C88.7525 36.4803 88.7392 36.5942 88.7401 36.7085C88.7274 36.9177 88.7801 37.1256 88.8909 37.3035C88.9395 37.3721 89.0046 37.4273 89.0801 37.464C89.1557 37.5008 89.2393 37.5179 89.3233 37.5138V37.5157ZM91.1818 35.3934H91.8562V35.8119H91.8978C91.9161 35.7462 91.9464 35.6843 91.9871 35.6295C92.0284 35.5729 92.0787 35.5233 92.1358 35.4827C92.1972 35.4414 92.264 35.4087 92.3342 35.3855C92.4105 35.3613 92.4901 35.3492 92.5702 35.3498C92.6204 35.3469 92.6707 35.3469 92.721 35.3498C92.7628 35.3535 92.8041 35.3621 92.8439 35.3756V36.0063L92.7824 35.9924C92.755 35.9855 92.7272 35.9802 92.6991 35.9766H92.6059C92.5755 35.9747 92.5451 35.9747 92.5147 35.9766C92.4265 35.9756 92.3387 35.989 92.2548 36.0162C92.1813 36.0419 92.1138 36.0824 92.0565 36.1352C91.999 36.1864 91.9542 36.2503 91.9256 36.3217C91.8929 36.4002 91.8767 36.4846 91.878 36.5696V38.0275H91.1838L91.1818 35.3934ZM93.3319 34.3878H94.0261V38.0235H93.3319V34.3878ZM95.6882 38.0632C95.5338 38.0653 95.3807 38.0335 95.24 37.97C95.1077 37.9072 94.9922 37.8141 94.9028 37.6982C94.8056 37.5701 94.7336 37.4247 94.6905 37.2698C94.5927 36.8993 94.5927 36.5097 94.6905 36.1392C94.7339 35.9846 94.8066 35.8398 94.9048 35.7128C94.9949 35.5981 95.1103 35.5057 95.2419 35.443C95.382 35.3792 95.5344 35.3474 95.6882 35.3498C95.8543 35.3464 96.0181 35.3882 96.1623 35.4708C96.2983 35.5496 96.4065 35.6689 96.4717 35.8119H96.5134V34.3878H97.2076V38.0235H96.5352V37.6109H96.4935C96.4599 37.6836 96.4151 37.7506 96.3606 37.8093C96.3051 37.865 96.2424 37.9131 96.1742 37.9521C96.1029 37.9913 96.0269 38.0213 95.9481 38.0414C95.8626 38.0591 95.7754 38.0664 95.6882 38.0632ZM95.9243 35.9309C95.8386 35.9294 95.7537 35.9478 95.6763 35.9845C95.6022 36.0205 95.5377 36.0735 95.4879 36.1392C95.4341 36.2126 95.3944 36.2953 95.3709 36.3832C95.3417 36.4884 95.3277 36.5973 95.3292 36.7065C95.3277 36.8176 95.3417 36.9285 95.3709 37.0357C95.3944 37.1236 95.4341 37.2063 95.4879 37.2797C95.5371 37.3446 95.601 37.397 95.6743 37.4324C95.7529 37.4675 95.8382 37.4851 95.9243 37.484C96.0099 37.4853 96.0947 37.467 96.1722 37.4305C96.2493 37.3956 96.3172 37.3433 96.3705 37.2777C96.4235 37.2039 96.4632 37.1213 96.4876 37.0338C96.5418 36.821 96.5418 36.598 96.4876 36.3852C96.4632 36.2976 96.4235 36.215 96.3705 36.1412C96.3214 36.0745 96.2567 36.0207 96.1821 35.9845C96.1016 35.9465 96.0132 35.9281 95.9243 35.9309ZM100.353 38.083C100.168 38.0858 99.9837 38.0541 99.8099 37.9898C99.6546 37.9318 99.5148 37.8388 99.4013 37.7181C99.2862 37.5938 99.199 37.4464 99.1454 37.2857C99.0851 37.0993 99.0557 36.9043 99.0581 36.7085C99.0553 36.5137 99.0854 36.3199 99.1474 36.1352C99.2015 35.9744 99.2894 35.8269 99.4053 35.7028C99.5195 35.5838 99.6582 35.4911 99.8119 35.4311C100.161 35.3067 100.543 35.3067 100.893 35.4311C101.047 35.4911 101.187 35.5838 101.301 35.7028C101.416 35.8277 101.503 35.9749 101.557 36.1352C101.621 36.3195 101.652 36.5135 101.649 36.7085C101.651 36.9045 101.621 37.0996 101.559 37.2857C101.507 37.4467 101.419 37.5943 101.303 37.7181C101.191 37.8388 101.052 37.9318 100.897 37.9898C100.723 38.0538 100.539 38.0854 100.353 38.083ZM100.353 37.5157C100.437 37.5191 100.52 37.5015 100.596 37.4644C100.671 37.4273 100.735 37.372 100.784 37.3035C100.895 37.1257 100.947 36.9177 100.935 36.7085C100.935 36.5942 100.922 36.4803 100.895 36.3693C100.874 36.2785 100.834 36.1929 100.78 36.1174C100.734 36.0509 100.672 35.9971 100.599 35.9607C100.522 35.9242 100.438 35.9052 100.352 35.9052C100.267 35.9052 100.183 35.9242 100.105 35.9607C100.033 35.997 99.9699 36.0509 99.9229 36.1174C99.8697 36.1935 99.8313 36.2789 99.8099 36.3693C99.7826 36.4803 99.7693 36.5942 99.7702 36.7085C99.7585 36.9176 99.8111 37.1252 99.9209 37.3035C99.9698 37.3718 100.035 37.4268 100.11 37.4635C100.186 37.5003 100.269 37.5175 100.353 37.5138V37.5157ZM102.416 35.9647H101.992V35.4192H102.416V35.1614C102.406 35.0535 102.422 34.9449 102.463 34.8447C102.505 34.7446 102.569 34.6558 102.652 34.5862C102.86 34.4545 103.105 34.3927 103.35 34.4096C103.409 34.4062 103.467 34.4062 103.525 34.4096L103.676 34.4275V34.9273C103.644 34.9206 103.612 34.9159 103.58 34.9134H103.448C103.353 34.9064 103.258 34.9323 103.18 34.9868C103.149 35.0181 103.126 35.0555 103.111 35.0966C103.097 35.1376 103.091 35.1814 103.095 35.2248V35.4232H103.654V35.9686H103.11V38.0235H102.416V35.9647ZM106.078 38.0235V35.1971H105.044V34.5822H107.821V35.1971H106.808V38.0235H106.078ZM108.728 38.0632C108.609 38.0649 108.491 38.0461 108.378 38.0076C108.278 37.9724 108.186 37.9179 108.107 37.847C108.03 37.7779 107.97 37.6934 107.928 37.599C107.886 37.4953 107.865 37.3839 107.867 37.2718C107.862 37.164 107.883 37.0567 107.929 36.959C107.974 36.8612 108.043 36.7759 108.129 36.7105C108.352 36.5595 108.615 36.4793 108.884 36.4804L109.521 36.4427V36.2285C109.524 36.1799 109.515 36.1314 109.495 36.0869C109.476 36.0425 109.446 36.0033 109.408 35.9726C109.311 35.9068 109.194 35.8754 109.077 35.8833C108.97 35.8798 108.864 35.9015 108.767 35.9468C108.691 35.9828 108.631 36.0477 108.603 36.1273H107.964C107.973 36.0116 108.009 35.8996 108.069 35.8C108.13 35.7 108.212 35.6142 108.309 35.5481C108.418 35.4765 108.538 35.4229 108.664 35.3895C108.812 35.3522 108.964 35.3342 109.116 35.3359C109.273 35.3338 109.429 35.3539 109.58 35.3954C109.705 35.4306 109.821 35.4907 109.922 35.5719C110.014 35.6468 110.087 35.7427 110.134 35.8516C110.183 35.971 110.207 36.0993 110.205 36.2285V38.0136H109.533V37.6863H109.489C109.419 37.8092 109.313 37.9076 109.186 37.968C109.043 38.0352 108.886 38.0678 108.728 38.0632ZM108.956 37.5415C109.032 37.5424 109.108 37.5303 109.18 37.5058C109.245 37.4842 109.306 37.4498 109.358 37.4047C109.409 37.3646 109.449 37.3138 109.477 37.2559C109.507 37.1983 109.522 37.1342 109.521 37.0695V36.8711L108.989 36.9028C108.694 36.9247 108.545 37.0298 108.545 37.2202C108.544 37.2654 108.553 37.3102 108.573 37.3507C108.593 37.3912 108.623 37.4261 108.66 37.4523C108.746 37.5132 108.85 37.5445 108.956 37.5415ZM110.911 34.3878H111.606V38.0235H110.911V34.3878ZM114.672 37.2738C114.648 37.3937 114.6 37.5077 114.531 37.609C114.462 37.7093 114.375 37.7955 114.273 37.8628C114.164 37.9371 114.043 37.9915 113.914 38.0235C113.77 38.0628 113.62 38.0821 113.47 38.081C113.287 38.0838 113.106 38.0522 112.935 37.9878C112.783 37.9313 112.648 37.8403 112.538 37.722C112.422 37.5985 112.334 37.4508 112.282 37.2896C112.223 37.1043 112.194 36.9108 112.197 36.7164C112.194 36.5205 112.224 36.3256 112.284 36.1392C112.337 35.9779 112.423 35.8294 112.536 35.7028C112.646 35.5831 112.782 35.4889 112.933 35.4271C113.27 35.3028 113.64 35.3028 113.978 35.4271C114.128 35.482 114.264 35.571 114.375 35.687C114.484 35.8077 114.567 35.9503 114.616 36.1055C114.675 36.2854 114.703 36.4737 114.7 36.6628V36.8771H112.895V36.9128C112.895 37.0027 112.91 37.0919 112.94 37.1766C112.968 37.2501 113.01 37.3176 113.063 37.3749C113.115 37.4306 113.179 37.4739 113.25 37.5019C113.328 37.5323 113.412 37.5471 113.496 37.5455C113.615 37.5501 113.733 37.5263 113.841 37.4761C113.929 37.4363 114 37.3658 114.039 37.2777L114.672 37.2738ZM113.464 35.8675C113.388 35.8667 113.313 35.8802 113.242 35.9071C113.176 35.9338 113.116 35.9729 113.065 36.0222C113.015 36.0735 112.974 36.1341 112.946 36.2007C112.914 36.274 112.895 36.3527 112.891 36.4328H114.012C114.012 36.2799 113.957 36.1322 113.855 36.0182C113.804 35.9673 113.743 35.9275 113.675 35.9016C113.608 35.8756 113.536 35.864 113.464 35.8675ZM115.261 35.3934H115.932V35.8139H115.975C116.032 35.6696 116.132 35.5467 116.263 35.4628C116.41 35.3734 116.58 35.3293 116.753 35.3359C116.876 35.3274 117 35.3461 117.116 35.3907C117.231 35.4352 117.335 35.5045 117.421 35.5938C117.587 35.7994 117.669 36.0601 117.651 36.3237V38.0235H116.957V36.4962C116.969 36.3485 116.927 36.2016 116.84 36.0817C116.793 36.0326 116.736 35.9946 116.672 35.9706C116.609 35.9466 116.541 35.9371 116.473 35.9428C116.399 35.9409 116.325 35.9544 116.257 35.9825C116.195 36.0085 116.139 36.0477 116.094 36.0976C116.047 36.1505 116.011 36.2127 115.989 36.28C115.964 36.3556 115.952 36.4346 115.953 36.5141V38.0314H115.259L115.261 35.3934ZM119.218 34.7686V35.4192H119.764V35.9647H119.218V37.1547C119.211 37.2462 119.24 37.3367 119.299 37.4066C119.372 37.467 119.465 37.4962 119.559 37.488H119.764V38.0176C119.722 38.0176 119.668 38.0334 119.609 38.0394C119.549 38.0453 119.482 38.0493 119.411 38.0493C119.273 38.0517 119.135 38.0377 119 38.0076C118.899 37.9874 118.805 37.9439 118.724 37.8807C118.651 37.8229 118.597 37.745 118.568 37.6566C118.532 37.5513 118.515 37.4405 118.518 37.3293V35.9805H118.113V35.4351H118.524V34.7845L119.218 34.7686Z" fill="white"/>
<path d="M46.6119 28.4499C46.0882 27.9342 45.9395 27.3669 46.4373 26.7977L47.2307 25.8178C47.7286 25.2486 48.2502 25.1196 48.8175 25.6195C49.8092 26.5993 51.4813 27.3491 52.8241 27.3491C54.3434 27.3491 55.2896 26.7282 55.2896 25.8C55.2896 24.483 53.8198 24.3282 51.878 23.7094C49.6129 22.9854 46.8499 21.6684 46.8499 18.5206C46.8499 15.5772 49.3649 13.5124 53.0244 13.5124C55.2638 13.5124 57.156 14.2859 58.4254 15.4225C58.9987 15.8866 59.197 16.4539 58.6991 17.0489L57.9276 18.003C57.4555 18.5722 56.9358 18.6754 56.3408 18.2013C55.5196 17.5051 54.4228 16.8863 53.1038 16.8863C51.8601 16.8863 51.0132 17.4277 51.0132 18.2747C51.0132 19.3339 52.233 19.7722 53.5025 20.2106C56.2654 21.0892 59.4767 21.9957 59.4767 25.7643C59.4767 29.0945 56.5887 30.9015 53.0542 30.9015C50.4777 30.9034 48.0796 29.9732 46.6119 28.4499ZM60.4248 22.2039C60.4248 17.2215 64.2568 13.5044 69.3345 13.5044C74.4122 13.5044 78.2463 17.2215 78.2463 22.2039C78.2463 27.1864 74.3884 30.9035 69.3345 30.9035C64.2806 30.9035 60.4248 27.1864 60.4248 22.2039ZM74.0651 22.2039C74.0651 19.3378 71.9745 17.3246 69.3345 17.3246C66.6945 17.3246 64.6059 19.3378 64.6059 22.2039C64.6059 25.0701 66.6965 27.0833 69.3345 27.0833C71.9725 27.0833 74.0651 25.0423 74.0651 22.2039ZM79.6763 29.4575V14.9782C79.6763 14.2304 80.073 13.8178 80.7712 13.8178H82.6634C83.3854 13.8178 83.7583 14.2304 83.7583 14.9782V27.1349H89.8C90.4982 27.1349 90.8948 27.5216 90.8948 28.2694V29.4595C90.8948 30.1815 90.4982 30.596 89.8 30.596H80.7712C80.075 30.594 79.6763 30.1795 79.6763 29.4575ZM103.684 22.2039C103.684 17.2215 107.518 13.5044 112.596 13.5044C117.674 13.5044 121.508 17.2215 121.508 22.2039C121.508 27.1864 117.65 30.9035 112.596 30.9035C107.542 30.9035 103.684 27.1864 103.684 22.2039ZM117.325 22.2039C117.325 19.3378 115.234 17.3246 112.596 17.3246C109.958 17.3246 107.867 19.3378 107.867 22.2039C107.867 25.0701 109.958 27.0833 112.596 27.0833C115.234 27.0833 117.321 25.0423 117.321 22.2039H117.325ZM86.9993 17.2671C86.2773 17.2671 85.8787 16.8545 85.8787 16.1306V14.639C85.8787 13.8912 86.2753 13.5044 86.9993 13.5044H89.5778C90.4982 13.5044 91.1646 13.6849 91.7438 14.0995C92.4658 14.6152 92.9339 15.4681 93.3603 16.5253L96.4724 24.5028L101.905 11.2869C102.23 10.5114 102.728 10.1504 103.448 10.1504H105.291C106.013 10.1504 106.56 10.5372 106.211 11.2869L98.0076 29.6122C97.6605 30.3877 97.2856 30.723 96.5894 30.723H96.3395C95.6691 30.723 95.2942 30.3877 94.9213 29.6122L89.5937 17.8403C89.4707 17.5309 89.3458 17.3504 89.1474 17.2988C89.091 17.2774 89.0312 17.2667 88.9709 17.2671H86.9993Z" fill="white"/>
</g>
<defs>
<clipPath id="clip0_298_5953">
<rect width="129.586" height="48" fill="white" transform="translate(0.295532 0.000976562)"/>
</clipPath>
</defs>
</svg>
