<svg id="Capa_1" data-name="Capa 1" xmlns="http://www.w3.org/2000/svg" viewBox="0 0 1336.81 352.73"><defs><style>.cls-1{fill:#fff;}.cls-2{fill:#f9b233;}</style></defs><title>campuslands502</title><path class="cls-1" d="M295.22,447.63a47,47,0,0,1,10.67-14.56,50.07,50.07,0,0,1,15.78-9.85A51.87,51.87,0,0,1,341,419.64a51,51,0,0,1,19.29,3.58,46.56,46.56,0,0,1,15.3,9.85,45.07,45.07,0,0,1,13.59,32.47v10.74c0,2.18-.35,3.58-1.05,4.24a4.29,4.29,0,0,1-3,1H367.33a6.84,6.84,0,0,1-4.07-1c-.87-.66-1.3-2.06-1.3-4.24v-9.93a21.4,21.4,0,0,0-1.46-7.81A20,20,0,0,0,350,447.39a19.58,19.58,0,0,0-8.27-1.71,20.18,20.18,0,0,0-8.35,1.71,22.64,22.64,0,0,0-6.64,4.48,20,20,0,0,0-4.46,6.51,19.48,19.48,0,0,0-1.62,7.81v79.44a19.48,19.48,0,0,0,1.62,7.81A21,21,0,0,0,326.7,560a21.93,21.93,0,0,0,6.64,4.56,20.18,20.18,0,0,0,8.35,1.71A19.5,19.5,0,0,0,356.37,560,21.48,21.48,0,0,0,362,545.46v-8c0-2.06.38-3.45,1.14-4.15a4.85,4.85,0,0,1,3.42-1.06h18.39a4.61,4.61,0,0,1,3.1,1c.75.66,1.13,2,1.13,4.07v9a44.71,44.71,0,0,1-13.59,32.47,46.56,46.56,0,0,1-15.3,9.85A51.17,51.17,0,0,1,341,592.18a54.08,54.08,0,0,1-19.29-3.42,49.27,49.27,0,0,1-15.78-9.52,44.85,44.85,0,0,1-10.67-14.49,43.24,43.24,0,0,1-3.9-18.47v-80.9A41.24,41.24,0,0,1,295.22,447.63Z" transform="translate(-291.32 -364.13)"/><path class="cls-1" d="M412.1,445.19a6.36,6.36,0,0,1-1.06-4.47,7.89,7.89,0,0,1,3-5.13,88,88,0,0,1,7.73-5.86,52.25,52.25,0,0,1,9.77-5.13,70,70,0,0,1,26.78-5,52.51,52.51,0,0,1,19.14,3.5A48.57,48.57,0,0,1,493.32,433,46.25,46.25,0,0,1,504,448.2,47.53,47.53,0,0,1,508,467.66v78.13a46.46,46.46,0,0,1-2.53,16A41.72,41.72,0,0,1,498.68,574a42.81,42.81,0,0,1-9.54,8.71,55.91,55.91,0,0,1-10.84,5.61,59.08,59.08,0,0,1-20.22,3.91,59,59,0,0,1-17.69-2.77,48.26,48.26,0,0,1-16.14-8.63,44.66,44.66,0,0,1-11.82-14.89q-4.56-9-4.57-21.57v-6.67a60.05,60.05,0,0,1,3.59-21.57,41.11,41.11,0,0,1,10.25-15.62,43.5,43.5,0,0,1,16-9.45,62.47,62.47,0,0,1,20.92-3h20V467.49a25.88,25.88,0,0,0-1.14-7.4,20.84,20.84,0,0,0-3.74-7.08,20.29,20.29,0,0,0-6.84-5.38,23.28,23.28,0,0,0-10.42-2.11q-11.22,0-18.63,3.58a44.51,44.51,0,0,0-11.48,7.49,5.3,5.3,0,0,1-3.74,1.79,4.16,4.16,0,0,1-3.42-2.12Zm66.57,64.3h-13q-8.79,0-14.41,2.28a20.78,20.78,0,0,0-8.7,6.18,22,22,0,0,0-4.24,9,49.72,49.72,0,0,0-1.14,10.82v6A24.79,24.79,0,0,0,439,553.93a20.66,20.66,0,0,0,4.88,7,19.4,19.4,0,0,0,6.75,4.07,22.2,22.2,0,0,0,7.33,1.3,23.32,23.32,0,0,0,6.92-1.14,18.52,18.52,0,0,0,6.67-3.75,20.9,20.9,0,0,0,5.05-6.75,23.07,23.07,0,0,0,2-10.17Z" transform="translate(-291.32 -364.13)"/><path class="cls-1" d="M665.7,466.68a38.42,38.42,0,0,0-.65-6.59,20.73,20.73,0,0,0-2.52-6.84,16.36,16.36,0,0,0-5.21-5.37,15.56,15.56,0,0,0-8.71-2.2,18.93,18.93,0,0,0-7.16,1.38,20.14,20.14,0,0,0-6.19,4,20.86,20.86,0,0,0-4.56,6.51,22.85,22.85,0,0,0-2,8.79V584q0,5.21-4.39,5.21H603.85a4,4,0,0,1-3.18-1.38,5.62,5.62,0,0,1-1.22-3.83V465.54a37.31,37.31,0,0,0-1-6.43,21.37,21.37,0,0,0-2.68-6.51,15.62,15.62,0,0,0-5-5,14.07,14.07,0,0,0-7.65-1.95,18.3,18.3,0,0,0-7.32,1.55,21.3,21.3,0,0,0-6.43,4.31,23.07,23.07,0,0,0-4.72,6.67,21.84,21.84,0,0,0-2,8.79V583.23a5.4,5.4,0,0,1-1.87,4.55,6,6,0,0,1-3.66,1.47H537.76a4.08,4.08,0,0,1-3.09-1.38,5.38,5.38,0,0,1-1.31-3.83V427.61a4.85,4.85,0,0,1,1.39-3.82,4.62,4.62,0,0,1,3.17-1.22h12.7a7,7,0,0,1,4,1.05,5.57,5.57,0,0,1,2,3.83l1.47,6a51.49,51.49,0,0,1,14.08-10,39.2,39.2,0,0,1,17.33-3.82,51.43,51.43,0,0,1,7,.57,36.46,36.46,0,0,1,8.38,2.28,33.32,33.32,0,0,1,16,13.59A48.29,48.29,0,0,1,636.24,424a43.05,43.05,0,0,1,19.53-4.39,58.31,58.31,0,0,1,6,.4,37.19,37.19,0,0,1,8.14,2,39.53,39.53,0,0,1,8.87,4.55,30.23,30.23,0,0,1,8.06,8.31A46.27,46.27,0,0,1,692.72,448,69.72,69.72,0,0,1,695,467.17V584q0,5.21-4.39,5.21H669.93q-4.23,0-4.23-5.21Z" transform="translate(-291.32 -364.13)"/><path class="cls-1" d="M722.35,427.78a5.94,5.94,0,0,1,1.14-3.75,4.25,4.25,0,0,1,3.58-1.46h13a4.93,4.93,0,0,1,3.66,1.22q1.23,1.21,1.87,4.64l.66,6.18a47.67,47.67,0,0,1,14.48-10.9,43.44,43.44,0,0,1,35.81-.41,41.82,41.82,0,0,1,13.68,9.93A45.52,45.52,0,0,1,819.12,448a50.69,50.69,0,0,1,3.17,17.91v79.92a53.25,53.25,0,0,1-2.93,17.66,43.73,43.73,0,0,1-8.54,14.73,42.34,42.34,0,0,1-13.6,10.17,40.84,40.84,0,0,1-17.9,3.83,40.34,40.34,0,0,1-14.73-2.69,50.21,50.21,0,0,1-12.94-7.4v55c0,3.36-1.58,5-4.72,5H727.07q-4.73,0-4.72-5Zm29.3,118.66a21.26,21.26,0,0,0,1.71,7.57,19,19,0,0,0,4.31,6.35,21.42,21.42,0,0,0,6.51,4.31,20.1,20.1,0,0,0,8.14,1.63,19.75,19.75,0,0,0,8.3-1.71,21.22,21.22,0,0,0,6.51-4.56A20.67,20.67,0,0,0,793,545.46V466.19a20.29,20.29,0,0,0-1.54-7.81,20.75,20.75,0,0,0-4.32-6.59,21.22,21.22,0,0,0-6.51-4.56,20.8,20.8,0,0,0-16.52,0,21,21,0,0,0-6.59,4.56,20.59,20.59,0,0,0-4.32,6.59,20.29,20.29,0,0,0-1.54,7.81Z" transform="translate(-291.32 -364.13)"/><path class="cls-1" d="M875.84,545.3a25.39,25.39,0,0,0,1.55,7.81,20.76,20.76,0,0,0,4,6.68,18.65,18.65,0,0,0,6.43,4.64,21.12,21.12,0,0,0,8.71,1.71,19.13,19.13,0,0,0,7.65-1.63,22,22,0,0,0,6.59-4.4,22.25,22.25,0,0,0,4.64-6.59,20.76,20.76,0,0,0,2-8.06v-117a5.26,5.26,0,0,1,1.87-4.4,6,6,0,0,1,3.67-1.46h19.37a4.22,4.22,0,0,1,3,1.38,5.18,5.18,0,0,1,1.38,3.83V584.37a4.53,4.53,0,0,1-1.46,3.66,5,5,0,0,1-3.26,1.22h-12.7a6.22,6.22,0,0,1-3.66-1,6,6,0,0,1-2-3.58L922.23,578a51.16,51.16,0,0,1-14.07,10.25,37.47,37.47,0,0,1-16.85,3.91,46.8,46.8,0,0,1-18.15-3.42,41.5,41.5,0,0,1-14.16-9.6,42.89,42.89,0,0,1-9.2-14.82,53.51,53.51,0,0,1-3.25-19V427.61a4.85,4.85,0,0,1,1.38-3.74,4.48,4.48,0,0,1,3.17-1.3h20.35a4.22,4.22,0,0,1,3.09,1.3,5,5,0,0,1,1.3,3.74Z" transform="translate(-291.32 -364.13)"/><path class="cls-1" d="M967.49,542.53c0-3.14,2.11-4.72,6.35-4.72h17.25q4.23,0,4.23,4.89v4.39A19.2,19.2,0,0,0,997,555a18.35,18.35,0,0,0,4.48,6.26,20.69,20.69,0,0,0,6.67,4.07,23.16,23.16,0,0,0,8.38,1.47,21.33,21.33,0,0,0,8.06-1.55,19.69,19.69,0,0,0,6.67-4.4,21.09,21.09,0,0,0,4.48-6.59,20.26,20.26,0,0,0,1.63-8.14,15.45,15.45,0,0,0-3-9.11,41.62,41.62,0,0,0-8.1-8.3,138.21,138.21,0,0,0-11.92-8.39q-6.79-4.3-14.58-9.68a107,107,0,0,1-12-8.47,60.14,60.14,0,0,1-9.74-10,45.31,45.31,0,0,1-6.62-12.2A43.81,43.81,0,0,1,969,464.89a45.24,45.24,0,0,1,3.5-17.74,42.8,42.8,0,0,1,9.85-14.41,46.32,46.32,0,0,1,15.06-9.6,50.21,50.21,0,0,1,19-3.5,55.52,55.52,0,0,1,20.1,3.42,44.05,44.05,0,0,1,15.14,9.52,40.12,40.12,0,0,1,9.52,14.57,50.79,50.79,0,0,1,3.26,18.39v4.23c0,1.52-.44,2.52-1.3,3a8.61,8.61,0,0,1-4.07.74H1042.2q-4.56,0-4.56-4.56v-3.91a20.57,20.57,0,0,0-1.54-8.06,19.67,19.67,0,0,0-18.4-12.12,18.53,18.53,0,0,0-14.1,6.1,20,20,0,0,0-4,6.59,22.92,22.92,0,0,0-1.38,8,19.52,19.52,0,0,0,1.46,8,19.17,19.17,0,0,0,4.79,6.26,59.2,59.2,0,0,0,8.61,6.27q5.28,3.26,13.07,8a157.67,157.67,0,0,1,15.26,9.92,78.73,78.73,0,0,1,12.83,11.72,54.9,54.9,0,0,1,8.85,13.92,40.61,40.61,0,0,1,3.33,16.52,47,47,0,0,1-3.5,18.32,42.27,42.27,0,0,1-10,14.56,46.7,46.7,0,0,1-15.54,9.69,54.83,54.83,0,0,1-19.94,3.5q-14,0-23.52-3.74a40.76,40.76,0,0,1-15.38-10.1,38.14,38.14,0,0,1-8.47-14.65,57.69,57.69,0,0,1-2.6-17.41Z" transform="translate(-291.32 -364.13)"/><path class="cls-1" d="M1088.27,369.34a5.59,5.59,0,0,1,1.22-3.74,4.29,4.29,0,0,1,3.5-1.47h19.86a4.28,4.28,0,0,1,3.49,1.47,5.6,5.6,0,0,1,1.23,3.74V547.58q0,7.15,3.41,11.15t11.72,4h4.56c2.06,0,3.31.62,3.75,1.87a10.13,10.13,0,0,1,.65,3.17v16.77a8.2,8.2,0,0,1-.17,1.63,2.62,2.62,0,0,1-.89,1.46,6.15,6.15,0,0,1-2.2,1.14,12.59,12.59,0,0,1-3.91.49h-9.11a50.49,50.49,0,0,1-15-2.12,28.89,28.89,0,0,1-11.72-6.83,32.16,32.16,0,0,1-7.65-12.37q-2.76-7.65-2.76-18.89Z" transform="translate(-291.32 -364.13)"/><path class="cls-1" d="M1162.65,445.19a6.31,6.31,0,0,1-1.05-4.47,7.89,7.89,0,0,1,3-5.13,86.48,86.48,0,0,1,7.73-5.86,51.94,51.94,0,0,1,9.77-5.13,70,70,0,0,1,26.77-5,52.52,52.52,0,0,1,19.15,3.5,48.57,48.57,0,0,1,15.85,9.84,46.25,46.25,0,0,1,10.72,15.22,47.53,47.53,0,0,1,3.93,19.46v78.13a46.7,46.7,0,0,1-2.53,16,41.72,41.72,0,0,1-6.76,12.13,42.81,42.81,0,0,1-9.54,8.71,56,56,0,0,1-10.85,5.61,59.08,59.08,0,0,1-20.21,3.91,59,59,0,0,1-17.69-2.77,48.07,48.07,0,0,1-16.14-8.63A44.66,44.66,0,0,1,1163,565.89q-4.58-9-4.57-21.57v-6.67a60.06,60.06,0,0,1,3.58-21.57,41.24,41.24,0,0,1,10.26-15.62,43.5,43.5,0,0,1,16-9.45,62.47,62.47,0,0,1,20.92-3h20V467.49a25.88,25.88,0,0,0-1.14-7.4,20.84,20.84,0,0,0-3.74-7.08,20.29,20.29,0,0,0-6.84-5.38,23.31,23.31,0,0,0-10.42-2.11q-11.23,0-18.64,3.58a44.43,44.43,0,0,0-11.47,7.49,5.32,5.32,0,0,1-3.75,1.79,4.15,4.15,0,0,1-3.41-2.12Zm66.58,64.3h-13q-8.79,0-14.41,2.28a20.81,20.81,0,0,0-8.71,6.18,22.12,22.12,0,0,0-4.23,9,49.72,49.72,0,0,0-1.14,10.82v6a24.8,24.8,0,0,0,1.87,10.09,20.82,20.82,0,0,0,4.89,7,19.22,19.22,0,0,0,6.75,4.07,22.2,22.2,0,0,0,7.33,1.3,23.25,23.25,0,0,0,6.91-1.14,18.48,18.48,0,0,0,6.68-3.75,20.74,20.74,0,0,0,5-6.75,22.93,22.93,0,0,0,2-10.17Z" transform="translate(-291.32 -364.13)"/><path class="cls-1" d="M1313.22,583.39a5.22,5.22,0,0,1-1.87,4.39,6,6,0,0,1-3.66,1.47h-19.37a4.19,4.19,0,0,1-3-1.38,5.16,5.16,0,0,1-1.39-3.83V427.45a4.47,4.47,0,0,1,1.47-3.66,4.91,4.91,0,0,1,3.25-1.22h12.7a6.6,6.6,0,0,1,3.74,1,5.24,5.24,0,0,1,2,3.58l1.3,6.68a51.84,51.84,0,0,1,14-10.26,37.36,37.36,0,0,1,16.92-3.9,46.8,46.8,0,0,1,18.15,3.42,41.5,41.5,0,0,1,14.17,9.6,43,43,0,0,1,9.19,14.81,53.57,53.57,0,0,1,3.26,19V584.2a5.11,5.11,0,0,1-1.3,3.75,4.22,4.22,0,0,1-3.1,1.3h-20.51A4.22,4.22,0,0,1,1356,588a5.07,5.07,0,0,1-1.3-3.75V466.68a26.38,26.38,0,0,0-1.55-7.9,21.43,21.43,0,0,0-3.9-6.75,18,18,0,0,0-6.35-4.64,21.56,21.56,0,0,0-8.87-1.71,18.62,18.62,0,0,0-7.82,1.71,22.79,22.79,0,0,0-6.67,4.64,21.86,21.86,0,0,0-4.64,6.92,21.46,21.46,0,0,0-1.71,8.54Z" transform="translate(-291.32 -364.13)"/><path class="cls-1" d="M1507.9,546.28a43.09,43.09,0,0,1-3.91,18.47,44.82,44.82,0,0,1-10.66,14.49,49.05,49.05,0,0,1-15.87,9.52,54.68,54.68,0,0,1-19.37,3.42,55.58,55.58,0,0,1-19.69-3.42,49.05,49.05,0,0,1-15.87-9.52,44.85,44.85,0,0,1-10.67-14.49,43.24,43.24,0,0,1-3.9-18.47V465.54a46.64,46.64,0,0,1,3.58-18.39,44.52,44.52,0,0,1,9.76-14.57,43.85,43.85,0,0,1,14.74-9.52,49.21,49.21,0,0,1,18.47-3.42,42,42,0,0,1,12.21,1.87,57.64,57.64,0,0,1,11.88,5.13v-57.3a5.89,5.89,0,0,1,1.14-3.74,4.24,4.24,0,0,1,3.58-1.47H1503a4.47,4.47,0,0,1,3.66,1.47,5.65,5.65,0,0,1,1.22,3.74Zm-29.3-80.09a20.29,20.29,0,0,0-1.54-7.81,20.71,20.71,0,0,0-10.86-11.15,19.77,19.77,0,0,0-8.19-1.71,20.15,20.15,0,0,0-8.35,1.71,21,21,0,0,0-6.57,4.56,20.33,20.33,0,0,0-4.29,6.67,20.88,20.88,0,0,0-1.54,7.89v79.28a20.29,20.29,0,0,0,1.54,7.81,20.5,20.5,0,0,0,4.29,6.59,21,21,0,0,0,6.57,4.56,20.15,20.15,0,0,0,8.35,1.71,19.77,19.77,0,0,0,8.19-1.71,20.71,20.71,0,0,0,10.86-11.15,20.29,20.29,0,0,0,1.54-7.81Z" transform="translate(-291.32 -364.13)"/><path class="cls-1" d="M1568.57,446.49a18.84,18.84,0,0,0-6.16,4.48,20,20,0,0,0-4,6.59,22.92,22.92,0,0,0-1.38,8,19.52,19.52,0,0,0,1.46,8,19,19,0,0,0,4.79,6.26,59.2,59.2,0,0,0,8.61,6.27q5.28,3.26,13.07,8a158.9,158.9,0,0,1,15.26,9.92,78.73,78.73,0,0,1,12.83,11.72,54.9,54.9,0,0,1,8.85,13.92,40.61,40.61,0,0,1,3.33,16.52,47.16,47.16,0,0,1-3.5,18.32,42.27,42.27,0,0,1-10,14.56,46.7,46.7,0,0,1-15.54,9.69,54.87,54.87,0,0,1-19.94,3.5q-14,0-23.52-3.74a40.88,40.88,0,0,1-15.39-10.1,38.12,38.12,0,0,1-8.46-14.65,57.7,57.7,0,0,1-2.61-17.41v-3.75c0-3.14,2.12-4.72,6.35-4.72h17.26q4.23,0,4.23,4.89v4.39a19.2,19.2,0,0,0,1.63,7.9,18.46,18.46,0,0,0,4.47,6.26,20.84,20.84,0,0,0,6.68,4.07,23.16,23.16,0,0,0,8.38,1.47,21.33,21.33,0,0,0,8.06-1.55,19.69,19.69,0,0,0,6.67-4.4,21.09,21.09,0,0,0,4.48-6.59,20.26,20.26,0,0,0,1.63-8.14,15.45,15.45,0,0,0-3-9.11,41.42,41.42,0,0,0-8.11-8.3,136.41,136.41,0,0,0-11.91-8.39q-6.81-4.3-14.59-9.68a107.83,107.83,0,0,1-11.94-8.47,59.75,59.75,0,0,1-9.74-10,45.61,45.61,0,0,1-6.63-12.2,44.05,44.05,0,0,1-2.45-15.06,45.24,45.24,0,0,1,3.5-17.74,42.8,42.8,0,0,1,9.85-14.41,46.38,46.38,0,0,1,15.05-9.6,50.29,50.29,0,0,1,19-3.5,55.59,55.59,0,0,1,20.1,3.42,44.05,44.05,0,0,1,15.14,9.52,40.25,40.25,0,0,1,9.52,14.57,50.79,50.79,0,0,1,3.26,18.39v4.23c0,1.52-.44,2.52-1.31,3a8.59,8.59,0,0,1-4.07.74H1601q-4.56,0-4.56-4.56v-3.91a20.57,20.57,0,0,0-1.54-8.06,19.46,19.46,0,0,0-10.53-10.58" transform="translate(-291.32 -364.13)"/><text x="-291.32" y="-364.13"/><path class="cls-2" d="M1257.08,636.3a4.42,4.42,0,0,0-4.41,4.41v9.69c0,1.34.9,2,2.69,2h70.82a24.67,24.67,0,0,1,7,1,15.94,15.94,0,0,1,6.13,3.36,16.56,16.56,0,0,1,4.28,6,23.41,23.41,0,0,1,1.59,9.23v30a10.3,10.3,0,0,1-1.42,4.95,22.13,22.13,0,0,1-3.53,4.78,19.26,19.26,0,0,1-4.7,3.61,10.59,10.59,0,0,1-5.11,1.43H1227.55a4.42,4.42,0,0,1-4.42-4.42V697.1a4.42,4.42,0,0,1,4.42-4.41h85.2c1.79,0,2.69-.67,2.69-2V678.59a1.83,1.83,0,0,0-.84-1.34,2.89,2.89,0,0,0-1.85-.67h-72.16a22.09,22.09,0,0,1-6.55-1.34,16.54,16.54,0,0,1-5.62-3.44,15.83,15.83,0,0,1-3.86-6,24.75,24.75,0,0,1-1.43-8.9V616.55a4.42,4.42,0,0,1,4.42-4.42h103.62a4.42,4.42,0,0,1,4.41,4.42v15.34a4.42,4.42,0,0,1-4.41,4.41Z" transform="translate(-291.32 -364.13)"/><path class="cls-2" d="M1365.05,630.93a17.67,17.67,0,0,1,1.93-8.56,16.66,16.66,0,0,1,5.21-5.79,23.52,23.52,0,0,1,7.3-3.36,32.22,32.22,0,0,1,8.39-1.09h76.53a28.73,28.73,0,0,1,8,1.18,22.76,22.76,0,0,1,7.3,3.61,20.25,20.25,0,0,1,5.37,6,15.45,15.45,0,0,1,2.1,8.06v67.13a15.45,15.45,0,0,1-2.1,8.06,20.25,20.25,0,0,1-5.37,6,22.56,22.56,0,0,1-7.3,3.61,28.37,28.37,0,0,1-8,1.18h-76.53a32.22,32.22,0,0,1-8.39-1.09,23.52,23.52,0,0,1-7.3-3.36,16.66,16.66,0,0,1-5.21-5.79,17.67,17.67,0,0,1-1.93-8.56Zm62.77,5.37h-33.23v53.37Zm29.71,3.69-33.23,52.7h33.23Z" transform="translate(-291.32 -364.13)"/><path class="cls-2" d="M1364.76,630.93a17.55,17.55,0,0,1,1.93-8.56,16.63,16.63,0,0,1,5.2-5.79,23.63,23.63,0,0,1,7.3-3.36,32.28,32.28,0,0,1,8.39-1.09h76.53a28.8,28.8,0,0,1,8.06,1.18,22.87,22.87,0,0,1,7.3,3.61,20.25,20.25,0,0,1,5.37,6,15.45,15.45,0,0,1,2.1,8.06v67.13a15.45,15.45,0,0,1-2.1,8.06,20.25,20.25,0,0,1-5.37,6,22.66,22.66,0,0,1-7.3,3.61,28.44,28.44,0,0,1-8.06,1.18h-76.53a32.28,32.28,0,0,1-8.39-1.09,23.63,23.63,0,0,1-7.3-3.36,16.63,16.63,0,0,1-5.2-5.79,17.55,17.55,0,0,1-1.93-8.56Zm62.77,5.37H1394.3v53.37Zm29.7,3.69L1424,692.69h33.23Z" transform="translate(-291.32 -364.13)"/><path class="cls-2" d="M1506.12,634V614.44a2.3,2.3,0,0,1,2.3-2.31h104.77a10.38,10.38,0,0,1,5,1.43,22.37,22.37,0,0,1,8.56,8.56,10.35,10.35,0,0,1,1.43,5v29.87a24.75,24.75,0,0,1-1.43,8.9,15.83,15.83,0,0,1-3.86,6,16.54,16.54,0,0,1-5.62,3.44,22.09,22.09,0,0,1-6.55,1.34h-72.16a2.89,2.89,0,0,0-1.85.67,1.83,1.83,0,0,0-.84,1.34v12.09c0,1.34.9,2,2.69,2h87.31a2.31,2.31,0,0,1,2.31,2.3v19.56a2.31,2.31,0,0,1-2.31,2.31H1520.89a10.6,10.6,0,0,1-5.12-1.43,19.07,19.07,0,0,1-4.7-3.61,22.13,22.13,0,0,1-3.53-4.78,10.3,10.3,0,0,1-1.42-4.95v-30a23.41,23.41,0,0,1,1.59-9.23,16.56,16.56,0,0,1,4.28-6,15.94,15.94,0,0,1,6.13-3.36,24.67,24.67,0,0,1,7-1h70.82c1.79,0,2.69-.67,2.69-2V638.31a1.83,1.83,0,0,0-.84-1.34,2.94,2.94,0,0,0-1.85-.67h-87.48A2.3,2.3,0,0,1,1506.12,634Z" transform="translate(-291.32 -364.13)"/></svg>