<svg id="Capa_1" data-name="Capa 1" xmlns="http://www.w3.org/2000/svg" xmlns:xlink="http://www.w3.org/1999/xlink" viewBox="0 0 1337.76 454.56"><defs><style>.cls-1{fill:#fff;}.cls-2{fill:#f4b422;}.cls-3{fill:url(#Degradado_sin_nombre_149);}</style><linearGradient id="Degradado_sin_nombre_149" x1="391.65" y1="297.17" x2="391.65" y2="297.17" gradientUnits="userSpaceOnUse"><stop offset="0.04" stop-color="#152f5e"/><stop offset="0.09" stop-color="#2f5681"/><stop offset="0.2" stop-color="#6fb9d8"/><stop offset="0.25" stop-color="#8ce5fe"/><stop offset="0.31" stop-color="#81d8fc"/><stop offset="0.5" stop-color="#65b6f8"/><stop offset="0.69" stop-color="#519ef5"/><stop offset="0.86" stop-color="#448ff4"/><stop offset="1" stop-color="#408af3"/></linearGradient></defs><title>Campus502Logo</title><path class="cls-1" d="M297.58,405.32A81.38,81.38,0,0,1,316,380.17a86.67,86.67,0,0,1,27.25-17A89.57,89.57,0,0,1,376.52,357a88.11,88.11,0,0,1,33.29,6.18,80.72,80.72,0,0,1,26.41,17,77.81,77.81,0,0,1,23.46,56.05v18.54q0,5.63-1.83,7.3a7.37,7.37,0,0,1-5.2,1.69H422q-4.77,0-7-1.69t-2.25-7.3V437.62a36.78,36.78,0,0,0-2.52-13.48,34.55,34.55,0,0,0-18.19-19.24A33.77,33.77,0,0,0,377.78,402a34.74,34.74,0,0,0-14.41,2.95,39.21,39.21,0,0,0-11.47,7.72,34.94,34.94,0,0,0-7.7,11.24,33.66,33.66,0,0,0-2.79,13.48V574.43a33.68,33.68,0,0,0,2.79,13.49,36.56,36.56,0,0,0,7.7,11.38,38.1,38.1,0,0,0,11.47,7.86,34.74,34.74,0,0,0,14.41,3,33.62,33.62,0,0,0,25.33-11,36.4,36.4,0,0,0,7.13-11.51,36.83,36.83,0,0,0,2.52-13.49V560.39q0-5.34,2-7.17c1.31-1.21,3.27-1.82,5.9-1.82h31.74a8,8,0,0,1,5.34,1.68q2,1.7,2,7v15.45a77.13,77.13,0,0,1-23.46,56,80.58,80.58,0,0,1-26.41,17,88.31,88.31,0,0,1-33.29,6.18,93.4,93.4,0,0,1-33.29-5.9A85.15,85.15,0,0,1,316,632.44a77.39,77.39,0,0,1-18.4-25,74.59,74.59,0,0,1-6.74-31.88V435.94A71.09,71.09,0,0,1,297.58,405.32Z" transform="translate(-290.84 -357)"/><path class="cls-1" d="M499.29,401.1a11,11,0,0,1-1.83-7.72q.42-4.63,5.2-8.85A150,150,0,0,1,516,374.42a88.08,88.08,0,0,1,16.86-8.85,122.87,122.87,0,0,1,20.79-6.18A124.17,124.17,0,0,1,579.07,357a90.77,90.77,0,0,1,33,6,84.09,84.09,0,0,1,27.36,17A79.84,79.84,0,0,1,658,406.3a82,82,0,0,1,6.78,33.57V574.71q0,15.74-4.36,27.68a71.85,71.85,0,0,1-11.68,20.92,73.11,73.11,0,0,1-16.46,15A95.49,95.49,0,0,1,613.54,648a101.72,101.72,0,0,1-34.89,6.75A102.33,102.33,0,0,1,548.12,650a83.2,83.2,0,0,1-27.86-14.89,77.25,77.25,0,0,1-20.4-25.7Q492,593.81,492,572.18V560.67q0-21.07,6.18-37.22a71.25,71.25,0,0,1,17.7-27,75.13,75.13,0,0,1,27.67-16.3q16.15-5.48,36.1-5.19h34.56v-35.4a44.72,44.72,0,0,0-2-12.78,35.93,35.93,0,0,0-6.46-12.22,34.6,34.6,0,0,0-11.8-9.27q-7.31-3.65-18-3.66-19.38,0-32.17,6.19T524,420.77a9.13,9.13,0,0,1-6.46,3.09q-3.37,0-5.9-3.65Zm114.9,111H591.71q-15.16,0-24.86,3.93t-15,10.68a37.84,37.84,0,0,0-7.3,15.59,85.39,85.39,0,0,0-2,18.68v10.39a42.89,42.89,0,0,0,3.23,17.42,35.64,35.64,0,0,0,8.43,12.08,32.94,32.94,0,0,0,11.66,7,38.26,38.26,0,0,0,12.64,2.25,40,40,0,0,0,11.94-2A31.74,31.74,0,0,0,602,601.68,36,36,0,0,0,610.67,590q3.51-7.15,3.52-17.55Z" transform="translate(-290.84 -357)"/><path class="cls-1" d="M937,438.18a65.5,65.5,0,0,0-1.13-11.37,35.18,35.18,0,0,0-4.35-11.8,28.35,28.35,0,0,0-9-9.27q-5.76-3.8-15-3.79a32.84,32.84,0,0,0-12.36,2.38,34.42,34.42,0,0,0-10.68,6.89,35.53,35.53,0,0,0-7.86,11.23,38.94,38.94,0,0,0-3.37,15.17V640.73q0,9-7.59,9H830.22a6.93,6.93,0,0,1-5.48-2.39,9.6,9.6,0,0,1-2.11-6.6V436.22a66.32,66.32,0,0,0-1.68-11.1,37.19,37.19,0,0,0-4.64-11.23,26.58,26.58,0,0,0-8.57-8.57,24.24,24.24,0,0,0-13.2-3.37,31.69,31.69,0,0,0-12.64,2.66,37,37,0,0,0-11.1,7.45,39.83,39.83,0,0,0-8.15,11.52,37.71,37.71,0,0,0-3.51,15.17V639.33q0,5.34-3.23,7.86a10.29,10.29,0,0,1-6.32,2.53H716.16a7.07,7.07,0,0,1-5.34-2.39,9.23,9.23,0,0,1-2.24-6.6v-270q0-4.49,2.38-6.6a8.07,8.07,0,0,1,5.48-2.11h21.91a12,12,0,0,1,6.89,1.83c1.77,1.22,3,3.42,3.51,6.6l2.53,10.4a88.73,88.73,0,0,1,24.3-17.28,67.67,67.67,0,0,1,29.91-6.6,89.69,89.69,0,0,1,12.08,1A63.61,63.61,0,0,1,832,361.91a59.35,59.35,0,0,1,14.61,8.57,58.63,58.63,0,0,1,13.06,14.89,83.45,83.45,0,0,1,26.41-20.79A74.39,74.39,0,0,1,919.83,357a100.24,100.24,0,0,1,10.39.7,63.35,63.35,0,0,1,14,3.37,67.75,67.75,0,0,1,15.31,7.87,52.19,52.19,0,0,1,13.91,14.32A80.43,80.43,0,0,1,983.6,406q3.93,13.64,3.93,33v201.7q0,9-7.58,9H944.27q-7.31,0-7.3-9Z" transform="translate(-290.84 -357)"/><path class="cls-1" d="M1034.73,371a10.23,10.23,0,0,1,2-6.46c1.31-1.68,3.38-2.53,6.18-2.53h22.48c2.81,0,4.92.71,6.32,2.11s2.48,4.08,3.23,8l1.12,10.67A82.23,82.23,0,0,1,1101,364a75,75,0,0,1,61.8-.7,72.45,72.45,0,0,1,23.6,17.13,78.3,78.3,0,0,1,15.31,25.43,87.33,87.33,0,0,1,5.48,30.9V574.71a91.7,91.7,0,0,1-5.06,30.48,75.6,75.6,0,0,1-14.75,25.43A73,73,0,0,1,1164,648.17a70.56,70.56,0,0,1-30.9,6.61,69.61,69.61,0,0,1-25.42-4.64,87.09,87.09,0,0,1-22.33-12.78v94.95q0,8.72-8.15,8.71h-34.28q-8.14,0-8.14-8.71Zm50.57,204.8a37.12,37.12,0,0,0,2.94,13.06,32.94,32.94,0,0,0,7.45,11,37.08,37.08,0,0,0,11.24,7.44,34.66,34.66,0,0,0,14,2.81,34.08,34.08,0,0,0,14.33-3,37,37,0,0,0,11.24-7.86,35.87,35.87,0,0,0,10.11-25.15V437.34a35,35,0,0,0-2.67-13.48,35.83,35.83,0,0,0-7.44-11.38,37.08,37.08,0,0,0-11.24-7.87,35.92,35.92,0,0,0-28.51,0,36.4,36.4,0,0,0-11.38,7.87,35.69,35.69,0,0,0-7.45,11.38,35,35,0,0,0-2.66,13.48Z" transform="translate(-290.84 -357)"/><path class="cls-1" d="M1299.64,573.87a43.31,43.31,0,0,0,2.67,13.49,35.73,35.73,0,0,0,6.88,11.51,32,32,0,0,0,11.1,8,36.42,36.42,0,0,0,15,3,32.71,32.71,0,0,0,13.2-2.81,37.82,37.82,0,0,0,11.38-7.58,38.57,38.57,0,0,0,8-11.38,35.79,35.79,0,0,0,3.38-13.91v-202c0-3.37,1.07-5.9,3.23-7.59a10.33,10.33,0,0,1,6.32-2.53h33.43a7.24,7.24,0,0,1,5.19,2.39,9,9,0,0,1,2.39,6.6V641.29q0,4.22-2.53,6.32a8.53,8.53,0,0,1-5.62,2.11h-21.91a10.7,10.7,0,0,1-6.32-1.69q-2.39-1.68-3.51-6.17l-2.25-11.52A88.56,88.56,0,0,1,1355.4,648a64.62,64.62,0,0,1-29.07,6.75,80.88,80.88,0,0,1-31.33-5.9,71.63,71.63,0,0,1-24.44-16.58,74.26,74.26,0,0,1-15.87-25.56,92.34,92.34,0,0,1-5.62-32.87V370.76a8.45,8.45,0,0,1,2.39-6.46,7.79,7.79,0,0,1,5.48-2.25h35.11a7.33,7.33,0,0,1,5.34,2.25,8.74,8.74,0,0,1,2.25,6.46Z" transform="translate(-290.84 -357)"/><path class="cls-1" d="M1457.8,569.1q0-8.15,11-8.15h29.77q7.31,0,7.31,8.43V577a33.09,33.09,0,0,0,2.81,13.63,32,32,0,0,0,7.72,10.81,35.79,35.79,0,0,0,11.52,7,40,40,0,0,0,14.47,2.53,36.55,36.55,0,0,0,13.9-2.67,34.12,34.12,0,0,0,11.52-7.58,36.33,36.33,0,0,0,7.72-11.38,34.69,34.69,0,0,0,2.81-14,26.73,26.73,0,0,0-5.17-15.74,72,72,0,0,0-14-14.32,235.38,235.38,0,0,0-20.56-14.47q-11.76-7.44-25.18-16.72a184.38,184.38,0,0,1-20.62-14.6,103.75,103.75,0,0,1-16.8-17.28,78.47,78.47,0,0,1-11.44-21.07,75.72,75.72,0,0,1-4.23-26,78,78,0,0,1,6-30.63,74,74,0,0,1,17-24.86,80.33,80.33,0,0,1,26-16.57,86.91,86.91,0,0,1,32.73-6q19.38,0,34.69,5.9a76.33,76.33,0,0,1,26.13,16.43,69.61,69.61,0,0,1,16.43,25.14,87.87,87.87,0,0,1,5.62,31.75v7.3q0,3.94-2.25,5.2t-7,1.26h-28.94q-7.86,0-7.86-7.86v-6.74a35.55,35.55,0,0,0-2.66-13.91,34.05,34.05,0,0,0-7.28-11,33.7,33.7,0,0,0-10.9-7.31,34.45,34.45,0,0,0-13.58-2.67,32.65,32.65,0,0,0-13.7,2.81,32.24,32.24,0,0,0-10.63,7.73,34.38,34.38,0,0,0-6.86,11.37,39.46,39.46,0,0,0-2.38,13.77,33.53,33.53,0,0,0,2.52,13.76,33,33,0,0,0,8.27,10.82,102.11,102.11,0,0,0,14.86,10.82q9.11,5.61,22.56,13.76a278.46,278.46,0,0,1,26.34,17.14,135.59,135.59,0,0,1,22.14,20.22,94.38,94.38,0,0,1,15.27,24,70.08,70.08,0,0,1,5.75,28.52,81.32,81.32,0,0,1-6,31.6A73.11,73.11,0,0,1,1605.28,632a80.8,80.8,0,0,1-26.83,16.72,94.62,94.62,0,0,1-34.41,6q-24.16,0-40.59-6.46T1476.9,630.9a65.94,65.94,0,0,1-14.61-25.28,100.07,100.07,0,0,1-4.49-30.06Z" transform="translate(-290.84 -357)"/><path class="cls-2" d="M1152.11,705.7a5.8,5.8,0,0,0-5.8,5.8v12.72q0,2.65,3.53,2.65h93.07a32.55,32.55,0,0,1,9.15,1.32,21.16,21.16,0,0,1,8,4.41,22,22,0,0,1,5.62,7.94,30.65,30.65,0,0,1,2.1,12.13v39.48a13.53,13.53,0,0,1-1.88,6.5,29.16,29.16,0,0,1-4.63,6.29,25.84,25.84,0,0,1-6.17,4.74,13.93,13.93,0,0,1-6.73,1.88H1113.3a5.8,5.8,0,0,1-5.8-5.8V785.6a5.8,5.8,0,0,1,5.8-5.8h112q3.52,0,3.53-2.65V761.27a2.41,2.41,0,0,0-1.1-1.76,3.79,3.79,0,0,0-2.43-.88h-94.83a29,29,0,0,1-8.6-1.77,21.43,21.43,0,0,1-7.38-4.52,20.5,20.5,0,0,1-5.08-7.83,32.44,32.44,0,0,1-1.87-11.68V679.74a5.8,5.8,0,0,1,5.8-5.8h136.16a5.8,5.8,0,0,1,5.8,5.8V699.9a5.8,5.8,0,0,1-5.8,5.8Z" transform="translate(-290.84 -357)"/><path class="cls-2" d="M1287.67,698.64a23.15,23.15,0,0,1,2.54-11.25,21.91,21.91,0,0,1,6.84-7.6,30.55,30.55,0,0,1,9.59-4.41,41.81,41.81,0,0,1,11-1.44h100.56a38,38,0,0,1,10.59,1.54,30.3,30.3,0,0,1,9.59,4.75,26.58,26.58,0,0,1,7.06,7.83,20.33,20.33,0,0,1,2.75,10.58v88.22a20.35,20.35,0,0,1-2.75,10.58,26.58,26.58,0,0,1-7.06,7.83,30.07,30.07,0,0,1-9.59,4.74,37.65,37.65,0,0,1-10.59,1.55H1317.67a41.81,41.81,0,0,1-11-1.44,30.55,30.55,0,0,1-9.59-4.41,21.85,21.85,0,0,1-6.84-7.61,23.08,23.08,0,0,1-2.54-11.24Zm82.48,7.06h-43.66v70.13Zm39,4.85-43.67,69.25h43.67Z" transform="translate(-290.84 -357)"/><path class="cls-2" d="M1467.85,702.67V677a3,3,0,0,1,3-3h137.67a13.59,13.59,0,0,1,6.51,1.88,29.67,29.67,0,0,1,11.25,11.24,13.71,13.71,0,0,1,1.87,6.51v39.26a32.66,32.66,0,0,1-1.87,11.68,20.62,20.62,0,0,1-5.08,7.83,21.52,21.52,0,0,1-7.38,4.52,29.1,29.1,0,0,1-8.61,1.77h-94.83a3.76,3.76,0,0,0-2.42.88,2.4,2.4,0,0,0-1.11,1.76v15.88c0,1.77,1.18,2.65,3.75,1.14h114.74c1.45,1.51,2.81,2.86,2.81,4.54v25.7a3,3,0,0,1-3,3H1487.26a13.93,13.93,0,0,1-6.73-1.88,25.45,25.45,0,0,1-6.17-4.74,29.21,29.21,0,0,1-4.64-6.29,13.51,13.51,0,0,1-1.87-6.5V752.67a30.84,30.84,0,0,1,2.09-12.13,22,22,0,0,1,5.63-7.94,21.09,21.09,0,0,1,8-4.41,32.45,32.45,0,0,1,9.15-1.32h93.07q3.53,0,3.53-2.65V708.34a2.4,2.4,0,0,0-1.11-1.76,3.76,3.76,0,0,0-2.42-.88h-115A3,3,0,0,1,1467.85,702.67Z" transform="translate(-290.84 -357)"/><path class="cls-3" d="M391.65,297.17" transform="translate(-290.84 -357)"/></svg>